  0
SECTION
  2
HEADER
  0
ENDSEC
  0
SECTION
  2
BLOCKS
  0
BLOCK
  8
1
  2
фуфайка_006_A54
 70
0
 10
0.000000
 20
0.000000
  0
LINE
  8
7
 10
-700.000000
 20
-100.000000
 11
-700.000000
 21
-250.000000
  0
TEXT
  8
2
 10
-700.000000
 20
-100.000000
 40
0.400000
  1
# 1
  0
TEXT
  8
2
 10
-700.000000
 20
-250.000000
 40
0.400000
  1
# 2
  0
POLYLINE
  8
1
 66
1
 70
    1
  0
VERTEX
  8
1
 10
-440.521454
 20
431.726746
  0
VERTEX
  8
1
 10
-444.424530
 20
432.831207
  0
VERTEX
  8
1
 10
-451.014313
 20
434.695953
  0
VERTEX
  8
1
 10
-453.323639
 20
435.349426
  0
VERTEX
  8
1
 10
-487.137360
 20
444.917755
  0
VERTEX
  8
1
 10
-493.433960
 20
446.699493
  0
VERTEX
  8
1
 10
-527.015625
 20
456.202148
  0
VERTEX
  8
1
 10
-533.312195
 20
457.983887
  0
VERTEX
  8
1
 10
-566.893860
 20
467.486542
  0
VERTEX
  8
1
 10
-573.190430
 20
469.268280
  0
VERTEX
  8
1
 10
-606.683167
 20
478.592072
  0
VERTEX
  8
1
 10
-608.678467
 20
472.035400
  0
VERTEX
  8
1
 10
-610.246460
 20
462.721436
  0
VERTEX
  8
1
 10
-612.052124
 20
454.334259
  0
VERTEX
  8
1
 10
-614.916870
 20
443.976776
  0
VERTEX
  8
1
 10
-617.767029
 20
435.854340
  0
VERTEX
  8
1
 10
-621.169983
 20
427.942169
  0
VERTEX
  8
1
 10
-623.091614
 20
424.094360
  0
VERTEX
  8
1
 10
-625.166931
 20
420.334503
  0
VERTEX
  8
1
 10
-627.401184
 20
416.674225
  0
VERTEX
  8
1
 10
-629.799561
 20
413.125244
  0
VERTEX
  8
1
 10
-632.367188
 20
409.699432
  0
VERTEX
  8
1
 10
-635.129761
 20
406.381195
  0
VERTEX
  8
1
 10
-638.060669
 20
403.204956
  0
VERTEX
  8
1
 10
-641.150940
 20
400.175262
  0
VERTEX
  8
1
 10
-644.391663
 20
397.297028
  0
VERTEX
  8
1
 10
-647.773987
 20
394.575134
  0
VERTEX
  8
1
 10
-651.288818
 20
392.014221
  0
VERTEX
  8
1
 10
-654.927307
 20
389.619171
  0
VERTEX
  8
1
 10
-658.680542
 20
387.394745
  0
VERTEX
  8
1
 10
-662.539551
 20
385.345764
  0
VERTEX
  8
1
 10
-666.433533
 20
383.505585
  0
VERTEX
  8
1
 10
-670.410217
 20
381.852478
  0
VERTEX
  8
1
 10
-674.458252
 20
380.399109
  0
VERTEX
  8
1
 10
-678.566772
 20
379.157593
  0
VERTEX
  8
1
 10
-682.724243
 20
378.140594
  0
VERTEX
  8
1
 10
-686.919495
 20
377.360413
  0
VERTEX
  8
1
 10
-691.141541
 20
376.829468
  0
VERTEX
  8
1
 10
-697.500061
 20
376.527679
  0
VERTEX
  8
1
 10
-700.000000
 20
376.527740
  0
VERTEX
  8
1
 10
-702.499939
 20
376.527679
  0
VERTEX
  8
1
 10
-708.858459
 20
376.829468
  0
VERTEX
  8
1
 10
-713.080505
 20
377.360413
  0
VERTEX
  8
1
 10
-717.275757
 20
378.140594
  0
VERTEX
  8
1
 10
-721.433228
 20
379.157593
  0
VERTEX
  8
1
 10
-725.541748
 20
380.399109
  0
VERTEX
  8
1
 10
-729.589783
 20
381.852478
  0
VERTEX
  8
1
 10
-733.566467
 20
383.505585
  0
VERTEX
  8
1
 10
-737.460449
 20
385.345764
  0
VERTEX
  8
1
 10
-741.319458
 20
387.394745
  0
VERTEX
  8
1
 10
-745.072693
 20
389.619171
  0
VERTEX
  8
1
 10
-748.711182
 20
392.014221
  0
VERTEX
  8
1
 10
-752.226013
 20
394.575134
  0
VERTEX
  8
1
 10
-755.608337
 20
397.297028
  0
VERTEX
  8
1
 10
-758.849060
 20
400.175262
  0
VERTEX
  8
1
 10
-761.939331
 20
403.204956
  0
VERTEX
  8
1
 10
-764.870239
 20
406.381195
  0
VERTEX
  8
1
 10
-767.632812
 20
409.699432
  0
VERTEX
  8
1
 10
-770.200439
 20
413.125244
  0
VERTEX
  8
1
 10
-772.598816
 20
416.674225
  0
VERTEX
  8
1
 10
-774.833069
 20
420.334503
  0
VERTEX
  8
1
 10
-776.908386
 20
424.094360
  0
VERTEX
  8
1
 10
-778.830017
 20
427.942169
  0
VERTEX
  8
1
 10
-782.232971
 20
435.854340
  0
VERTEX
  8
1
 10
-785.083130
 20
443.976776
  0
VERTEX
  8
1
 10
-787.947876
 20
454.334259
  0
VERTEX
  8
1
 10
-789.753540
 20
462.721436
  0
VERTEX
  8
1
 10
-791.321472
 20
472.035400
  0
VERTEX
  8
1
 10
-793.227417
 20
478.770966
  0
VERTEX
  8
1
 10
-826.809570
 20
469.268280
  0
VERTEX
  8
1
 10
-833.106140
 20
467.486542
  0
VERTEX
  8
1
 10
-866.687805
 20
457.983887
  0
VERTEX
  8
1
 10
-872.984375
 20
456.202148
  0
VERTEX
  8
1
 10
-906.566040
 20
446.699493
  0
VERTEX
  8
1
 10
-912.862671
 20
444.917755
  0
VERTEX
  8
1
 10
-946.676392
 20
435.349426
  0
VERTEX
  8
1
 10
-948.985718
 20
434.695953
  0
VERTEX
  8
1
 10
-955.575439
 20
432.831207
  0
VERTEX
  8
1
 10
-959.478516
 20
431.726746
  0
VERTEX
  8
1
 10
-957.573853
 20
424.995209
  0
VERTEX
  8
1
 10
-955.751343
 20
417.809174
  0
VERTEX
  8
1
 10
-955.160095
 20
415.483124
  0
VERTEX
  8
1
 10
-954.407227
 20
412.521362
  0
VERTEX
  8
1
 10
-950.978394
 20
396.577209
  0
VERTEX
  8
1
 10
-948.100220
 20
380.512970
  0
VERTEX
  8
1
 10
-945.802612
 20
364.356537
  0
VERTEX
  8
1
 10
-944.112000
 20
348.116608
  0
VERTEX
  8
1
 10
-943.150513
 20
333.793640
  0
VERTEX
  8
1
 10
-942.832703
 20
325.639252
  0
VERTEX
  8
1
 10
-942.686829
 20
317.455597
  0
VERTEX
  8
1
 10
-942.718872
 20
309.280182
  0
VERTEX
  8
1
 10
-942.933472
 20
301.113525
  0
VERTEX
  8
1
 10
-943.335327
 20
292.963104
  0
VERTEX
  8
1
 10
-943.929321
 20
284.835114
  0
VERTEX
  8
1
 10
-944.719849
 20
276.733368
  0
VERTEX
  8
1
 10
-945.711792
 20
268.663269
  0
VERTEX
  8
1
 10
-946.880798
 20
260.824738
  0
VERTEX
  8
1
 10
-948.054199
 20
254.668930
  0
VERTEX
  8
1
 10
-949.004150
 20
250.778473
  0
VERTEX
  8
1
 10
-950.127808
 20
246.901535
  0
VERTEX
  8
1
 10
-951.421631
 20
243.089081
  0
VERTEX
  8
1
 10
-952.889160
 20
239.361267
  0
VERTEX
  8
1
 10
-954.533691
 20
235.736359
  0
VERTEX
  8
1
 10
-956.358093
 20
232.232620
  0
VERTEX
  8
1
 10
-958.365356
 20
228.867599
  0
VERTEX
  8
1
 10
-960.557983
 20
225.657516
  0
VERTEX
  8
1
 10
-962.939880
 20
222.616577
  0
VERTEX
  8
1
 10
-965.518555
 20
219.754852
  0
VERTEX
  8
1
 10
-968.268005
 20
217.108383
  0
VERTEX
  8
1
 10
-971.217896
 20
214.638397
  0
VERTEX
  8
1
 10
-974.347046
 20
212.358307
  0
VERTEX
  8
1
 10
-977.632690
 20
210.281906
  0
VERTEX
  8
1
 10
-981.051025
 20
208.422256
  0
VERTEX
  8
1
 10
-984.577148
 20
206.792358
  0
VERTEX
  8
1
 10
-988.186340
 20
205.403748
  0
VERTEX
  8
1
 10
-991.853638
 20
204.267288
  0
VERTEX
  8
1
 10
-995.553711
 20
203.392609
  0
VERTEX
  8
1
 10
-999.081665
 20
202.817688
  0
VERTEX
  8
1
 10
-1001.450439
 20
202.431671
  0
VERTEX
  8
1
 10
-1004.862427
 20
202.179474
  0
VERTEX
  8
1
 10
-1009.156128
 20
202.136444
  0
VERTEX
  8
1
 10
-1012.351929
 20
201.971298
  0
VERTEX
  8
1
 10
-1011.990662
 20
194.980621
  0
VERTEX
  8
1
 10
-1011.859924
 20
192.449249
  0
VERTEX
  8
1
 10
-1008.928650
 20
144.981232
  0
VERTEX
  8
1
 10
-1005.713501
 20
97.776817
  0
VERTEX
  8
1
 10
-1004.139465
 20
71.807816
  0
VERTEX
  8
1
 10
-1002.776855
 20
43.085815
  0
VERTEX
  8
1
 10
-1002.175171
 20
22.646761
  0
VERTEX
  8
1
 10
-1001.975098
 20
3.462259
  0
VERTEX
  8
1
 10
-1001.975098
 20
1.000108
  0
VERTEX
  8
1
 10
-1001.975098
 20
-1.499063
  0
VERTEX
  8
1
 10
-1001.987549
 20
-104.374092
  0
VERTEX
  8
1
 10
-1002.000000
 20
-207.249969
  0
VERTEX
  8
1
 10
-1002.000000
 20
-209.749969
  0
VERTEX
  8
1
 10
-1002.000000
 20
-280.000000
  0
VERTEX
  8
1
 10
-999.000000
 20
-304.999939
  0
VERTEX
  8
1
 10
-992.500000
 20
-305.000000
  0
VERTEX
  8
1
 10
-927.375000
 20
-305.000000
  0
VERTEX
  8
1
 10
-862.250000
 20
-305.000000
  0
VERTEX
  8
1
 10
-832.750000
 20
-305.000000
  0
VERTEX
  8
1
 10
-797.075012
 20
-305.000000
  0
VERTEX
  8
1
 10
-731.900024
 20
-305.000000
  0
VERTEX
  8
1
 10
-729.500000
 20
-305.000000
  0
VERTEX
  8
1
 10
-700.000000
 20
-305.000000
  0
VERTEX
  8
1
 10
-670.500000
 20
-305.000000
  0
VERTEX
  8
1
 10
-668.099976
 20
-305.000000
  0
VERTEX
  8
1
 10
-602.924988
 20
-305.000000
  0
VERTEX
  8
1
 10
-567.250000
 20
-305.000000
  0
VERTEX
  8
1
 10
-537.750000
 20
-305.000000
  0
VERTEX
  8
1
 10
-472.625000
 20
-305.000000
  0
VERTEX
  8
1
 10
-407.500000
 20
-305.000000
  0
VERTEX
  8
1
 10
-401.000000
 20
-304.999939
  0
VERTEX
  8
1
 10
-398.000000
 20
-280.000092
  0
VERTEX
  8
1
 10
-398.000000
 20
-209.749969
  0
VERTEX
  8
1
 10
-398.000000
 20
-207.249969
  0
VERTEX
  8
1
 10
-398.012451
 20
-104.374092
  0
VERTEX
  8
1
 10
-398.024872
 20
-1.499063
  0
VERTEX
  8
1
 10
-398.024872
 20
1.000052
  0
VERTEX
  8
1
 10
-398.024902
 20
3.462259
  0
VERTEX
  8
1
 10
-397.824799
 20
22.646761
  0
VERTEX
  8
1
 10
-397.223145
 20
43.085815
  0
VERTEX
  8
1
 10
-395.860535
 20
71.807816
  0
VERTEX
  8
1
 10
-394.286499
 20
97.776817
  0
VERTEX
  8
1
 10
-391.071350
 20
144.981232
  0
VERTEX
  8
1
 10
-388.140076
 20
192.449249
  0
VERTEX
  8
1
 10
-388.009338
 20
194.980621
  0
VERTEX
  8
1
 10
-387.648102
 20
201.971298
  0
VERTEX
  8
1
 10
-390.843842
 20
202.136444
  0
VERTEX
  8
1
 10
-395.137543
 20
202.179474
  0
VERTEX
  8
1
 10
-398.549591
 20
202.431671
  0
VERTEX
  8
1
 10
-400.918335
 20
202.817688
  0
VERTEX
  8
1
 10
-404.446259
 20
203.392609
  0
VERTEX
  8
1
 10
-408.146362
 20
204.267288
  0
VERTEX
  8
1
 10
-411.813660
 20
205.403748
  0
VERTEX
  8
1
 10
-415.422882
 20
206.792358
  0
VERTEX
  8
1
 10
-418.948975
 20
208.422256
  0
VERTEX
  8
1
 10
-422.367340
 20
210.281906
  0
VERTEX
  8
1
 10
-425.652985
 20
212.358307
  0
VERTEX
  8
1
 10
-428.782074
 20
214.638397
  0
VERTEX
  8
1
 10
-431.731995
 20
217.108383
  0
VERTEX
  8
1
 10
-434.481445
 20
219.754852
  0
VERTEX
  8
1
 10
-437.060120
 20
222.616577
  0
VERTEX
  8
1
 10
-439.442047
 20
225.657516
  0
VERTEX
  8
1
 10
-441.634674
 20
228.867599
  0
VERTEX
  8
1
 10
-443.641907
 20
232.232620
  0
VERTEX
  8
1
 10
-445.466339
 20
235.736359
  0
VERTEX
  8
1
 10
-447.110870
 20
239.361267
  0
VERTEX
  8
1
 10
-448.578369
 20
243.089081
  0
VERTEX
  8
1
 10
-449.872223
 20
246.901535
  0
VERTEX
  8
1
 10
-450.995880
 20
250.778473
  0
VERTEX
  8
1
 10
-451.945831
 20
254.668930
  0
VERTEX
  8
1
 10
-453.119202
 20
260.824707
  0
VERTEX
  8
1
 10
-454.288177
 20
268.663269
  0
VERTEX
  8
1
 10
-455.280121
 20
276.733368
  0
VERTEX
  8
1
 10
-456.070709
 20
284.835114
  0
VERTEX
  8
1
 10
-456.664642
 20
292.963104
  0
VERTEX
  8
1
 10
-457.066559
 20
301.113525
  0
VERTEX
  8
1
 10
-457.281128
 20
309.280182
  0
VERTEX
  8
1
 10
-457.313171
 20
317.455597
  0
VERTEX
  8
1
 10
-457.167297
 20
325.639252
  0
VERTEX
  8
1
 10
-456.849487
 20
333.793640
  0
VERTEX
  8
1
 10
-455.888000
 20
348.116608
  0
VERTEX
  8
1
 10
-454.197418
 20
364.356537
  0
VERTEX
  8
1
 10
-451.899750
 20
380.512970
  0
VERTEX
  8
1
 10
-449.021576
 20
396.577209
  0
VERTEX
  8
1
 10
-445.592773
 20
412.521362
  0
VERTEX
  8
1
 10
-444.839905
 20
415.483124
  0
VERTEX
  8
1
 10
-444.248627
 20
417.809174
  0
VERTEX
  8
1
 10
-442.426270
 20
424.995239
  0
SEQEND
  0
POINT
  8
2
 10
-440.521454
 20
431.726746
  0
TEXT
  8
1
 10
-440.521454
 20
431.726746
 40
0.400000
  1
# 3
  0
POINT
  8
2
 10
-444.424530
 20
432.831207
  0
TEXT
  8
1
 10
-444.424530
 20
432.831207
 40
0.400000
  1
# 4
  0
POINT
  8
3
 10
-451.014313
 20
434.695953
  0
POINT
  8
3
 10
-453.323639
 20
435.349426
  0
POINT
  8
2
 10
-487.137360
 20
444.917755
  0
TEXT
  8
1
 10
-487.137360
 20
444.917755
 40
0.400000
  1
# 5
  0
POINT
  8
3
 10
-493.433960
 20
446.699493
  0
POINT
  8
3
 10
-527.015625
 20
456.202148
  0
POINT
  8
2
 10
-533.312195
 20
457.983887
  0
TEXT
  8
1
 10
-533.312195
 20
457.983887
 40
0.400000
  1
# 6
  0
POINT
  8
3
 10
-566.893860
 20
467.486542
  0
POINT
  8
3
 10
-573.190430
 20
469.268280
  0
POINT
  8
2
 10
-606.683167
 20
478.592072
  0
TEXT
  8
1
 10
-606.683167
 20
478.592072
 40
0.400000
  1
# 7
  0
POINT
  8
2
 10
-608.678467
 20
472.035400
  0
TEXT
  8
1
 10
-608.678467
 20
472.035400
 40
0.400000
  1
# 8
  0
POINT
  8
3
 10
-610.246460
 20
462.721436
  0
POINT
  8
3
 10
-612.052124
 20
454.334259
  0
POINT
  8
3
 10
-614.916870
 20
443.976776
  0
POINT
  8
3
 10
-617.767029
 20
435.854340
  0
POINT
  8
3
 10
-621.169983
 20
427.942169
  0
POINT
  8
3
 10
-623.091614
 20
424.094360
  0
POINT
  8
3
 10
-625.166931
 20
420.334503
  0
POINT
  8
3
 10
-627.401184
 20
416.674225
  0
POINT
  8
3
 10
-629.799561
 20
413.125244
  0
POINT
  8
3
 10
-632.367188
 20
409.699432
  0
POINT
  8
3
 10
-635.129761
 20
406.381195
  0
POINT
  8
3
 10
-638.060669
 20
403.204956
  0
POINT
  8
3
 10
-641.150940
 20
400.175262
  0
POINT
  8
2
 10
-644.391663
 20
397.297028
  0
TEXT
  8
1
 10
-644.391663
 20
397.297028
 40
0.400000
  1
# 9
  0
POINT
  8
3
 10
-647.773987
 20
394.575134
  0
POINT
  8
3
 10
-651.288818
 20
392.014221
  0
POINT
  8
3
 10
-654.927307
 20
389.619171
  0
POINT
  8
3
 10
-658.680542
 20
387.394745
  0
POINT
  8
3
 10
-662.539551
 20
385.345764
  0
POINT
  8
3
 10
-666.433533
 20
383.505585
  0
POINT
  8
3
 10
-670.410217
 20
381.852478
  0
POINT
  8
3
 10
-674.458252
 20
380.399109
  0
POINT
  8
3
 10
-678.566772
 20
379.157593
  0
POINT
  8
3
 10
-682.724243
 20
378.140594
  0
POINT
  8
3
 10
-686.919495
 20
377.360413
  0
POINT
  8
3
 10
-691.141541
 20
376.829468
  0
POINT
  8
3
 10
-697.500061
 20
376.527679
  0
POINT
  8
2
 10
-700.000000
 20
376.527740
  0
TEXT
  8
1
 10
-700.000000
 20
376.527740
 40
0.400000
  1
# 10
  0
POINT
  8
3
 10
-702.499939
 20
376.527679
  0
POINT
  8
3
 10
-708.858459
 20
376.829468
  0
POINT
  8
3
 10
-713.080505
 20
377.360413
  0
POINT
  8
3
 10
-717.275757
 20
378.140594
  0
POINT
  8
3
 10
-721.433228
 20
379.157593
  0
POINT
  8
3
 10
-725.541748
 20
380.399109
  0
POINT
  8
3
 10
-729.589783
 20
381.852478
  0
POINT
  8
3
 10
-733.566467
 20
383.505585
  0
POINT
  8
3
 10
-737.460449
 20
385.345764
  0
POINT
  8
3
 10
-741.319458
 20
387.394745
  0
POINT
  8
3
 10
-745.072693
 20
389.619171
  0
POINT
  8
3
 10
-748.711182
 20
392.014221
  0
POINT
  8
3
 10
-752.226013
 20
394.575134
  0
POINT
  8
3
 10
-755.608337
 20
397.297028
  0
POINT
  8
2
 10
-758.849060
 20
400.175262
  0
TEXT
  8
1
 10
-758.849060
 20
400.175262
 40
0.400000
  1
# 11
  0
POINT
  8
3
 10
-761.939331
 20
403.204956
  0
POINT
  8
3
 10
-764.870239
 20
406.381195
  0
POINT
  8
3
 10
-767.632812
 20
409.699432
  0
POINT
  8
3
 10
-770.200439
 20
413.125244
  0
POINT
  8
3
 10
-772.598816
 20
416.674225
  0
POINT
  8
3
 10
-774.833069
 20
420.334503
  0
POINT
  8
3
 10
-776.908386
 20
424.094360
  0
POINT
  8
3
 10
-778.830017
 20
427.942169
  0
POINT
  8
3
 10
-782.232971
 20
435.854340
  0
POINT
  8
3
 10
-785.083130
 20
443.976776
  0
POINT
  8
3
 10
-787.947876
 20
454.334259
  0
POINT
  8
3
 10
-789.753540
 20
462.721436
  0
POINT
  8
2
 10
-791.321472
 20
472.035400
  0
TEXT
  8
1
 10
-791.321472
 20
472.035400
 40
0.400000
  1
# 12
  0
POINT
  8
2
 10
-793.227417
 20
478.770966
  0
TEXT
  8
1
 10
-793.227417
 20
478.770966
 40
0.400000
  1
# 13
  0
POINT
  8
3
 10
-826.809570
 20
469.268280
  0
POINT
  8
3
 10
-833.106140
 20
467.486542
  0
POINT
  8
2
 10
-866.687805
 20
457.983887
  0
TEXT
  8
1
 10
-866.687805
 20
457.983887
 40
0.400000
  1
# 14
  0
POINT
  8
3
 10
-872.984375
 20
456.202148
  0
POINT
  8
3
 10
-906.566040
 20
446.699493
  0
POINT
  8
2
 10
-912.862671
 20
444.917755
  0
TEXT
  8
1
 10
-912.862671
 20
444.917755
 40
0.400000
  1
# 15
  0
POINT
  8
3
 10
-946.676392
 20
435.349426
  0
POINT
  8
3
 10
-948.985718
 20
434.695953
  0
POINT
  8
2
 10
-955.575439
 20
432.831207
  0
TEXT
  8
1
 10
-955.575439
 20
432.831207
 40
0.400000
  1
# 16
  0
POINT
  8
2
 10
-959.478516
 20
431.726746
  0
TEXT
  8
1
 10
-959.478516
 20
431.726746
 40
0.400000
  1
# 17
  0
POINT
  8
2
 10
-957.573853
 20
424.995209
  0
TEXT
  8
1
 10
-957.573853
 20
424.995209
 40
0.400000
  1
# 18
  0
POINT
  8
3
 10
-955.751343
 20
417.809174
  0
POINT
  8
3
 10
-955.160095
 20
415.483124
  0
POINT
  8
3
 10
-954.407227
 20
412.521362
  0
POINT
  8
2
 10
-950.978394
 20
396.577209
  0
TEXT
  8
1
 10
-950.978394
 20
396.577209
 40
0.400000
  1
# 19
  0
POINT
  8
3
 10
-948.100220
 20
380.512970
  0
POINT
  8
3
 10
-945.802612
 20
364.356537
  0
POINT
  8
3
 10
-944.112000
 20
348.116608
  0
POINT
  8
2
 10
-943.150513
 20
333.793640
  0
TEXT
  8
1
 10
-943.150513
 20
333.793640
 40
0.400000
  1
# 20
  0
POINT
  8
3
 10
-942.832703
 20
325.639252
  0
POINT
  8
3
 10
-942.686829
 20
317.455597
  0
POINT
  8
3
 10
-942.718872
 20
309.280182
  0
POINT
  8
3
 10
-942.933472
 20
301.113525
  0
POINT
  8
2
 10
-943.335327
 20
292.963104
  0
TEXT
  8
1
 10
-943.335327
 20
292.963104
 40
0.400000
  1
# 21
  0
POINT
  8
3
 10
-943.929321
 20
284.835114
  0
POINT
  8
3
 10
-944.719849
 20
276.733368
  0
POINT
  8
3
 10
-945.711792
 20
268.663269
  0
POINT
  8
2
 10
-946.880798
 20
260.824738
  0
TEXT
  8
1
 10
-946.880798
 20
260.824738
 40
0.400000
  1
# 22
  0
POINT
  8
4
 10
-946.880798
 20
260.824738
 30
5.000024
 50
349.153961
  0
POINT
  8
3
 10
-948.054199
 20
254.668930
  0
POINT
  8
3
 10
-949.004150
 20
250.778473
  0
POINT
  8
3
 10
-950.127808
 20
246.901535
  0
POINT
  8
3
 10
-951.421631
 20
243.089081
  0
POINT
  8
3
 10
-952.889160
 20
239.361267
  0
POINT
  8
2
 10
-954.533691
 20
235.736359
  0
TEXT
  8
1
 10
-954.533691
 20
235.736359
 40
0.400000
  1
# 23
  0
POINT
  8
3
 10
-956.358093
 20
232.232620
  0
POINT
  8
3
 10
-958.365356
 20
228.867599
  0
POINT
  8
3
 10
-960.557983
 20
225.657516
  0
POINT
  8
3
 10
-962.939880
 20
222.616577
  0
POINT
  8
3
 10
-965.518555
 20
219.754852
  0
POINT
  8
2
 10
-968.268005
 20
217.108383
  0
TEXT
  8
1
 10
-968.268005
 20
217.108383
 40
0.400000
  1
# 24
  0
POINT
  8
3
 10
-971.217896
 20
214.638397
  0
POINT
  8
3
 10
-974.347046
 20
212.358307
  0
POINT
  8
3
 10
-977.632690
 20
210.281906
  0
POINT
  8
3
 10
-981.051025
 20
208.422256
  0
POINT
  8
3
 10
-984.577148
 20
206.792358
  0
POINT
  8
3
 10
-988.186340
 20
205.403748
  0
POINT
  8
2
 10
-991.853638
 20
204.267288
  0
TEXT
  8
1
 10
-991.853638
 20
204.267288
 40
0.400000
  1
# 25
  0
POINT
  8
3
 10
-995.553711
 20
203.392609
  0
POINT
  8
3
 10
-999.081665
 20
202.817688
  0
POINT
  8
3
 10
-1001.450439
 20
202.431671
  0
POINT
  8
3
 10
-1004.862427
 20
202.179474
  0
POINT
  8
3
 10
-1009.156128
 20
202.136444
  0
POINT
  8
2
 10
-1012.351929
 20
201.971298
  0
TEXT
  8
1
 10
-1012.351929
 20
201.971298
 40
0.400000
  1
# 26
  0
POINT
  8
2
 10
-1011.990662
 20
194.980621
  0
TEXT
  8
1
 10
-1011.990662
 20
194.980621
 40
0.400000
  1
# 27
  0
POINT
  8
3
 10
-1011.859924
 20
192.449249
  0
POINT
  8
3
 10
-1008.928650
 20
144.981232
  0
POINT
  8
2
 10
-1005.713501
 20
97.776817
  0
TEXT
  8
1
 10
-1005.713501
 20
97.776817
 40
0.400000
  1
# 28
  0
POINT
  8
3
 10
-1004.139465
 20
71.807816
  0
POINT
  8
2
 10
-1002.776855
 20
43.085815
  0
TEXT
  8
1
 10
-1002.776855
 20
43.085815
 40
0.400000
  1
# 29
  0
POINT
  8
3
 10
-1002.175171
 20
22.646761
  0
POINT
  8
3
 10
-1001.975098
 20
3.462259
  0
POINT
  8
2
 10
-1001.975098
 20
1.000108
  0
TEXT
  8
1
 10
-1001.975098
 20
1.000108
 40
0.400000
  1
# 30
  0
POINT
  8
4
 10
-1001.975098
 20
1.000108
 30
5.000000
 50
359.999939
  0
POINT
  8
3
 10
-1001.975098
 20
-1.499063
  0
POINT
  8
2
 10
-1001.987549
 20
-104.374092
  0
TEXT
  8
1
 10
-1001.987549
 20
-104.374092
 40
0.400000
  1
# 31
  0
POINT
  8
3
 10
-1002.000000
 20
-207.249969
  0
POINT
  8
3
 10
-1002.000000
 20
-209.749969
  0
POINT
  8
2
 10
-1002.000000
 20
-280.000000
  0
TEXT
  8
1
 10
-1002.000000
 20
-280.000000
 40
0.400000
  1
# 32
  0
POINT
  8
4
 10
-1002.000000
 20
-280.000000
 30
5.000000
 50
0.000000
  0
POINT
  8
2
 10
-999.000000
 20
-304.999939
  0
TEXT
  8
1
 10
-999.000000
 20
-304.999939
 40
0.400000
  1
# 33
  0
POINT
  8
3
 10
-992.500000
 20
-305.000000
  0
POINT
  8
3
 10
-927.375000
 20
-305.000000
  0
POINT
  8
3
 10
-862.250000
 20
-305.000000
  0
POINT
  8
2
 10
-832.750000
 20
-305.000000
  0
TEXT
  8
1
 10
-832.750000
 20
-305.000000
 40
0.400000
  1
# 34
  0
POINT
  8
3
 10
-797.075012
 20
-305.000000
  0
POINT
  8
3
 10
-731.900024
 20
-305.000000
  0
POINT
  8
3
 10
-729.500000
 20
-305.000000
  0
POINT
  8
2
 10
-700.000000
 20
-305.000000
  0
TEXT
  8
1
 10
-700.000000
 20
-305.000000
 40
0.400000
  1
# 35
  0
POINT
  8
3
 10
-670.500000
 20
-305.000000
  0
POINT
  8
3
 10
-668.099976
 20
-305.000000
  0
POINT
  8
3
 10
-602.924988
 20
-305.000000
  0
POINT
  8
2
 10
-567.250000
 20
-305.000000
  0
TEXT
  8
1
 10
-567.250000
 20
-305.000000
 40
0.400000
  1
# 36
  0
POINT
  8
3
 10
-537.750000
 20
-305.000000
  0
POINT
  8
3
 10
-472.625000
 20
-305.000000
  0
POINT
  8
3
 10
-407.500000
 20
-305.000000
  0
POINT
  8
2
 10
-401.000000
 20
-304.999939
  0
TEXT
  8
1
 10
-401.000000
 20
-304.999939
 40
0.400000
  1
# 37
  0
POINT
  8
2
 10
-398.000000
 20
-280.000092
  0
TEXT
  8
1
 10
-398.000000
 20
-280.000092
 40
0.400000
  1
# 38
  0
POINT
  8
4
 10
-398.000000
 20
-280.000092
 30
5.000000
 50
180.000000
  0
POINT
  8
3
 10
-398.000000
 20
-209.749969
  0
POINT
  8
3
 10
-398.000000
 20
-207.249969
  0
POINT
  8
2
 10
-398.012451
 20
-104.374092
  0
TEXT
  8
1
 10
-398.012451
 20
-104.374092
 40
0.400000
  1
# 39
  0
POINT
  8
3
 10
-398.024872
 20
-1.499063
  0
POINT
  8
2
 10
-398.024872
 20
1.000052
  0
TEXT
  8
1
 10
-398.024872
 20
1.000052
 40
0.400000
  1
# 40
  0
POINT
  8
4
 10
-398.024872
 20
1.000052
 30
5.000000
 50
180.000061
  0
POINT
  8
3
 10
-398.024902
 20
3.462259
  0
POINT
  8
3
 10
-397.824799
 20
22.646761
  0
POINT
  8
2
 10
-397.223145
 20
43.085815
  0
TEXT
  8
1
 10
-397.223145
 20
43.085815
 40
0.400000
  1
# 41
  0
POINT
  8
3
 10
-395.860535
 20
71.807816
  0
POINT
  8
2
 10
-394.286499
 20
97.776817
  0
TEXT
  8
1
 10
-394.286499
 20
97.776817
 40
0.400000
  1
# 42
  0
POINT
  8
3
 10
-391.071350
 20
144.981232
  0
POINT
  8
3
 10
-388.140076
 20
192.449249
  0
POINT
  8
2
 10
-388.009338
 20
194.980621
  0
TEXT
  8
1
 10
-388.009338
 20
194.980621
 40
0.400000
  1
# 43
  0
POINT
  8
2
 10
-387.648102
 20
201.971298
  0
TEXT
  8
1
 10
-387.648102
 20
201.971298
 40
0.400000
  1
# 44
  0
POINT
  8
3
 10
-390.843842
 20
202.136444
  0
POINT
  8
3
 10
-395.137543
 20
202.179474
  0
POINT
  8
3
 10
-398.549591
 20
202.431671
  0
POINT
  8
3
 10
-400.918335
 20
202.817688
  0
POINT
  8
3
 10
-404.446259
 20
203.392609
  0
POINT
  8
2
 10
-408.146362
 20
204.267288
  0
TEXT
  8
1
 10
-408.146362
 20
204.267288
 40
0.400000
  1
# 45
  0
POINT
  8
3
 10
-411.813660
 20
205.403748
  0
POINT
  8
3
 10
-415.422882
 20
206.792358
  0
POINT
  8
3
 10
-418.948975
 20
208.422256
  0
POINT
  8
3
 10
-422.367340
 20
210.281906
  0
POINT
  8
3
 10
-425.652985
 20
212.358307
  0
POINT
  8
3
 10
-428.782074
 20
214.638397
  0
POINT
  8
2
 10
-431.731995
 20
217.108383
  0
TEXT
  8
1
 10
-431.731995
 20
217.108383
 40
0.400000
  1
# 46
  0
POINT
  8
3
 10
-434.481445
 20
219.754852
  0
POINT
  8
3
 10
-437.060120
 20
222.616577
  0
POINT
  8
3
 10
-439.442047
 20
225.657516
  0
POINT
  8
3
 10
-441.634674
 20
228.867599
  0
POINT
  8
3
 10
-443.641907
 20
232.232620
  0
POINT
  8
2
 10
-445.466339
 20
235.736359
  0
TEXT
  8
1
 10
-445.466339
 20
235.736359
 40
0.400000
  1
# 47
  0
POINT
  8
3
 10
-447.110870
 20
239.361267
  0
POINT
  8
3
 10
-448.578369
 20
243.089081
  0
POINT
  8
3
 10
-449.872223
 20
246.901535
  0
POINT
  8
3
 10
-450.995880
 20
250.778473
  0
POINT
  8
3
 10
-451.945831
 20
254.668930
  0
POINT
  8
2
 10
-453.119202
 20
260.824707
  0
TEXT
  8
1
 10
-453.119202
 20
260.824707
 40
0.400000
  1
# 48
  0
POINT
  8
4
 10
-453.119202
 20
260.824707
 30
4.999994
 50
190.846100
  0
POINT
  8
3
 10
-454.288177
 20
268.663269
  0
POINT
  8
3
 10
-455.280121
 20
276.733368
  0
POINT
  8
3
 10
-456.070709
 20
284.835114
  0
POINT
  8
2
 10
-456.664642
 20
292.963104
  0
TEXT
  8
1
 10
-456.664642
 20
292.963104
 40
0.400000
  1
# 49
  0
POINT
  8
3
 10
-457.066559
 20
301.113525
  0
POINT
  8
3
 10
-457.281128
 20
309.280182
  0
POINT
  8
3
 10
-457.313171
 20
317.455597
  0
POINT
  8
3
 10
-457.167297
 20
325.639252
  0
POINT
  8
2
 10
-456.849487
 20
333.793640
  0
TEXT
  8
1
 10
-456.849487
 20
333.793640
 40
0.400000
  1
# 50
  0
POINT
  8
3
 10
-455.888000
 20
348.116608
  0
POINT
  8
3
 10
-454.197418
 20
364.356537
  0
POINT
  8
3
 10
-451.899750
 20
380.512970
  0
POINT
  8
2
 10
-449.021576
 20
396.577209
  0
TEXT
  8
1
 10
-449.021576
 20
396.577209
 40
0.400000
  1
# 51
  0
POINT
  8
3
 10
-445.592773
 20
412.521362
  0
POINT
  8
3
 10
-444.839905
 20
415.483124
  0
POINT
  8
3
 10
-444.248627
 20
417.809174
  0
POINT
  8
2
 10
-442.426270
 20
424.995239
  0
TEXT
  8
1
 10
-442.426270
 20
424.995239
 40
0.400000
  1
# 52
  0
TEXT
  8
15
  1
фуфайка муж утепл ув
 10
-772.752075
 20
19.379402
 40
10.799328
 50
90.000000
  0
TEXT
  8
15
  1
Полочка
 10
-761.181396
 20
19.379402
 40
10.799328
 50
90.000000
  0
TEXT
  8
15
  1
  104.-  108./  170.-  176.
 10
-749.610718
 20
19.379402
 40
10.799328
 50
90.000000
  0
TEXT
  8
15
  1
полнота    2.
 10
-738.040039
 20
19.379402
 40
10.799328
 50
90.000000
  0
TEXT
  8
15
  1
1 дет
 10
-726.469360
 20
19.379402
 40
10.799328
 50
90.000000
  0
TEXT
  8
1
 10
-70.000000
 20
-10.000000
 40
25.000000
 50
-90.000000
  1
Size:A54
  0
TEXT
  8
1
 10
-70.250000
 20
-10.000000
 40
25.000000
 50
-90.000000
  1
Piece Name:006-Полочка
  0
TEXT
  8
1
 10
-70.500000
 20
-10.000000
 40
25.000000
 50
-90.000000
  1
Annotation:Полочка
  0
TEXT
  8
1
 10
-70.750000
 20
-10.000000
 40
25.000000
 50
-90.000000
  1
Category:В
  0
TEXT
  8
1
 10
-71.000000
 20
-10.000000
 40
25.000000
 50
-90.000000
  1
Quantity:1
  0
ENDBLK
  0
BLOCK
  8
1
  2
фуфайка_007_A54
 70
0
 10
0.000000
 20
0.000000
  0
LINE
  8
7
 10
0.000000
 20
-100.000000
 11
0.000000
 21
-250.000000
  0
TEXT
  8
2
 10
0.000000
 20
-100.000000
 40
0.400000
  1
# 53
  0
TEXT
  8
2
 10
0.000000
 20
-250.000000
 40
0.400000
  1
# 54
  0
POLYLINE
  8
1
 66
1
 70
    1
  0
VERTEX
  8
1
 10
264.211487
 20
431.750275
  0
VERTEX
  8
1
 10
265.694397
 20
438.609131
  0
VERTEX
  8
1
 10
261.729858
 20
439.466217
  0
VERTEX
  8
1
 10
255.037033
 20
440.913300
  0
VERTEX
  8
1
 10
252.691238
 20
441.420502
  0
VERTEX
  8
1
 10
218.587173
 20
448.794067
  0
VERTEX
  8
1
 10
212.229752
 20
450.168579
  0
VERTEX
  8
1
 10
178.323456
 20
457.499390
  0
VERTEX
  8
1
 10
171.966003
 20
458.873932
  0
VERTEX
  8
1
 10
138.059662
 20
466.204742
  0
VERTEX
  8
1
 10
131.702240
 20
467.579254
  0
VERTEX
  8
1
 10
97.795486
 20
474.910156
  0
VERTEX
  8
1
 10
96.316437
 20
468.069214
  0
VERTEX
  8
1
 10
95.417519
 20
465.625122
  0
VERTEX
  8
1
 10
94.817528
 20
464.120270
  0
VERTEX
  8
1
 10
93.329643
 20
461.185211
  0
VERTEX
  8
1
 10
91.467751
 20
458.454407
  0
VERTEX
  8
1
 10
89.243889
 20
456.053406
  0
VERTEX
  8
1
 10
86.670143
 20
454.107635
  0
VERTEX
  8
1
 10
84.627167
 20
452.848175
  0
VERTEX
  8
1
 10
83.655540
 20
452.249176
  0
VERTEX
  8
1
 10
79.818108
 20
450.229218
  0
VERTEX
  8
1
 10
75.857361
 20
448.444794
  0
VERTEX
  8
1
 10
71.805603
 20
446.881500
  0
VERTEX
  8
1
 10
65.516342
 20
444.891998
  0
VERTEX
  8
1
 10
61.262295
 20
443.805878
  0
VERTEX
  8
1
 10
56.969433
 20
442.893524
  0
VERTEX
  8
1
 10
48.302124
 20
441.526672
  0
VERTEX
  8
1
 10
41.741531
 20
440.839020
  0
VERTEX
  8
1
 10
32.964096
 20
440.282318
  0
VERTEX
  8
1
 10
24.170835
 20
440.031433
  0
VERTEX
  8
1
 10
19.815834
 20
439.984955
  0
VERTEX
  8
1
 10
2.400000
 20
440.000000
  0
VERTEX
  8
1
 10
0.000001
 20
440.000000
  0
VERTEX
  8
1
 10
-2.400000
 20
440.000000
  0
VERTEX
  8
1
 10
-19.815834
 20
439.984955
  0
VERTEX
  8
1
 10
-24.170835
 20
440.031433
  0
VERTEX
  8
1
 10
-32.964096
 20
440.282318
  0
VERTEX
  8
1
 10
-41.741531
 20
440.839020
  0
VERTEX
  8
1
 10
-48.302124
 20
441.526672
  0
VERTEX
  8
1
 10
-56.969433
 20
442.893524
  0
VERTEX
  8
1
 10
-61.262295
 20
443.805878
  0
VERTEX
  8
1
 10
-65.516342
 20
444.891998
  0
VERTEX
  8
1
 10
-71.805603
 20
446.881500
  0
VERTEX
  8
1
 10
-75.857361
 20
448.444794
  0
VERTEX
  8
1
 10
-79.818108
 20
450.229218
  0
VERTEX
  8
1
 10
-83.655540
 20
452.249176
  0
VERTEX
  8
1
 10
-84.627167
 20
452.848175
  0
VERTEX
  8
1
 10
-86.670143
 20
454.107635
  0
VERTEX
  8
1
 10
-89.243889
 20
456.053406
  0
VERTEX
  8
1
 10
-91.467751
 20
458.454407
  0
VERTEX
  8
1
 10
-93.329643
 20
461.185211
  0
VERTEX
  8
1
 10
-94.817528
 20
464.120270
  0
VERTEX
  8
1
 10
-95.417519
 20
465.625122
  0
VERTEX
  8
1
 10
-96.316559
 20
468.069183
  0
VERTEX
  8
1
 10
-97.795486
 20
474.910156
  0
VERTEX
  8
1
 10
-131.702240
 20
467.579254
  0
VERTEX
  8
1
 10
-138.059662
 20
466.204742
  0
VERTEX
  8
1
 10
-171.966003
 20
458.873932
  0
VERTEX
  8
1
 10
-178.323456
 20
457.499390
  0
VERTEX
  8
1
 10
-212.229752
 20
450.168579
  0
VERTEX
  8
1
 10
-218.587173
 20
448.794067
  0
VERTEX
  8
1
 10
-252.691238
 20
441.420502
  0
VERTEX
  8
1
 10
-255.037033
 20
440.913300
  0
VERTEX
  8
1
 10
-261.729858
 20
439.466217
  0
VERTEX
  8
1
 10
-265.694397
 20
438.609131
  0
VERTEX
  8
1
 10
-264.211487
 20
431.750275
  0
VERTEX
  8
1
 10
-259.736450
 20
413.489136
  0
VERTEX
  8
1
 10
-257.934723
 20
405.059387
  0
VERTEX
  8
1
 10
-257.458130
 20
402.658478
  0
VERTEX
  8
1
 10
-254.380569
 20
387.154205
  0
VERTEX
  8
1
 10
-251.970032
 20
372.900513
  0
VERTEX
  8
1
 10
-249.699905
 20
356.427612
  0
VERTEX
  8
1
 10
-248.019577
 20
339.882202
  0
VERTEX
  8
1
 10
-247.423477
 20
331.650024
  0
VERTEX
  8
1
 10
-246.993317
 20
323.360413
  0
VERTEX
  8
1
 10
-246.390991
 20
306.840118
  0
VERTEX
  8
1
 10
-246.280655
 20
298.702301
  0
VERTEX
  8
1
 10
-246.404434
 20
290.629303
  0
VERTEX
  8
1
 10
-246.840012
 20
282.636414
  0
VERTEX
  8
1
 10
-247.663040
 20
274.720520
  0
VERTEX
  8
1
 10
-248.948135
 20
266.876434
  0
VERTEX
  8
1
 10
-250.785706
 20
259.027863
  0
VERTEX
  8
1
 10
-251.904114
 20
255.216354
  0
VERTEX
  8
1
 10
-253.203430
 20
251.354965
  0
VERTEX
  8
1
 10
-254.676300
 20
247.501266
  0
VERTEX
  8
1
 10
-256.343506
 20
243.628296
  0
VERTEX
  8
1
 10
-258.193237
 20
239.780060
  0
VERTEX
  8
1
 10
-260.217133
 20
235.984818
  0
VERTEX
  8
1
 10
-262.406830
 20
232.269928
  0
VERTEX
  8
1
 10
-264.753571
 20
228.661789
  0
VERTEX
  8
1
 10
-267.246979
 20
225.188553
  0
VERTEX
  8
1
 10
-269.876984
 20
221.876083
  0
VERTEX
  8
1
 10
-272.631836
 20
218.751129
  0
VERTEX
  8
1
 10
-275.501007
 20
215.837265
  0
VERTEX
  8
1
 10
-278.471222
 20
213.159332
  0
VERTEX
  8
1
 10
-281.529816
 20
210.739471
  0
VERTEX
  8
1
 10
-284.664032
 20
208.597931
  0
VERTEX
  8
1
 10
-287.861572
 20
206.752640
  0
VERTEX
  8
1
 10
-291.111908
 20
205.218857
  0
VERTEX
  8
1
 10
-294.408264
 20
204.008881
  0
VERTEX
  8
1
 10
-297.747925
 20
203.133652
  0
VERTEX
  8
1
 10
-299.095703
 20
202.922821
  0
VERTEX
  8
1
 10
-301.466858
 20
202.551895
  0
VERTEX
  8
1
 10
-304.872681
 20
202.256760
  0
VERTEX
  8
1
 10
-309.155762
 20
202.136551
  0
VERTEX
  8
1
 10
-312.351471
 20
201.971481
  0
VERTEX
  8
1
 10
-311.990356
 20
194.980804
  0
VERTEX
  8
1
 10
-311.859955
 20
192.450089
  0
VERTEX
  8
1
 10
-308.917114
 20
144.794189
  0
VERTEX
  8
1
 10
-305.713623
 20
97.779091
  0
VERTEX
  8
1
 10
-304.139465
 20
71.807953
  0
VERTEX
  8
1
 10
-302.776855
 20
43.085709
  0
VERTEX
  8
1
 10
-302.175201
 20
22.646748
  0
VERTEX
  8
1
 10
-301.975098
 20
3.462184
  0
VERTEX
  8
1
 10
-301.975128
 20
1.000109
  0
VERTEX
  8
1
 10
-301.975128
 20
-1.499908
  0
VERTEX
  8
1
 10
-301.987549
 20
-104.374092
  0
VERTEX
  8
1
 10
-302.000000
 20
-207.249115
  0
VERTEX
  8
1
 10
-302.000000
 20
-209.749969
  0
VERTEX
  8
1
 10
-302.000000
 20
-279.999969
  0
VERTEX
  8
1
 10
-299.000031
 20
-304.999817
  0
VERTEX
  8
1
 10
-292.500000
 20
-305.000000
  0
VERTEX
  8
1
 10
-227.375000
 20
-305.000000
  0
VERTEX
  8
1
 10
-162.250000
 20
-305.000000
  0
VERTEX
  8
1
 10
-132.750000
 20
-305.000000
  0
VERTEX
  8
1
 10
-97.075005
 20
-305.000000
  0
VERTEX
  8
1
 10
-31.900000
 20
-305.000000
  0
VERTEX
  8
1
 10
-29.500000
 20
-305.000000
  0
VERTEX
  8
1
 10
0.000000
 20
-305.000000
  0
VERTEX
  8
1
 10
29.500000
 20
-305.000000
  0
VERTEX
  8
1
 10
31.900000
 20
-305.000000
  0
VERTEX
  8
1
 10
97.075005
 20
-305.000000
  0
VERTEX
  8
1
 10
132.750000
 20
-305.000000
  0
VERTEX
  8
1
 10
162.250000
 20
-305.000000
  0
VERTEX
  8
1
 10
227.375000
 20
-305.000000
  0
VERTEX
  8
1
 10
292.500000
 20
-305.000000
  0
VERTEX
  8
1
 10
299.000031
 20
-304.999817
  0
VERTEX
  8
1
 10
302.000000
 20
-280.000031
  0
VERTEX
  8
1
 10
302.000000
 20
-209.749969
  0
VERTEX
  8
1
 10
302.000000
 20
-207.249115
  0
VERTEX
  8
1
 10
301.987549
 20
-104.374092
  0
VERTEX
  8
1
 10
301.975128
 20
-1.499908
  0
VERTEX
  8
1
 10
301.975128
 20
1.000107
  0
VERTEX
  8
1
 10
301.975098
 20
3.462184
  0
VERTEX
  8
1
 10
302.175201
 20
22.646748
  0
VERTEX
  8
1
 10
302.776855
 20
43.085709
  0
VERTEX
  8
1
 10
304.139465
 20
71.807953
  0
VERTEX
  8
1
 10
305.713623
 20
97.779091
  0
VERTEX
  8
1
 10
308.917114
 20
144.794189
  0
VERTEX
  8
1
 10
311.859955
 20
192.450089
  0
VERTEX
  8
1
 10
311.990692
 20
194.980789
  0
VERTEX
  8
1
 10
312.351471
 20
201.971481
  0
VERTEX
  8
1
 10
309.155762
 20
202.136551
  0
VERTEX
  8
1
 10
304.872681
 20
202.256760
  0
VERTEX
  8
1
 10
301.466858
 20
202.551895
  0
VERTEX
  8
1
 10
299.095703
 20
202.922821
  0
VERTEX
  8
1
 10
297.747925
 20
203.133652
  0
VERTEX
  8
1
 10
294.408264
 20
204.008881
  0
VERTEX
  8
1
 10
291.111908
 20
205.218857
  0
VERTEX
  8
1
 10
287.861572
 20
206.752640
  0
VERTEX
  8
1
 10
284.664032
 20
208.597931
  0
VERTEX
  8
1
 10
281.529816
 20
210.739471
  0
VERTEX
  8
1
 10
278.471222
 20
213.159332
  0
VERTEX
  8
1
 10
275.501007
 20
215.837265
  0
VERTEX
  8
1
 10
272.631836
 20
218.751129
  0
VERTEX
  8
1
 10
269.876984
 20
221.876083
  0
VERTEX
  8
1
 10
267.246979
 20
225.188553
  0
VERTEX
  8
1
 10
264.753571
 20
228.661789
  0
VERTEX
  8
1
 10
262.406830
 20
232.269928
  0
VERTEX
  8
1
 10
260.217133
 20
235.984818
  0
VERTEX
  8
1
 10
258.193237
 20
239.780060
  0
VERTEX
  8
1
 10
256.343506
 20
243.628296
  0
VERTEX
  8
1
 10
254.676300
 20
247.501266
  0
VERTEX
  8
1
 10
253.203430
 20
251.354965
  0
VERTEX
  8
1
 10
251.904114
 20
255.216354
  0
VERTEX
  8
1
 10
250.785706
 20
259.027863
  0
VERTEX
  8
1
 10
248.948135
 20
266.876434
  0
VERTEX
  8
1
 10
247.663040
 20
274.720520
  0
VERTEX
  8
1
 10
246.840012
 20
282.636414
  0
VERTEX
  8
1
 10
246.404434
 20
290.629303
  0
VERTEX
  8
1
 10
246.280655
 20
298.702301
  0
VERTEX
  8
1
 10
246.390991
 20
306.840118
  0
VERTEX
  8
1
 10
246.993317
 20
323.360413
  0
VERTEX
  8
1
 10
247.423477
 20
331.650024
  0
VERTEX
  8
1
 10
248.019577
 20
339.882202
  0
VERTEX
  8
1
 10
249.699905
 20
356.427612
  0
VERTEX
  8
1
 10
251.970032
 20
372.900513
  0
VERTEX
  8
1
 10
254.380569
 20
387.154205
  0
VERTEX
  8
1
 10
257.458130
 20
402.658478
  0
VERTEX
  8
1
 10
257.934723
 20
405.059387
  0
VERTEX
  8
1
 10
259.736450
 20
413.489136
  0
SEQEND
  0
POINT
  8
2
 10
264.211487
 20
431.750275
  0
TEXT
  8
1
 10
264.211487
 20
431.750275
 40
0.400000
  1
# 55
  0
POINT
  8
2
 10
265.694397
 20
438.609131
  0
TEXT
  8
1
 10
265.694397
 20
438.609131
 40
0.400000
  1
# 56
  0
POINT
  8
2
 10
261.729858
 20
439.466217
  0
TEXT
  8
1
 10
261.729858
 20
439.466217
 40
0.400000
  1
# 57
  0
POINT
  8
3
 10
255.037033
 20
440.913300
  0
POINT
  8
3
 10
252.691238
 20
441.420502
  0
POINT
  8
2
 10
218.587173
 20
448.794067
  0
TEXT
  8
1
 10
218.587173
 20
448.794067
 40
0.400000
  1
# 58
  0
POINT
  8
3
 10
212.229752
 20
450.168579
  0
POINT
  8
3
 10
178.323456
 20
457.499390
  0
POINT
  8
2
 10
171.966003
 20
458.873932
  0
TEXT
  8
1
 10
171.966003
 20
458.873932
 40
0.400000
  1
# 59
  0
POINT
  8
3
 10
138.059662
 20
466.204742
  0
POINT
  8
3
 10
131.702240
 20
467.579254
  0
POINT
  8
2
 10
97.795486
 20
474.910156
  0
TEXT
  8
1
 10
97.795486
 20
474.910156
 40
0.400000
  1
# 60
  0
POINT
  8
2
 10
96.316437
 20
468.069214
  0
TEXT
  8
1
 10
96.316437
 20
468.069214
 40
0.400000
  1
# 61
  0
POINT
  8
3
 10
95.417519
 20
465.625122
  0
POINT
  8
3
 10
94.817528
 20
464.120270
  0
POINT
  8
3
 10
93.329643
 20
461.185211
  0
POINT
  8
3
 10
91.467751
 20
458.454407
  0
POINT
  8
3
 10
89.243889
 20
456.053406
  0
POINT
  8
3
 10
86.670143
 20
454.107635
  0
POINT
  8
3
 10
84.627167
 20
452.848175
  0
POINT
  8
3
 10
83.655540
 20
452.249176
  0
POINT
  8
3
 10
79.818108
 20
450.229218
  0
POINT
  8
3
 10
75.857361
 20
448.444794
  0
POINT
  8
2
 10
71.805603
 20
446.881500
  0
TEXT
  8
1
 10
71.805603
 20
446.881500
 40
0.400000
  1
# 62
  0
POINT
  8
3
 10
65.516342
 20
444.891998
  0
POINT
  8
3
 10
61.262295
 20
443.805878
  0
POINT
  8
3
 10
56.969433
 20
442.893524
  0
POINT
  8
3
 10
48.302124
 20
441.526672
  0
POINT
  8
3
 10
41.741531
 20
440.839020
  0
POINT
  8
3
 10
32.964096
 20
440.282318
  0
POINT
  8
3
 10
24.170835
 20
440.031433
  0
POINT
  8
3
 10
19.815834
 20
439.984955
  0
POINT
  8
3
 10
2.400000
 20
440.000000
  0
POINT
  8
2
 10
0.000001
 20
440.000000
  0
TEXT
  8
1
 10
0.000001
 20
440.000000
 40
0.400000
  1
# 63
  0
POINT
  8
3
 10
-2.400000
 20
440.000000
  0
POINT
  8
3
 10
-19.815834
 20
439.984955
  0
POINT
  8
3
 10
-24.170835
 20
440.031433
  0
POINT
  8
3
 10
-32.964096
 20
440.282318
  0
POINT
  8
3
 10
-41.741531
 20
440.839020
  0
POINT
  8
3
 10
-48.302124
 20
441.526672
  0
POINT
  8
3
 10
-56.969433
 20
442.893524
  0
POINT
  8
3
 10
-61.262295
 20
443.805878
  0
POINT
  8
3
 10
-65.516342
 20
444.891998
  0
POINT
  8
3
 10
-71.805603
 20
446.881500
  0
POINT
  8
2
 10
-75.857361
 20
448.444794
  0
TEXT
  8
1
 10
-75.857361
 20
448.444794
 40
0.400000
  1
# 64
  0
POINT
  8
3
 10
-79.818108
 20
450.229218
  0
POINT
  8
3
 10
-83.655540
 20
452.249176
  0
POINT
  8
3
 10
-84.627167
 20
452.848175
  0
POINT
  8
3
 10
-86.670143
 20
454.107635
  0
POINT
  8
3
 10
-89.243889
 20
456.053406
  0
POINT
  8
3
 10
-91.467751
 20
458.454407
  0
POINT
  8
3
 10
-93.329643
 20
461.185211
  0
POINT
  8
3
 10
-94.817528
 20
464.120270
  0
POINT
  8
3
 10
-95.417519
 20
465.625122
  0
POINT
  8
2
 10
-96.316559
 20
468.069183
  0
TEXT
  8
1
 10
-96.316559
 20
468.069183
 40
0.400000
  1
# 65
  0
POINT
  8
2
 10
-97.795486
 20
474.910156
  0
TEXT
  8
1
 10
-97.795486
 20
474.910156
 40
0.400000
  1
# 66
  0
POINT
  8
3
 10
-131.702240
 20
467.579254
  0
POINT
  8
3
 10
-138.059662
 20
466.204742
  0
POINT
  8
2
 10
-171.966003
 20
458.873932
  0
TEXT
  8
1
 10
-171.966003
 20
458.873932
 40
0.400000
  1
# 67
  0
POINT
  8
3
 10
-178.323456
 20
457.499390
  0
POINT
  8
3
 10
-212.229752
 20
450.168579
  0
POINT
  8
2
 10
-218.587173
 20
448.794067
  0
TEXT
  8
1
 10
-218.587173
 20
448.794067
 40
0.400000
  1
# 68
  0
POINT
  8
3
 10
-252.691238
 20
441.420502
  0
POINT
  8
3
 10
-255.037033
 20
440.913300
  0
POINT
  8
2
 10
-261.729858
 20
439.466217
  0
TEXT
  8
1
 10
-261.729858
 20
439.466217
 40
0.400000
  1
# 69
  0
POINT
  8
2
 10
-265.694397
 20
438.609131
  0
TEXT
  8
1
 10
-265.694397
 20
438.609131
 40
0.400000
  1
# 70
  0
POINT
  8
2
 10
-264.211487
 20
431.750275
  0
TEXT
  8
1
 10
-264.211487
 20
431.750275
 40
0.400000
  1
# 71
  0
POINT
  8
3
 10
-259.736450
 20
413.489136
  0
POINT
  8
3
 10
-257.934723
 20
405.059387
  0
POINT
  8
3
 10
-257.458130
 20
402.658478
  0
POINT
  8
3
 10
-254.380569
 20
387.154205
  0
POINT
  8
3
 10
-251.970032
 20
372.900513
  0
POINT
  8
3
 10
-249.699905
 20
356.427612
  0
POINT
  8
3
 10
-248.019577
 20
339.882202
  0
POINT
  8
3
 10
-247.423477
 20
331.650024
  0
POINT
  8
3
 10
-246.993317
 20
323.360413
  0
POINT
  8
2
 10
-246.390991
 20
306.840118
  0
TEXT
  8
1
 10
-246.390991
 20
306.840118
 40
0.400000
  1
# 72
  0
POINT
  8
3
 10
-246.280655
 20
298.702301
  0
POINT
  8
3
 10
-246.404434
 20
290.629303
  0
POINT
  8
3
 10
-246.840012
 20
282.636414
  0
POINT
  8
3
 10
-247.663040
 20
274.720520
  0
POINT
  8
3
 10
-248.948135
 20
266.876434
  0
POINT
  8
3
 10
-250.785706
 20
259.027863
  0
POINT
  8
3
 10
-251.904114
 20
255.216354
  0
POINT
  8
3
 10
-253.203430
 20
251.354965
  0
POINT
  8
3
 10
-254.676300
 20
247.501266
  0
POINT
  8
3
 10
-256.343506
 20
243.628296
  0
POINT
  8
2
 10
-258.193237
 20
239.780060
  0
TEXT
  8
1
 10
-258.193237
 20
239.780060
 40
0.400000
  1
# 73
  0
POINT
  8
3
 10
-260.217133
 20
235.984818
  0
POINT
  8
3
 10
-262.406830
 20
232.269928
  0
POINT
  8
3
 10
-264.753571
 20
228.661789
  0
POINT
  8
3
 10
-267.246979
 20
225.188553
  0
POINT
  8
3
 10
-269.876984
 20
221.876083
  0
POINT
  8
3
 10
-272.631836
 20
218.751129
  0
POINT
  8
3
 10
-275.501007
 20
215.837265
  0
POINT
  8
3
 10
-278.471222
 20
213.159332
  0
POINT
  8
3
 10
-281.529816
 20
210.739471
  0
POINT
  8
2
 10
-284.664032
 20
208.597931
  0
TEXT
  8
1
 10
-284.664032
 20
208.597931
 40
0.400000
  1
# 74
  0
POINT
  8
3
 10
-287.861572
 20
206.752640
  0
POINT
  8
3
 10
-291.111908
 20
205.218857
  0
POINT
  8
3
 10
-294.408264
 20
204.008881
  0
POINT
  8
3
 10
-297.747925
 20
203.133652
  0
POINT
  8
3
 10
-299.095703
 20
202.922821
  0
POINT
  8
3
 10
-301.466858
 20
202.551895
  0
POINT
  8
3
 10
-304.872681
 20
202.256760
  0
POINT
  8
3
 10
-309.155762
 20
202.136551
  0
POINT
  8
2
 10
-312.351471
 20
201.971481
  0
TEXT
  8
1
 10
-312.351471
 20
201.971481
 40
0.400000
  1
# 75
  0
POINT
  8
2
 10
-311.990356
 20
194.980804
  0
TEXT
  8
1
 10
-311.990356
 20
194.980804
 40
0.400000
  1
# 76
  0
POINT
  8
3
 10
-311.859955
 20
192.450089
  0
POINT
  8
3
 10
-308.917114
 20
144.794189
  0
POINT
  8
2
 10
-305.713623
 20
97.779091
  0
TEXT
  8
1
 10
-305.713623
 20
97.779091
 40
0.400000
  1
# 77
  0
POINT
  8
3
 10
-304.139465
 20
71.807953
  0
POINT
  8
2
 10
-302.776855
 20
43.085709
  0
TEXT
  8
1
 10
-302.776855
 20
43.085709
 40
0.400000
  1
# 78
  0
POINT
  8
3
 10
-302.175201
 20
22.646748
  0
POINT
  8
3
 10
-301.975098
 20
3.462184
  0
POINT
  8
2
 10
-301.975128
 20
1.000109
  0
TEXT
  8
1
 10
-301.975128
 20
1.000109
 40
0.400000
  1
# 79
  0
POINT
  8
4
 10
-301.975128
 20
1.000109
 30
5.000000
 50
359.999939
  0
POINT
  8
3
 10
-301.975128
 20
-1.499908
  0
POINT
  8
3
 10
-301.987549
 20
-104.374092
  0
POINT
  8
2
 10
-302.000000
 20
-207.249115
  0
TEXT
  8
1
 10
-302.000000
 20
-207.249115
 40
0.400000
  1
# 80
  0
POINT
  8
3
 10
-302.000000
 20
-209.749969
  0
POINT
  8
2
 10
-302.000000
 20
-279.999969
  0
TEXT
  8
1
 10
-302.000000
 20
-279.999969
 40
0.400000
  1
# 81
  0
POINT
  8
4
 10
-302.000000
 20
-279.999969
 30
5.000000
 50
0.000000
  0
POINT
  8
2
 10
-299.000031
 20
-304.999817
  0
TEXT
  8
1
 10
-299.000031
 20
-304.999817
 40
0.400000
  1
# 82
  0
POINT
  8
3
 10
-292.500000
 20
-305.000000
  0
POINT
  8
3
 10
-227.375000
 20
-305.000000
  0
POINT
  8
3
 10
-162.250000
 20
-305.000000
  0
POINT
  8
2
 10
-132.750000
 20
-305.000000
  0
TEXT
  8
1
 10
-132.750000
 20
-305.000000
 40
0.400000
  1
# 83
  0
POINT
  8
3
 10
-97.075005
 20
-305.000000
  0
POINT
  8
3
 10
-31.900000
 20
-305.000000
  0
POINT
  8
3
 10
-29.500000
 20
-305.000000
  0
POINT
  8
2
 10
0.000000
 20
-305.000000
  0
TEXT
  8
1
 10
0.000000
 20
-305.000000
 40
0.400000
  1
# 84
  0
POINT
  8
3
 10
29.500000
 20
-305.000000
  0
POINT
  8
3
 10
31.900000
 20
-305.000000
  0
POINT
  8
3
 10
97.075005
 20
-305.000000
  0
POINT
  8
2
 10
132.750000
 20
-305.000000
  0
TEXT
  8
1
 10
132.750000
 20
-305.000000
 40
0.400000
  1
# 85
  0
POINT
  8
3
 10
162.250000
 20
-305.000000
  0
POINT
  8
3
 10
227.375000
 20
-305.000000
  0
POINT
  8
3
 10
292.500000
 20
-305.000000
  0
POINT
  8
2
 10
299.000031
 20
-304.999817
  0
TEXT
  8
1
 10
299.000031
 20
-304.999817
 40
0.400000
  1
# 86
  0
POINT
  8
2
 10
302.000000
 20
-280.000031
  0
TEXT
  8
1
 10
302.000000
 20
-280.000031
 40
0.400000
  1
# 87
  0
POINT
  8
4
 10
302.000000
 20
-280.000031
 30
5.000000
 50
180.000000
  0
POINT
  8
3
 10
302.000000
 20
-209.749969
  0
POINT
  8
2
 10
302.000000
 20
-207.249115
  0
TEXT
  8
1
 10
302.000000
 20
-207.249115
 40
0.400000
  1
# 88
  0
POINT
  8
3
 10
301.987549
 20
-104.374092
  0
POINT
  8
3
 10
301.975128
 20
-1.499908
  0
POINT
  8
2
 10
301.975128
 20
1.000107
  0
TEXT
  8
1
 10
301.975128
 20
1.000107
 40
0.400000
  1
# 89
  0
POINT
  8
4
 10
301.975128
 20
1.000107
 30
5.000000
 50
180.000061
  0
POINT
  8
3
 10
301.975098
 20
3.462184
  0
POINT
  8
3
 10
302.175201
 20
22.646748
  0
POINT
  8
2
 10
302.776855
 20
43.085709
  0
TEXT
  8
1
 10
302.776855
 20
43.085709
 40
0.400000
  1
# 90
  0
POINT
  8
3
 10
304.139465
 20
71.807953
  0
POINT
  8
2
 10
305.713623
 20
97.779091
  0
TEXT
  8
1
 10
305.713623
 20
97.779091
 40
0.400000
  1
# 91
  0
POINT
  8
3
 10
308.917114
 20
144.794189
  0
POINT
  8
3
 10
311.859955
 20
192.450089
  0
POINT
  8
2
 10
311.990692
 20
194.980789
  0
TEXT
  8
1
 10
311.990692
 20
194.980789
 40
0.400000
  1
# 92
  0
POINT
  8
2
 10
312.351471
 20
201.971481
  0
TEXT
  8
1
 10
312.351471
 20
201.971481
 40
0.400000
  1
# 93
  0
POINT
  8
3
 10
309.155762
 20
202.136551
  0
POINT
  8
3
 10
304.872681
 20
202.256760
  0
POINT
  8
3
 10
301.466858
 20
202.551895
  0
POINT
  8
3
 10
299.095703
 20
202.922821
  0
POINT
  8
3
 10
297.747925
 20
203.133652
  0
POINT
  8
3
 10
294.408264
 20
204.008881
  0
POINT
  8
3
 10
291.111908
 20
205.218857
  0
POINT
  8
3
 10
287.861572
 20
206.752640
  0
POINT
  8
2
 10
284.664032
 20
208.597931
  0
TEXT
  8
1
 10
284.664032
 20
208.597931
 40
0.400000
  1
# 94
  0
POINT
  8
3
 10
281.529816
 20
210.739471
  0
POINT
  8
3
 10
278.471222
 20
213.159332
  0
POINT
  8
3
 10
275.501007
 20
215.837265
  0
POINT
  8
3
 10
272.631836
 20
218.751129
  0
POINT
  8
3
 10
269.876984
 20
221.876083
  0
POINT
  8
3
 10
267.246979
 20
225.188553
  0
POINT
  8
3
 10
264.753571
 20
228.661789
  0
POINT
  8
3
 10
262.406830
 20
232.269928
  0
POINT
  8
3
 10
260.217133
 20
235.984818
  0
POINT
  8
2
 10
258.193237
 20
239.780060
  0
TEXT
  8
1
 10
258.193237
 20
239.780060
 40
0.400000
  1
# 95
  0
POINT
  8
3
 10
256.343506
 20
243.628296
  0
POINT
  8
3
 10
254.676300
 20
247.501266
  0
POINT
  8
3
 10
253.203430
 20
251.354965
  0
POINT
  8
3
 10
251.904114
 20
255.216354
  0
POINT
  8
3
 10
250.785706
 20
259.027863
  0
POINT
  8
3
 10
248.948135
 20
266.876434
  0
POINT
  8
3
 10
247.663040
 20
274.720520
  0
POINT
  8
3
 10
246.840012
 20
282.636414
  0
POINT
  8
3
 10
246.404434
 20
290.629303
  0
POINT
  8
3
 10
246.280655
 20
298.702301
  0
POINT
  8
2
 10
246.390991
 20
306.840118
  0
TEXT
  8
1
 10
246.390991
 20
306.840118
 40
0.400000
  1
# 96
  0
POINT
  8
3
 10
246.993317
 20
323.360413
  0
POINT
  8
3
 10
247.423477
 20
331.650024
  0
POINT
  8
3
 10
248.019577
 20
339.882202
  0
POINT
  8
3
 10
249.699905
 20
356.427612
  0
POINT
  8
3
 10
251.970032
 20
372.900513
  0
POINT
  8
3
 10
254.380569
 20
387.154205
  0
POINT
  8
3
 10
257.458130
 20
402.658478
  0
POINT
  8
3
 10
257.934723
 20
405.059387
  0
POINT
  8
3
 10
259.736450
 20
413.489136
  0
TEXT
  8
15
  1
фуфайка муж утепл ув
 10
-87.678520
 20
29.158386
 40
10.670677
 50
90.000000
  0
TEXT
  8
15
  1
Спинка
 10
-76.245651
 20
29.158386
 40
10.670677
 50
90.000000
  0
TEXT
  8
15
  1
  104.-  108./  170.-  176.
 10
-64.812782
 20
29.158386
 40
10.670677
 50
90.000000
  0
TEXT
  8
15
  1
полнота    2.
 10
-53.379913
 20
29.158386
 40
10.670677
 50
90.000000
  0
TEXT
  8
15
  1
1 дет
 10
-41.947044
 20
29.158386
 40
10.670677
 50
90.000000
  0
TEXT
  8
1
 10
0.000000
 20
-10.000000
 40
25.000000
 50
-90.000000
  1
Size:A54
  0
TEXT
  8
1
 10
-0.250000
 20
-10.000000
 40
25.000000
 50
-90.000000
  1
Piece Name:007-Спинка
  0
TEXT
  8
1
 10
-0.500000
 20
-10.000000
 40
25.000000
 50
-90.000000
  1
Annotation:Спинка
  0
TEXT
  8
1
 10
-0.750000
 20
-10.000000
 40
25.000000
 50
-90.000000
  1
Category:В
  0
TEXT
  8
1
 10
-1.000000
 20
-10.000000
 40
25.000000
 50
-90.000000
  1
Quantity:1
  0
ENDBLK
  0
BLOCK
  8
1
  2
фуфайка_008_A54
 70
0
 10
0.000000
 20
0.000000
  0
LINE
  8
7
 10
200.249176
 20
-222.584961
 11
200.249176
 21
-372.584961
  0
TEXT
  8
2
 10
200.249176
 20
-222.584961
 40
0.400000
  1
# 97
  0
TEXT
  8
2
 10
200.249176
 20
-372.584961
 40
0.400000
  1
# 98
  0
POLYLINE
  8
1
 66
1
 70
    1
  0
VERTEX
  8
1
 10
409.078156
 20
26.261602
  0
VERTEX
  8
1
 10
398.879120
 20
33.500393
  0
VERTEX
  8
1
 10
392.390961
 20
38.466831
  0
VERTEX
  8
1
 10
379.579895
 20
48.951992
  0
VERTEX
  8
1
 10
355.983551
 20
69.561180
  0
VERTEX
  8
1
 10
343.276398
 20
80.620941
  0
VERTEX
  8
1
 10
330.290161
 20
91.513428
  0
VERTEX
  8
1
 10
316.970978
 20
102.046288
  0
VERTEX
  8
1
 10
310.100494
 20
107.170914
  0
VERTEX
  8
1
 10
303.012482
 20
112.212059
  0
VERTEX
  8
1
 10
295.772644
 20
117.081871
  0
VERTEX
  8
1
 10
288.371643
 20
121.748932
  0
VERTEX
  8
1
 10
280.796234
 20
126.184090
  0
VERTEX
  8
1
 10
273.036774
 20
130.355713
  0
VERTEX
  8
1
 10
265.099579
 20
134.224350
  0
VERTEX
  8
1
 10
258.963165
 20
136.935974
  0
VERTEX
  8
1
 10
250.753418
 20
140.178711
  0
VERTEX
  8
1
 10
242.335587
 20
143.032913
  0
VERTEX
  8
1
 10
233.749802
 20
145.434891
  0
VERTEX
  8
1
 10
225.019943
 20
147.326141
  0
VERTEX
  8
1
 10
216.172073
 20
148.646332
  0
VERTEX
  8
1
 10
213.499023
 20
148.851898
  0
VERTEX
  8
1
 10
207.302673
 20
149.328461
  0
VERTEX
  8
1
 10
202.817169
 20
149.415039
  0
VERTEX
  8
1
 10
200.249146
 20
149.415039
  0
VERTEX
  8
1
 10
197.595840
 20
149.415039
  0
VERTEX
  8
1
 10
190.751617
 20
149.115280
  0
VERTEX
  8
1
 10
186.019775
 20
148.565308
  0
VERTEX
  8
1
 10
181.375076
 20
147.764740
  0
VERTEX
  8
1
 10
176.776871
 20
146.718613
  0
VERTEX
  8
1
 10
172.237991
 20
145.437958
  0
VERTEX
  8
1
 10
167.769669
 20
143.933014
  0
VERTEX
  8
1
 10
163.383331
 20
142.213669
  0
VERTEX
  8
1
 10
159.091080
 20
140.289688
  0
VERTEX
  8
1
 10
154.903748
 20
138.169891
  0
VERTEX
  8
1
 10
150.834152
 20
135.863647
  0
VERTEX
  8
1
 10
146.894592
 20
133.379837
  0
VERTEX
  8
1
 10
143.128006
 20
130.752213
  0
VERTEX
  8
1
 10
139.509567
 20
127.982239
  0
VERTEX
  8
1
 10
135.983978
 20
125.044518
  0
VERTEX
  8
1
 10
129.465866
 20
118.965324
  0
VERTEX
  8
1
 10
123.346016
 20
112.478951
  0
VERTEX
  8
1
 10
117.601753
 20
105.731300
  0
VERTEX
  8
1
 10
112.141785
 20
98.793884
  0
VERTEX
  8
1
 10
101.895294
 20
84.845016
  0
VERTEX
  8
1
 10
89.523308
 20
67.726776
  0
VERTEX
  8
1
 10
79.473343
 20
54.420956
  0
VERTEX
  8
1
 10
77.206650
 20
51.586388
  0
VERTEX
  8
1
 10
74.326637
 20
47.984814
  0
VERTEX
  8
1
 10
69.011772
 20
41.667015
  0
VERTEX
  8
1
 10
63.535583
 20
35.534203
  0
VERTEX
  8
1
 10
55.799927
 20
27.631861
  0
VERTEX
  8
1
 10
52.687969
 20
24.786499
  0
VERTEX
  8
1
 10
49.454060
 20
22.071299
  0
VERTEX
  8
1
 10
46.143188
 20
19.560760
  0
VERTEX
  8
1
 10
42.747524
 20
17.279440
  0
VERTEX
  8
1
 10
39.297005
 20
15.272346
  0
VERTEX
  8
1
 10
33.936646
 20
12.736076
  0
VERTEX
  8
1
 10
30.311008
 20
11.358932
  0
VERTEX
  8
1
 10
26.512613
 20
10.164800
  0
VERTEX
  8
1
 10
22.615532
 20
9.170004
  0
VERTEX
  8
1
 10
18.640772
 20
8.369860
  0
VERTEX
  8
1
 10
14.609908
 20
7.759067
  0
VERTEX
  8
1
 10
10.545012
 20
7.331776
  0
VERTEX
  8
1
 10
7.134809
 20
7.122891
  0
VERTEX
  8
1
 10
6.135535
 20
7.080258
  0
VERTEX
  8
1
 10
3.737716
 20
6.977957
  0
VERTEX
  8
1
 10
-3.275320
 20
6.678752
  0
VERTEX
  8
1
 10
-7.359963
 20
6.504485
  0
VERTEX
  8
1
 10
-7.061602
 20
-0.488595
  0
VERTEX
  8
1
 10
-6.293830
 20
-3.954356
  0
VERTEX
  8
1
 10
39.402905
 20
-210.305969
  0
VERTEX
  8
1
 10
42.943108
 20
-226.292450
  0
VERTEX
  8
1
 10
85.099640
 20
-416.657593
  0
VERTEX
  8
1
 10
86.855370
 20
-424.584961
  0
VERTEX
  8
1
 10
94.974655
 20
-424.584961
  0
VERTEX
  8
1
 10
157.474655
 20
-424.584961
  0
VERTEX
  8
1
 10
222.474655
 20
-424.584961
  0
VERTEX
  8
1
 10
287.474670
 20
-424.584961
  0
VERTEX
  8
1
 10
305.172760
 20
-424.584961
  0
VERTEX
  8
1
 10
349.974640
 20
-424.584961
  0
VERTEX
  8
1
 10
358.093079
 20
-424.584961
  0
VERTEX
  8
1
 10
359.849762
 20
-416.658875
  0
VERTEX
  8
1
 10
401.693298
 20
-227.806763
  0
VERTEX
  8
1
 10
402.028809
 20
-226.292480
  0
VERTEX
  8
1
 10
405.570740
 20
-210.306732
  0
VERTEX
  8
1
 10
451.291595
 20
-3.955030
  0
VERTEX
  8
1
 10
453.061096
 20
4.029437
  0
VERTEX
  8
1
 10
440.635345
 20
9.186398
  0
VERTEX
  8
1
 10
437.630310
 20
10.379075
  0
VERTEX
  8
1
 10
430.280273
 20
13.797118
  0
VERTEX
  8
1
 10
423.068390
 20
17.616085
  0
VERTEX
  8
1
 10
415.993591
 20
21.791182
  0
SEQEND
  0
POINT
  8
2
 10
409.078156
 20
26.261602
  0
TEXT
  8
1
 10
409.078156
 20
26.261602
 40
0.400000
  1
# 99
  0
POINT
  8
3
 10
398.879120
 20
33.500393
  0
POINT
  8
3
 10
392.390961
 20
38.466831
  0
POINT
  8
3
 10
379.579895
 20
48.951992
  0
POINT
  8
3
 10
355.983551
 20
69.561180
  0
POINT
  8
3
 10
343.276398
 20
80.620941
  0
POINT
  8
3
 10
330.290161
 20
91.513428
  0
POINT
  8
2
 10
316.970978
 20
102.046288
  0
TEXT
  8
1
 10
316.970978
 20
102.046288
 40
0.400000
  1
# 100
  0
POINT
  8
3
 10
310.100494
 20
107.170914
  0
POINT
  8
3
 10
303.012482
 20
112.212059
  0
POINT
  8
3
 10
295.772644
 20
117.081871
  0
POINT
  8
3
 10
288.371643
 20
121.748932
  0
POINT
  8
3
 10
280.796234
 20
126.184090
  0
POINT
  8
3
 10
273.036774
 20
130.355713
  0
POINT
  8
2
 10
265.099579
 20
134.224350
  0
TEXT
  8
1
 10
265.099579
 20
134.224350
 40
0.400000
  1
# 101
  0
POINT
  8
3
 10
258.963165
 20
136.935974
  0
POINT
  8
3
 10
250.753418
 20
140.178711
  0
POINT
  8
3
 10
242.335587
 20
143.032913
  0
POINT
  8
3
 10
233.749802
 20
145.434891
  0
POINT
  8
3
 10
225.019943
 20
147.326141
  0
POINT
  8
3
 10
216.172073
 20
148.646332
  0
POINT
  8
2
 10
213.499023
 20
148.851898
  0
TEXT
  8
1
 10
213.499023
 20
148.851898
 40
0.400000
  1
# 102
  0
POINT
  8
4
 10
213.499023
 20
148.851898
 30
4.999998
 50
265.601990
  0
POINT
  8
3
 10
207.302673
 20
149.328461
  0
POINT
  8
3
 10
202.817169
 20
149.415039
  0
POINT
  8
3
 10
200.249146
 20
149.415039
  0
POINT
  8
3
 10
197.595840
 20
149.415039
  0
POINT
  8
3
 10
190.751617
 20
149.115280
  0
POINT
  8
3
 10
186.019775
 20
148.565308
  0
POINT
  8
2
 10
181.375076
 20
147.764740
  0
TEXT
  8
1
 10
181.375076
 20
147.764740
 40
0.400000
  1
# 103
  0
POINT
  8
3
 10
176.776871
 20
146.718613
  0
POINT
  8
3
 10
172.237991
 20
145.437958
  0
POINT
  8
3
 10
167.769669
 20
143.933014
  0
POINT
  8
3
 10
163.383331
 20
142.213669
  0
POINT
  8
3
 10
159.091080
 20
140.289688
  0
POINT
  8
2
 10
154.903748
 20
138.169891
  0
TEXT
  8
1
 10
154.903748
 20
138.169891
 40
0.400000
  1
# 104
  0
POINT
  8
3
 10
150.834152
 20
135.863647
  0
POINT
  8
3
 10
146.894592
 20
133.379837
  0
POINT
  8
3
 10
143.128006
 20
130.752213
  0
POINT
  8
3
 10
139.509567
 20
127.982239
  0
POINT
  8
3
 10
135.983978
 20
125.044518
  0
POINT
  8
3
 10
129.465866
 20
118.965324
  0
POINT
  8
2
 10
123.346016
 20
112.478951
  0
TEXT
  8
1
 10
123.346016
 20
112.478951
 40
0.400000
  1
# 105
  0
POINT
  8
3
 10
117.601753
 20
105.731300
  0
POINT
  8
3
 10
112.141785
 20
98.793884
  0
POINT
  8
3
 10
101.895294
 20
84.845016
  0
POINT
  8
3
 10
89.523308
 20
67.726776
  0
POINT
  8
3
 10
79.473343
 20
54.420956
  0
POINT
  8
2
 10
77.206650
 20
51.586388
  0
TEXT
  8
1
 10
77.206650
 20
51.586388
 40
0.400000
  1
# 106
  0
POINT
  8
4
 10
77.206650
 20
51.586388
 30
5.000000
 50
321.352356
  0
POINT
  8
3
 10
74.326637
 20
47.984814
  0
POINT
  8
3
 10
69.011772
 20
41.667015
  0
POINT
  8
3
 10
63.535583
 20
35.534203
  0
POINT
  8
3
 10
55.799927
 20
27.631861
  0
POINT
  8
3
 10
52.687969
 20
24.786499
  0
POINT
  8
2
 10
49.454060
 20
22.071299
  0
TEXT
  8
1
 10
49.454060
 20
22.071299
 40
0.400000
  1
# 107
  0
POINT
  8
3
 10
46.143188
 20
19.560760
  0
POINT
  8
3
 10
42.747524
 20
17.279440
  0
POINT
  8
3
 10
39.297005
 20
15.272346
  0
POINT
  8
3
 10
33.936646
 20
12.736076
  0
POINT
  8
3
 10
30.311008
 20
11.358932
  0
POINT
  8
2
 10
26.512613
 20
10.164800
  0
TEXT
  8
1
 10
26.512613
 20
10.164800
 40
0.400000
  1
# 108
  0
POINT
  8
3
 10
22.615532
 20
9.170004
  0
POINT
  8
3
 10
18.640772
 20
8.369860
  0
POINT
  8
3
 10
14.609908
 20
7.759067
  0
POINT
  8
3
 10
10.545012
 20
7.331776
  0
POINT
  8
2
 10
7.134809
 20
7.122891
  0
TEXT
  8
1
 10
7.134809
 20
7.122891
 40
0.400000
  1
# 109
  0
POINT
  8
3
 10
6.135535
 20
7.080258
  0
POINT
  8
3
 10
3.737716
 20
6.977957
  0
POINT
  8
3
 10
-3.275320
 20
6.678752
  0
POINT
  8
2
 10
-7.359963
 20
6.504485
  0
TEXT
  8
1
 10
-7.359963
 20
6.504485
 40
0.400000
  1
# 110
  0
POINT
  8
2
 10
-7.061602
 20
-0.488595
  0
TEXT
  8
1
 10
-7.061602
 20
-0.488595
 40
0.400000
  1
# 111
  0
POINT
  8
3
 10
-6.293830
 20
-3.954356
  0
POINT
  8
3
 10
39.402905
 20
-210.305969
  0
POINT
  8
2
 10
42.943108
 20
-226.292450
  0
TEXT
  8
1
 10
42.943108
 20
-226.292450
 40
0.400000
  1
# 112
  0
POINT
  8
4
 10
42.943108
 20
-226.292450
 30
5.000000
 50
0.000000
  0
POINT
  8
3
 10
85.099640
 20
-416.657593
  0
POINT
  8
2
 10
86.855370
 20
-424.584961
  0
TEXT
  8
1
 10
86.855370
 20
-424.584961
 40
0.400000
  1
# 113
  0
POINT
  8
3
 10
94.974655
 20
-424.584961
  0
POINT
  8
3
 10
157.474655
 20
-424.584961
  0
POINT
  8
3
 10
222.474655
 20
-424.584961
  0
POINT
  8
2
 10
287.474670
 20
-424.584961
  0
TEXT
  8
1
 10
287.474670
 20
-424.584961
 40
0.400000
  1
# 114
  0
POINT
  8
3
 10
305.172760
 20
-424.584961
  0
POINT
  8
3
 10
349.974640
 20
-424.584961
  0
POINT
  8
2
 10
358.093079
 20
-424.584961
  0
TEXT
  8
1
 10
358.093079
 20
-424.584961
 40
0.400000
  1
# 115
  0
POINT
  8
3
 10
359.849762
 20
-416.658875
  0
POINT
  8
3
 10
401.693298
 20
-227.806763
  0
POINT
  8
2
 10
402.028809
 20
-226.292480
  0
TEXT
  8
1
 10
402.028809
 20
-226.292480
 40
0.400000
  1
# 116
  0
POINT
  8
4
 10
402.028809
 20
-226.292480
 30
5.000000
 50
180.000000
  0
POINT
  8
3
 10
405.570740
 20
-210.306732
  0
POINT
  8
3
 10
451.291595
 20
-3.955030
  0
POINT
  8
2
 10
453.061096
 20
4.029437
  0
TEXT
  8
1
 10
453.061096
 20
4.029437
 40
0.400000
  1
# 117
  0
POINT
  8
3
 10
440.635345
 20
9.186398
  0
POINT
  8
3
 10
437.630310
 20
10.379075
  0
POINT
  8
3
 10
430.280273
 20
13.797118
  0
POINT
  8
3
 10
423.068390
 20
17.616085
  0
POINT
  8
3
 10
415.993591
 20
21.791182
  0
TEXT
  8
15
  1
фуфайка муж утепл ув
 10
251.598999
 20
-163.790573
 40
8.550375
 50
90.000000
  0
TEXT
  8
15
  1
Рукав
 10
260.760101
 20
-163.790573
 40
8.550375
 50
90.000000
  0
TEXT
  8
15
  1
  104.-  108./  170.-  176.
 10
269.921204
 20
-163.790573
 40
8.550375
 50
90.000000
  0
TEXT
  8
15
  1
полнота    2.
 10
279.082306
 20
-163.790573
 40
8.550375
 50
90.000000
  0
TEXT
  8
15
  1
2 дет
 10
288.243408
 20
-163.790573
 40
8.550375
 50
90.000000
  0
TEXT
  8
1
 10
20.024918
 20
-22.258497
 40
25.000000
 50
-90.000000
  1
Size:A54
  0
TEXT
  8
1
 10
19.774918
 20
-22.258497
 40
25.000000
 50
-90.000000
  1
Piece Name:008-Рукав
  0
TEXT
  8
1
 10
19.524918
 20
-22.258497
 40
25.000000
 50
-90.000000
  1
Annotation:Рукав
  0
TEXT
  8
1
 10
19.274918
 20
-22.258497
 40
25.000000
 50
-90.000000
  1
Category:В
  0
TEXT
  8
1
 10
19.024918
 20
-22.258497
 40
25.000000
 50
-90.000000
  1
Quantity:2
  0
ENDBLK
  0
BLOCK
  8
1
  2
фуфайка_010_A54
 70
0
 10
0.000000
 20
0.000000
  0
LINE
  8
7
 10
95.958466
 20
-203.074188
 11
95.958466
 21
-296.074219
  0
TEXT
  8
2
 10
95.958466
 20
-203.074188
 40
0.400000
  1
# 118
  0
TEXT
  8
2
 10
95.958466
 20
-296.074219
 40
0.400000
  1
# 119
  0
POLYLINE
  8
1
 66
1
 70
    1
  0
VERTEX
  8
1
 10
143.733856
 20
-187.074188
  0
VERTEX
  8
1
 10
-61.266144
 20
-187.074188
  0
VERTEX
  8
1
 10
-61.266113
 20
-249.074188
  0
VERTEX
  8
1
 10
-61.266144
 20
-311.074188
  0
VERTEX
  8
1
 10
143.733856
 20
-311.074188
  0
VERTEX
  8
1
 10
143.733887
 20
-249.074188
  0
SEQEND
  0
POINT
  8
2
 10
143.733856
 20
-187.074188
  0
TEXT
  8
1
 10
143.733856
 20
-187.074188
 40
0.400000
  1
# 120
  0
POINT
  8
2
 10
-61.266144
 20
-187.074188
  0
TEXT
  8
1
 10
-61.266144
 20
-187.074188
 40
0.400000
  1
# 121
  0
POINT
  8
2
 10
-61.266113
 20
-249.074188
  0
TEXT
  8
1
 10
-61.266113
 20
-249.074188
 40
0.400000
  1
# 122
  0
POINT
  8
4
 10
-61.266113
 20
-249.074188
 30
5.000000
 50
0.000000
  0
POINT
  8
2
 10
-61.266144
 20
-311.074188
  0
TEXT
  8
1
 10
-61.266144
 20
-311.074188
 40
0.400000
  1
# 123
  0
POINT
  8
2
 10
143.733856
 20
-311.074188
  0
TEXT
  8
1
 10
143.733856
 20
-311.074188
 40
0.400000
  1
# 124
  0
POINT
  8
2
 10
143.733887
 20
-249.074188
  0
TEXT
  8
1
 10
143.733887
 20
-249.074188
 40
0.400000
  1
# 125
  0
POINT
  8
4
 10
143.733887
 20
-249.074188
 30
5.000000
 50
180.000000
  0
TEXT
  8
15
  1
фуфайка муж утепл ув
 10
-26.226767
 20
-241.953232
 40
4.545014
 50
0.000000
  0
TEXT
  8
15
  1
Манжета рукава
 10
-26.226767
 20
-246.822891
 40
4.545014
 50
0.000000
  0
TEXT
  8
15
  1
  104.-  108./  170.-  176.
 10
-26.226767
 20
-251.692551
 40
4.545014
 50
0.000000
  0
TEXT
  8
15
  1
полнота    2.
 10
-26.226767
 20
-256.562195
 40
4.545014
 50
0.000000
  0
TEXT
  8
15
  1
2 дет
 10
-26.226767
 20
-261.431854
 40
4.545014
 50
0.000000
  0
TEXT
  8
1
 10
9.595847
 20
-20.307419
 40
25.000000
 50
-90.000000
  1
Size:A54
  0
TEXT
  8
1
 10
9.345847
 20
-20.307419
 40
25.000000
 50
-90.000000
  1
Piece Name:010-Манжета-рукава
  0
TEXT
  8
1
 10
9.095847
 20
-20.307419
 40
25.000000
 50
-90.000000
  1
Annotation:Манжета рукава
  0
TEXT
  8
1
 10
8.845847
 20
-20.307419
 40
25.000000
 50
-90.000000
  1
Category:V
  0
TEXT
  8
1
 10
8.595847
 20
-20.307419
 40
25.000000
 50
-90.000000
  1
Quantity:2
  0
ENDBLK
  0
ENDSEC
  0
SECTION
  2
ENTITIES
  0
TEXT
  8
1
 10
12.050084
 20
-20.307419
 40
25.000000
  1
Style Name:фуфайка мужская для экспорта
  0
TEXT
  8
1
 10
11.800084
 20
-20.307419
 40
25.000000
  1
Creation Date:20.03.2013
  0
TEXT
  8
1
 10
11.550084
 20
-20.307419
 40
25.000000
  1
Creation Time:15:22
  0
TEXT
  8
1
 10
11.300084
 20
-20.307419
 40
25.000000
  1
Author:GRAFIS V11.00
  0
TEXT
  8
1
 10
11.050084
 20
-20.307419
 40
25.000000
  1
Sample Size:A54
  0
TEXT
  8
1
 10
10.800084
 20
-20.307419
 40
25.000000
  1
Units:METRIC
  0
TEXT
  8
1
 10
10.550084
 20
-20.307419
 40
25.000000
  1
Grade Rule Table:фуфайка мужская для экспорта
  0
INSERT
  8
1
  2
фуфайка_006_A54
 10
0.000000
 20
0.000000
  0
INSERT
  8
1
  2
фуфайка_007_A54
 10
0.000000
 20
0.000000
  0
INSERT
  8
1
  2
фуфайка_008_A54
 10
0.000000
 20
0.000000
  0
INSERT
  8
1
  2
фуфайка_010_A54
 10
0.000000
 20
0.000000
  0
ENDSEC
  0
EOF
