  0
SECTION
  2
BLOCKS
  0
BLOCK
  8
1
  2
1
 70
64
 10
0.0
 20
0.0
  0
LINE
  8
7
 10
-1597.507476806641
 20
299.9546241760254
 11
-1597.507476806641
 21
-87.21284866333008
  0
TEXT
  8
1
 10
-1594.207518595795
 20
191.8708989059953
 40
15.00000000000000
 50
270.0000280040020
 51
0.0000000000000000
 71
0
  1
Size: IT38
  0
TEXT
  8
1
 10
-1577.707518595797
 20
191.8709069705690
 40
15.00000000000000
 50
270.0000280040020
 51
0.0000000000000000
 71
0
  1
Piece Name: ELEJE 2X
  0
TEXT
  8
1
 10
-1610.707518595793
 20
191.8708908414217
 40
15.00000000000000
 50
270.0000280040020
 51
0.0000000000000000
 71
0
  1
Quantity: 2
  0
TEXT
  8
1
 10
-1627.207518595791
 20
191.8708827768480
 40
15.00000000000000
 50
270.0000280040020
 51
0.0000000000000000
 71
0
  1
Material: ALAP
  0
TEXT
  8
1
 10
-1643.707518595789
 20
191.8708747122744
 40
15.00000000000000
 50
270.0000280040020
 51
0.0000000000000000
 71
0
  1
Area: 0.1432 sq.m
  0
POLYLINE
  8
1
 66
1
 70
1
  0
VERTEX
  8
1
 10
-1673.458412316834
 20
321.1845098944170
  0
VERTEX
  8
1
 10
-1652.071853411181
 20
324.3849594111984
 70
8
  0
VERTEX
  8
1
 10
-1643.576770151064
 20
326.0862515228479
 70
8
  0
VERTEX
  8
1
 10
-1635.959621418874
 20
328.0343142056446
 70
8
  0
VERTEX
  8
1
 10
-1628.587303481106
 20
330.6924148325542
 70
8
  0
VERTEX
  8
1
 10
-1621.654928414967
 20
334.3208570694918
 70
8
  0
VERTEX
  8
1
 10
-1618.380627877556
 20
336.4750101554115
 70
8
  0
VERTEX
  8
1
 10
-1611.984014929022
 20
341.6040956252274
 70
8
  0
VERTEX
  8
1
 10
-1609.029287936124
 20
344.4471151494338
 70
8
  0
VERTEX
  8
1
 10
-1603.562173393313
 20
350.7095136765361
 70
8
  0
VERTEX
  8
1
 10
-1601.111955301050
 20
354.0704133171770
 70
8
  0
VERTEX
  8
1
 10
-1596.965376897127
 20
360.9515765717325
 70
8
  0
VERTEX
  8
1
 10
-1595.207912753251
 20
364.5619465756773
 70
8
  0
VERTEX
  8
1
 10
-1591.892789325283
 20
373.4746696774997
 70
8
  0
VERTEX
  8
1
 10
-1589.524168701335
 20
382.7078416754483
 70
8
  0
VERTEX
  8
1
 10
-1587.144546695033
 20
396.1973807628254
 70
8
  0
VERTEX
  8
1
 10
-1585.888422451863
 20
405.2376590062763
  0
VERTEX
  8
1
 10
-1581.495553964577
 20
419.5799986499123
  0
VERTEX
  8
1
 10
-1382.404842344936
 20
358.6011531535825
  0
VERTEX
  8
1
 10
-1386.797710832222
 20
344.2588135099464
  0
VERTEX
  8
1
 10
-1396.666676042935
 20
314.2618564946132
 70
8
  0
VERTEX
  8
1
 10
-1403.542652759322
 20
291.0383336499974
 70
8
  0
VERTEX
  8
1
 10
-1409.496241433377
 20
267.5636673985206
 70
8
  0
VERTEX
  8
1
 10
-1410.556645290471
 20
262.8373484847424
 70
8
  0
VERTEX
  8
1
 10
-1415.100369997271
 20
239.3157736208215
 70
8
  0
VERTEX
  8
1
 10
-1417.887435872217
 20
220.3554592875734
 70
8
  0
VERTEX
  8
1
 10
-1420.292762743994
 20
196.6055306404148
 70
8
  0
VERTEX
  8
1
 10
-1421.353449301017
 20
177.5266633935352
 70
8
  0
VERTEX
  8
1
 10
-1421.581474211535
 20
159.4102256191802
 70
8
  0
VERTEX
  8
1
 10
-1421.074661918681
 20
145.8411607675971
 70
8
  0
VERTEX
  8
1
 10
-1420.328494190097
 20
136.8230779504983
 70
8
  0
VERTEX
  8
1
 10
-1418.294047298318
 20
122.2967383946579
 70
8
  0
VERTEX
  8
1
 10
-1417.362415006049
 20
117.4955656739597
 70
8
  0
VERTEX
  8
1
 10
-1414.482101191777
 20
105.8216580105281
 70
8
  0
VERTEX
  8
1
 10
-1412.081877115748
 20
98.17270195173964
 70
8
  0
VERTEX
  8
1
 10
-1407.893126490356
 20
87.37112456540038
 70
8
  0
VERTEX
  8
1
 10
-1406.289874177196
 20
83.85675367725256
 70
8
  0
VERTEX
  8
1
 10
-1401.613470285982
 20
75.04995071215794
 70
8
  0
VERTEX
  8
1
 10
-1398.953162759840
 20
70.83084296186163
 70
8
  0
VERTEX
  8
1
 10
-1393.427017984389
 20
63.53241003876357
 70
8
  0
VERTEX
  8
1
 10
-1390.306205661806
 20
60.17934588484718
 70
8
  0
VERTEX
  8
1
 10
-1387.257608353701
 20
57.36596875642448
 70
8
  0
VERTEX
  8
1
 10
-1383.998470857036
 20
54.80247285423852
 70
8
  0
VERTEX
  8
1
 10
-1380.538436422572
 20
52.53220193172783
 70
8
  0
VERTEX
  8
1
 10
-1376.999326987171
 20
50.63502559115507
 70
8
  0
VERTEX
  8
1
 10
-1369.532960842713
 20
47.62012813421048
 70
8
  0
VERTEX
  8
1
 10
-1365.682295352986
 20
46.41581791601464
 70
8
  0
VERTEX
  8
1
 10
-1353.646962270950
 20
43.46130758059520
 70
8
  0
VERTEX
  8
1
 10
-1349.611173578779
 20
42.60362695505511
  0
VERTEX
  8
1
 10
-1334.656254819748
 20
41.44155771839799
  0
VERTEX
  8
1
 10
-1349.669191167039
 20
-151.7631467225408
  0
VERTEX
  8
1
 10
-1364.624109926070
 20
-150.6010774858836
  0
VERTEX
  8
1
 10
-1392.617382746209
 20
-150.8009952938326
 70
8
  0
VERTEX
  8
1
 10
-1436.523517114566
 20
-152.1271551008565
 70
8
  0
VERTEX
  8
1
 10
-1524.308827514829
 20
-155.9705676796207
 70
8
  0
VERTEX
  8
1
 10
-1553.582474569599
 20
-156.5925992543695
 70
8
  0
VERTEX
  8
1
 10
-1583.458232879628
 20
-156.5974521636963
  0
VERTEX
  8
1
 10
-1583.458099365247
 20
-261.5974426269554
  0
VERTEX
  8
1
 10
-1583.457927703836
 20
-396.5974903106599
  0
VERTEX
  8
1
 10
-1673.458099365234
 20
-396.5974330902364
  0
VERTEX
  8
1
 10
-1673.458099365234
 20
-261.5974426269531
  0
VERTEX
  8
1
 10
-1673.458099365231
 20
-141.5974593834567
  0
VERTEX
  8
1
 10
-1673.458251953122
 20
16.91322796777014
  0
VERTEX
  8
1
 10
-1673.458251953124
 20
58.44460983276367
  0
SEQEND
  0
POLYLINE
  8
14
 66
1
 70
1
  0
VERTEX
  8
14
 10
-1658.458404541016
 20
308.4446144104004
  0
VERTEX
  8
14
 10
-1644.679480485211
 20
310.5675792792466
 70
8
  0
VERTEX
  8
14
 10
-1635.657608906172
 20
312.4790599245678
 70
8
  0
VERTEX
  8
14
 10
-1626.881854014382
 20
315.1347966690243
 70
8
  0
VERTEX
  8
14
 10
-1622.617034912109
 20
316.8347930908203
 70
8
  0
VERTEX
  8
14
 10
-1618.192413621565
 20
318.9580060997088
 70
8
  0
VERTEX
  8
14
 10
-1613.894750581852
 20
321.3967911981106
 70
8
  0
VERTEX
  8
14
 10
-1609.739787425577
 20
324.1304017668700
 70
8
  0
VERTEX
  8
14
 10
-1605.743265785351
 20
327.1380911868315
 70
8
  0
VERTEX
  8
14
 10
-1598.288513583475
 20
333.8927201037375
 70
8
  0
VERTEX
  8
14
 10
-1591.656427037095
 20
341.4947049955833
 70
8
  0
VERTEX
  8
14
 10
-1585.972939207079
 20
349.7780729091238
 70
8
  0
VERTEX
  8
14
 10
-1583.526273892230
 20
354.1234089511402
 70
8
  0
VERTEX
  8
14
 10
-1581.363983154297
 20
358.5768508911133
 70
8
  0
VERTEX
  8
14
 10
-1577.932266738460
 20
367.6052629520074
 70
8
  0
VERTEX
  8
14
 10
-1575.407492948628
 20
376.8976722619899
 70
8
  0
VERTEX
  8
14
 10
-1572.754010546387
 20
391.1662827883246
 70
8
  0
VERTEX
  8
14
 10
-1571.362915039063
 20
400.7886886596680
  0
VERTEX
  8
14
 10
-1401.145324707031
 20
348.6532974243164
  0
VERTEX
  8
14
 10
-1411.042175292969
 20
318.5640525817871
 70
8
  0
VERTEX
  8
14
 10
-1418.059031869376
 20
294.8658851929166
 70
8
  0
VERTEX
  8
14
 10
-1424.136174180205
 20
270.9026212503925
 70
8
  0
VERTEX
  8
14
 10
-1425.219573974609
 20
266.0754013061523
 70
8
  0
VERTEX
  8
14
 10
-1429.907659713625
 20
241.8097479804994
 70
8
  0
VERTEX
  8
14
 10
-1433.380575834141
 20
217.3311316432125
 70
8
  0
VERTEX
  8
14
 10
-1435.621905893216
 20
192.7283460638741
 70
8
  0
VERTEX
  8
14
 10
-1436.368713378906
 20
177.9440116882324
 70
8
  0
VERTEX
  8
14
 10
-1436.603757583806
 20
159.0532290641051
 70
8
  0
VERTEX
  8
14
 10
-1436.074378799049
 20
144.9065398367594
 70
8
  0
VERTEX
  8
14
 10
-1434.768711231691
 20
130.7894795583209
 70
8
  0
VERTEX
  8
14
 10
-1432.532462758463
 20
116.7122074542276
 70
8
  0
VERTEX
  8
14
 10
-1429.211341256102
 20
102.6848827499178
 70
8
  0
VERTEX
  8
14
 10
-1426.318359375000
 20
93.36609840393066
 70
8
  0
VERTEX
  8
14
 10
-1422.843291409045
 20
84.13322011531540
 70
8
  0
VERTEX
  8
14
 10
-1418.750541598953
 20
75.11010049050695
 70
8
  0
VERTEX
  8
14
 10
-1414.015461648302
 20
66.47694456612318
 70
8
  0
VERTEX
  8
14
 10
-1408.613403260672
 20
58.41395737878207
 70
8
  0
VERTEX
  8
14
 10
-1402.519718139645
 20
51.10134396510156
 70
8
  0
VERTEX
  8
14
 10
-1399.205812961477
 20
47.78274149732713
 70
8
  0
VERTEX
  8
14
 10
-1395.709757988801
 20
44.71930936169960
 70
8
  0
VERTEX
  8
14
 10
-1392.028472184566
 20
41.93357318779613
 70
8
  0
VERTEX
  8
14
 10
-1388.158874511719
 20
39.44805860519409
 70
8
  0
VERTEX
  8
14
 10
-1383.939079475871
 20
37.19565377322859
 70
8
  0
VERTEX
  8
14
 10
-1379.538382263933
 20
35.24830557009420
 70
8
  0
VERTEX
  8
14
 10
-1370.297653983837
 20
32.09446097670104
 70
8
  0
VERTEX
  8
14
 10
-1355.725874443335
 20
28.56213084273353
 70
8
  0
VERTEX
  8
14
 10
-1350.782470703125
 20
27.52995252609253
  0
VERTEX
  8
14
 10
-1363.458251953125
 20
-135.5974006652832
  0
VERTEX
  8
14
 10
-1392.940216064453
 20
-135.8060359954834
 70
8
  0
VERTEX
  8
14
 10
-1436.832413062295
 20
-137.1037670814933
 70
8
  0
VERTEX
  8
14
 10
-1524.589459958465
 20
-140.9128082760610
 70
8
  0
VERTEX
  8
14
 10
-1553.852233886719
 20
-141.5974521636963
 70
8
  0
VERTEX
  8
14
 10
-1598.458251953125
 20
-141.5974521636963
  0
VERTEX
  8
14
 10
-1598.458099365234
 20
-261.5974617004395
  0
VERTEX
  8
14
 10
-1598.457946777344
 20
-381.5974807739258
  0
VERTEX
  8
14
 10
-1658.458099365234
 20
-381.5974426269531
  0
VERTEX
  8
14
 10
-1658.458099365234
 20
-261.5974426269531
  0
VERTEX
  8
14
 10
-1658.458099365234
 20
-141.5974521636963
  0
VERTEX
  8
14
 10
-1658.458251953125
 20
16.91323518753052
  0
VERTEX
  8
14
 10
-1658.458251953125
 20
58.44461441040039
  0
SEQEND
  0
POINT
  8
2
 10
-1658.458404541016
 20
308.4446144104004
  0
TEXT
  8
2
 10
-1658.458404541016
 20
308.4446144104004
 40
8.000000000000000
 50
0.0000000000000000
 51
0.0000000000000000
 71
0
  1
# 1
  0
POINT
  8
2
 10
-1571.362915039063
 20
400.7886886596680
  0
TEXT
  8
2
 10
-1571.362915039063
 20
400.7886886596680
 40
8.000000000000000
 50
0.0000000000000000
 51
0.0000000000000000
 71
0
  1
# 2
  0
POINT
  8
2
 10
-1401.145324707031
 20
348.6532974243164
  0
TEXT
  8
2
 10
-1401.145324707031
 20
348.6532974243164
 40
8.000000000000000
 50
0.0000000000000000
 51
0.0000000000000000
 71
0
  1
# 3
  0
POINT
  8
2
 10
-1426.318359375000
 20
93.36609840393066
  0
TEXT
  8
2
 10
-1426.318359375000
 20
93.36609840393066
 40
8.000000000000000
 50
0.0000000000000000
 51
0.0000000000000000
 71
0
  1
# 4
  0
POINT
  8
2
 10
-1350.782470703125
 20
27.52995252609253
  0
TEXT
  8
2
 10
-1350.782470703125
 20
27.52995252609253
 40
8.000000000000000
 50
0.0000000000000000
 51
0.0000000000000000
 71
0
  1
# 5
  0
POINT
  8
2
 10
-1363.458251953125
 20
-135.5974006652832
  0
TEXT
  8
2
 10
-1363.458251953125
 20
-135.5974006652832
 40
8.000000000000000
 50
0.0000000000000000
 51
0.0000000000000000
 71
0
  1
# 6
  0
POINT
  8
2
 10
-1598.458251953125
 20
-141.5974521636963
  0
TEXT
  8
2
 10
-1598.458251953125
 20
-141.5974521636963
 40
8.000000000000000
 50
0.0000000000000000
 51
0.0000000000000000
 71
0
  1
# 7
  0
POINT
  8
2
 10
-1598.458099365234
 20
-261.5974617004395
  0
TEXT
  8
2
 10
-1598.458099365234
 20
-261.5974617004395
 40
8.000000000000000
 50
0.0000000000000000
 51
0.0000000000000000
 71
0
  1
# 8
  0
POINT
  8
2
 10
-1598.457946777344
 20
-381.5974807739258
  0
TEXT
  8
2
 10
-1598.457946777344
 20
-381.5974807739258
 40
8.000000000000000
 50
0.0000000000000000
 51
0.0000000000000000
 71
0
  1
# 9
  0
POINT
  8
2
 10
-1658.458099365234
 20
-381.5974426269531
  0
TEXT
  8
2
 10
-1658.458099365234
 20
-381.5974426269531
 40
8.000000000000000
 50
0.0000000000000000
 51
0.0000000000000000
 71
0
  1
# 10
  0
POINT
  8
2
 10
-1658.458099365234
 20
-261.5974426269531
  0
TEXT
  8
2
 10
-1658.458099365234
 20
-261.5974426269531
 40
8.000000000000000
 50
0.0000000000000000
 51
0.0000000000000000
 71
0
  1
# 11
  0
POINT
  8
2
 10
-1658.458099365234
 20
-141.5974521636963
  0
TEXT
  8
2
 10
-1658.458099365234
 20
-141.5974521636963
 40
8.000000000000000
 50
0.0000000000000000
 51
0.0000000000000000
 71
0
  1
# 12
  0
POINT
  8
2
 10
-1658.458251953125
 20
16.91323518753052
  0
TEXT
  8
2
 10
-1658.458251953125
 20
16.91323518753052
 40
8.000000000000000
 50
0.0000000000000000
 51
0.0000000000000000
 71
0
  1
# 13
  0
POINT
  8
2
 10
-1658.458251953125
 20
58.44461441040039
  0
TEXT
  8
2
 10
-1658.458251953125
 20
58.44461441040039
 40
8.000000000000000
 50
0.0000000000000000
 51
0.0000000000000000
 71
0
  1
# 14
  0
POINT
  8
2
 10
-1673.458412316834
 20
321.1845098944170
  0
TEXT
  8
2
 10
-1673.458412316834
 20
321.1845098944170
 40
8.000000000000000
 50
0.0000000000000000
 51
0.0000000000000000
 71
0
  1
# 15
  0
POINT
  8
2
 10
-1585.888422451863
 20
405.2376590062763
  0
TEXT
  8
2
 10
-1585.888422451863
 20
405.2376590062763
 40
8.000000000000000
 50
0.0000000000000000
 51
0.0000000000000000
 71
0
  1
# 16
  0
POINT
  8
2
 10
-1581.495553964577
 20
419.5799986499123
  0
TEXT
  8
2
 10
-1581.495553964577
 20
419.5799986499123
 40
8.000000000000000
 50
0.0000000000000000
 51
0.0000000000000000
 71
0
  1
# 17
  0
POINT
  8
2
 10
-1382.404842344936
 20
358.6011531535825
  0
TEXT
  8
2
 10
-1382.404842344936
 20
358.6011531535825
 40
8.000000000000000
 50
0.0000000000000000
 51
0.0000000000000000
 71
0
  1
# 18
  0
POINT
  8
2
 10
-1386.797710832222
 20
344.2588135099464
  0
TEXT
  8
2
 10
-1386.797710832222
 20
344.2588135099464
 40
8.000000000000000
 50
0.0000000000000000
 51
0.0000000000000000
 71
0
  1
# 19
  0
POINT
  8
2
 10
-1412.081877115748
 20
98.17270195173964
  0
TEXT
  8
2
 10
-1412.081877115748
 20
98.17270195173964
 40
8.000000000000000
 50
0.0000000000000000
 51
0.0000000000000000
 71
0
  1
# 20
  0
POINT
  8
2
 10
-1349.611173578779
 20
42.60362695505511
  0
TEXT
  8
2
 10
-1349.611173578779
 20
42.60362695505511
 40
8.000000000000000
 50
0.0000000000000000
 51
0.0000000000000000
 71
0
  1
# 21
  0
POINT
  8
2
 10
-1334.656254819748
 20
41.44155771839799
  0
TEXT
  8
2
 10
-1334.656254819748
 20
41.44155771839799
 40
8.000000000000000
 50
0.0000000000000000
 51
0.0000000000000000
 71
0
  1
# 22
  0
POINT
  8
2
 10
-1349.669191167039
 20
-151.7631467225408
  0
TEXT
  8
2
 10
-1349.669191167039
 20
-151.7631467225408
 40
8.000000000000000
 50
0.0000000000000000
 51
0.0000000000000000
 71
0
  1
# 23
  0
POINT
  8
2
 10
-1364.624109926070
 20
-150.6010774858836
  0
TEXT
  8
2
 10
-1364.624109926070
 20
-150.6010774858836
 40
8.000000000000000
 50
0.0000000000000000
 51
0.0000000000000000
 71
0
  1
# 24
  0
POINT
  8
2
 10
-1583.458232879628
 20
-156.5974521636963
  0
TEXT
  8
2
 10
-1583.458232879628
 20
-156.5974521636963
 40
8.000000000000000
 50
0.0000000000000000
 51
0.0000000000000000
 71
0
  1
# 25
  0
POINT
  8
2
 10
-1583.458099365247
 20
-261.5974426269554
  0
TEXT
  8
2
 10
-1583.458099365247
 20
-261.5974426269554
 40
8.000000000000000
 50
0.0000000000000000
 51
0.0000000000000000
 71
0
  1
# 26
  0
POINT
  8
2
 10
-1583.457927703836
 20
-396.5974903106599
  0
TEXT
  8
2
 10
-1583.457927703836
 20
-396.5974903106599
 40
8.000000000000000
 50
0.0000000000000000
 51
0.0000000000000000
 71
0
  1
# 27
  0
POINT
  8
2
 10
-1673.458099365234
 20
-396.5974330902364
  0
TEXT
  8
2
 10
-1673.458099365234
 20
-396.5974330902364
 40
8.000000000000000
 50
0.0000000000000000
 51
0.0000000000000000
 71
0
  1
# 28
  0
POINT
  8
2
 10
-1673.458099365234
 20
-261.5974426269531
  0
TEXT
  8
2
 10
-1673.458099365234
 20
-261.5974426269531
 40
8.000000000000000
 50
0.0000000000000000
 51
0.0000000000000000
 71
0
  1
# 29
  0
POINT
  8
2
 10
-1673.458099365231
 20
-141.5974593834567
  0
TEXT
  8
2
 10
-1673.458099365231
 20
-141.5974593834567
 40
8.000000000000000
 50
0.0000000000000000
 51
0.0000000000000000
 71
0
  1
# 30
  0
POINT
  8
2
 10
-1673.458251953122
 20
16.91322796777014
  0
TEXT
  8
2
 10
-1673.458251953122
 20
16.91322796777014
 40
8.000000000000000
 50
0.0000000000000000
 51
0.0000000000000000
 71
0
  1
# 31
  0
POINT
  8
2
 10
-1673.458251953124
 20
58.44460983276367
  0
TEXT
  8
2
 10
-1673.458251953124
 20
58.44460983276367
 40
8.000000000000000
 50
0.0000000000000000
 51
0.0000000000000000
 71
0
  1
# 32
  0
POINT
  8
3
 10
-1652.071853411181
 20
324.3849594111984
  0
POINT
  8
3
 10
-1643.576770151064
 20
326.0862515228479
  0
POINT
  8
3
 10
-1635.959621418874
 20
328.0343142056446
  0
POINT
  8
3
 10
-1628.587303481106
 20
330.6924148325542
  0
POINT
  8
3
 10
-1621.654928414967
 20
334.3208570694918
  0
POINT
  8
3
 10
-1618.380627877556
 20
336.4750101554115
  0
POINT
  8
3
 10
-1611.984014929022
 20
341.6040956252274
  0
POINT
  8
3
 10
-1609.029287936124
 20
344.4471151494338
  0
POINT
  8
3
 10
-1603.562173393313
 20
350.7095136765361
  0
POINT
  8
3
 10
-1601.111955301050
 20
354.0704133171770
  0
POINT
  8
3
 10
-1596.965376897127
 20
360.9515765717325
  0
POINT
  8
3
 10
-1595.207912753251
 20
364.5619465756773
  0
POINT
  8
3
 10
-1591.892789325283
 20
373.4746696774997
  0
POINT
  8
3
 10
-1589.524168701335
 20
382.7078416754483
  0
POINT
  8
3
 10
-1587.144546695033
 20
396.1973807628254
  0
POINT
  8
3
 10
-1586.502329269404
 20
400.7154947908994
  0
POINT
  8
3
 10
-1396.666676042935
 20
314.2618564946132
  0
POINT
  8
3
 10
-1403.542652759322
 20
291.0383336499974
  0
POINT
  8
3
 10
-1409.496241433377
 20
267.5636673985206
  0
POINT
  8
3
 10
-1410.556645290471
 20
262.8373484847424
  0
POINT
  8
3
 10
-1415.100369997271
 20
239.3157736208215
  0
POINT
  8
3
 10
-1417.887435872217
 20
220.3554592875734
  0
POINT
  8
3
 10
-1420.292762743994
 20
196.6055306404148
  0
POINT
  8
3
 10
-1421.353449301017
 20
177.5266633935352
  0
POINT
  8
3
 10
-1421.581474211535
 20
159.4102256191802
  0
POINT
  8
3
 10
-1421.074661918681
 20
145.8411607675971
  0
POINT
  8
3
 10
-1420.328494190097
 20
136.8230779504983
  0
POINT
  8
3
 10
-1418.294047298318
 20
122.2967383946579
  0
POINT
  8
3
 10
-1417.362415006049
 20
117.4955656739597
  0
POINT
  8
3
 10
-1414.482101191777
 20
105.8216580105281
  0
POINT
  8
3
 10
-1412.081877115748
 20
98.17270195173964
  0
POINT
  8
3
 10
-1407.893126490356
 20
87.37112456540038
  0
POINT
  8
3
 10
-1406.289874177196
 20
83.85675367725256
  0
POINT
  8
3
 10
-1401.613470285982
 20
75.04995071215794
  0
POINT
  8
3
 10
-1398.953162759840
 20
70.83084296186163
  0
POINT
  8
3
 10
-1393.427017984389
 20
63.53241003876357
  0
POINT
  8
3
 10
-1390.306205661806
 20
60.17934588484718
  0
POINT
  8
3
 10
-1387.257608353701
 20
57.36596875642448
  0
POINT
  8
3
 10
-1383.998470857036
 20
54.80247285423852
  0
POINT
  8
3
 10
-1380.538436422572
 20
52.53220193172783
  0
POINT
  8
3
 10
-1376.999326987171
 20
50.63502559115507
  0
POINT
  8
3
 10
-1369.532960842713
 20
47.62012813421048
  0
POINT
  8
3
 10
-1365.682295352986
 20
46.41581791601464
  0
POINT
  8
3
 10
-1353.646962270950
 20
43.46130758059520
  0
POINT
  8
3
 10
-1392.617382746209
 20
-150.8009952938326
  0
POINT
  8
3
 10
-1436.523517114566
 20
-152.1271551008565
  0
POINT
  8
3
 10
-1524.308827514829
 20
-155.9705676796207
  0
POINT
  8
3
 10
-1553.582474569599
 20
-156.5925992543695
  0
POINT
  8
3
 10
-1578.478519140658
 20
-156.6188349091057
  0
POINT
  8
4
 10
-1658.472005690120
 20
323.3129666001651
 30
4.000000059604641
 50
-89.99495282478050
  0
POINT
  8
4
 10
-1412.081877115748
 20
98.17270195173964
 30
4.000000059604617
 50
-161.1053876057599
  0
POINT
  8
4
 10
-1583.458099365247
 20
-261.5974426269554
 30
4.000000059604752
 50
-179.9999271446573
  0
POINT
  8
4
 10
-1658.458099425193
 20
-396.5974426269554
 30
4.000000059604671
 50
89.99996357241670
  0
POINT
  8
4
 10
-1598.457957894442
 20
-396.5974807739216
 30
4.000000059604671
 50
89.99996357241670
  0
POINT
  8
4
 10
-1673.458099365234
 20
-261.5974426269531
 30
4.000000059604645
 50
-0.0000000000010177
  0
POINT
  8
4
 10
-1673.458246747577
 20
11.50562660005383
 30
4.000000059604602
 50
19.80005515490600
  0
POINT
  8
4
 10
-1673.458099365231
 20
-141.5974593834567
 30
4.000000059604540
 50
0.0000275774523745
  0
POINT
  8
4
 10
-1673.458251953124
 20
58.44460983276367
 30
4.000000059604547
 50
0.0000174852858629
  0
POINT
  8
4
 10
-1658.458404541016
 20
308.4446144104004
 30
4.000000059604548
 50
-89.99973554738361
  0
POINT
  8
4
 10
-1426.318359375000
 20
93.36609840393066
 30
4.000000059604602
 50
-161.1111659987961
  0
POINT
  8
4
 10
-1598.458099365234
 20
-261.5974617004395
 30
4.000000059604752
 50
-179.9999271446573
  0
POINT
  8
4
 10
-1598.457946777344
 20
-381.5974807739258
 30
4.000000059604555
 50
90.00015935767482
  0
POINT
  8
4
 10
-1658.458099365234
 20
-381.5974426269531
 30
4.000000059604575
 50
90.00000085969629
  0
POINT
  8
4
 10
-1658.458099365234
 20
-261.5974426269531
 30
4.000000059604645
 50
0.0000000000000000
  0
POINT
  8
4
 10
-1658.458099365234
 20
-141.5974521636963
 30
4.000000059604540
 50
0.0000275774531379
  0
POINT
  8
4
 10
-1658.458251953125
 20
16.91323518753052
 30
4.000000059604465
 50
19.82460681634523
  0
POINT
  8
4
 10
-1658.458251953125
 20
58.44461441040039
 30
4.000000059604547
 50
0.0000174852843362
  0
POLYLINE
  8
8
 66
1
 70
0
  0
VERTEX
  8
8
 10
-1570.927429199219
 20
37.74602413177490
  0
VERTEX
  8
8
 10
-1512.905883789063
 20
-121.8132591247559
  0
SEQEND
  0
POINT
  8
2
 10
-1570.927429199219
 20
37.74602413177490
  0
TEXT
  8
2
 10
-1570.927429199219
 20
37.74602413177490
 40
8.000000000000000
 50
0.0000000000000000
 51
0.0000000000000000
 71
0
  1
# 33
  0
POINT
  8
2
 10
-1512.905883789063
 20
-121.8132591247559
  0
TEXT
  8
2
 10
-1512.905883789063
 20
-121.8132591247559
 40
8.000000000000000
 50
0.0000000000000000
 51
0.0000000000000000
 71
0
  1
# 34
  0
POLYLINE
  8
8
 66
1
 70
0
  0
VERTEX
  8
8
 10
-1570.927429199219
 20
37.74602413177490
  0
VERTEX
  8
8
 10
-1519.178619384766
 20
56.37462139129639
  0
VERTEX
  8
8
 10
-1461.160125732422
 20
-103.1857490539551
  0
VERTEX
  8
8
 10
-1512.905883789063
 20
-121.8132591247559
  0
SEQEND
  0
POINT
  8
2
 10
-1570.927429199219
 20
37.74602413177490
  0
TEXT
  8
2
 10
-1570.927429199219
 20
37.74602413177490
 40
8.000000000000000
 50
0.0000000000000000
 51
0.0000000000000000
 71
0
  1
# 35
  0
POINT
  8
2
 10
-1519.178619384766
 20
56.37462139129639
  0
TEXT
  8
2
 10
-1519.178619384766
 20
56.37462139129639
 40
8.000000000000000
 50
0.0000000000000000
 51
0.0000000000000000
 71
0
  1
# 36
  0
POINT
  8
2
 10
-1461.160125732422
 20
-103.1857490539551
  0
TEXT
  8
2
 10
-1461.160125732422
 20
-103.1857490539551
 40
8.000000000000000
 50
0.0000000000000000
 51
0.0000000000000000
 71
0
  1
# 37
  0
POINT
  8
2
 10
-1512.905883789063
 20
-121.8132591247559
  0
TEXT
  8
2
 10
-1512.905883789063
 20
-121.8132591247559
 40
8.000000000000000
 50
0.0000000000000000
 51
0.0000000000000000
 71
0
  1
# 38
  0
ENDBLK
  0
BLOCK
  8
1
  2
2
 70
64
 10
0.0
 20
0.0
  0
LINE
  8
7
 10
-849.4708251953125
 20
306.4429092407227
 11
-849.4708251953125
 21
-144.7959518432617
  0
TEXT
  8
1
 10
-847.2708258392561
 20
134.8234501147357
 40
9.999999999999998
 50
270.0000006832453
 51
0.0000000000000000
 71
0
  1
Size: IT38
  0
TEXT
  8
1
 10
-836.2708258392561
 20
134.8234502459094
 40
9.999999999999998
 50
270.0000006832453
 51
0.0000000000000000
 71
0
  1
Piece Name: HATA 1X
  0
TEXT
  8
1
 10
-858.2708258392561
 20
134.8234499835620
 40
9.999999999999998
 50
270.0000006832453
 51
0.0000000000000000
 71
0
  1
Quantity: 1
  0
TEXT
  8
1
 10
-869.2708258392561
 20
134.8234498523883
 40
9.999999999999998
 50
270.0000006832453
 51
0.0000000000000000
 71
0
  1
Material: ALAP
  0
TEXT
  8
1
 10
-880.2708258392561
 20
134.8234497212146
 40
9.999999999999998
 50
270.0000006832453
 51
0.0000000000000000
 71
0
  1
Area: 0.2897 sq.m
  0
POLYLINE
  8
1
 66
1
 70
1
  0
VERTEX
  8
1
 10
-849.4714498253906
 20
-155.7296180725097
  0
VERTEX
  8
1
 10
-912.9349448090715
 20
-155.8540312244065
 70
8
  0
VERTEX
  8
1
 10
-922.6954527676986
 20
-155.7244808960467
 70
8
  0
VERTEX
  8
1
 10
-972.3405886814553
 20
-154.2425460281667
 70
8
  0
VERTEX
  8
1
 10
-1021.977456161344
 20
-152.0526984488244
 70
8
  0
VERTEX
  8
1
 10
-1081.199597762143
 20
-149.8394507865715
 70
8
  0
VERTEX
  8
1
 10
-1120.691936041303
 20
-149.3787950007980
 70
8
  0
VERTEX
  8
1
 10
-1148.310167964273
 20
-149.7126407459397
  0
VERTEX
  8
1
 10
-1163.265081863705
 20
-150.8747725201391
  0
VERTEX
  8
1
 10
-1178.291149156884
 20
42.48844807622199
  0
VERTEX
  8
1
 10
-1163.336235257453
 20
43.65057985042138
  0
VERTEX
  8
1
 10
-1152.689490415397
 20
46.97022257844934
 70
8
  0
VERTEX
  8
1
 10
-1145.289469229335
 20
50.00362438587140
 70
8
  0
VERTEX
  8
1
 10
-1141.787280318898
 20
51.91766243147654
 70
8
  0
VERTEX
  8
1
 10
-1138.075080374302
 20
54.49479862542580
 70
8
  0
VERTEX
  8
1
 10
-1134.681966483617
 20
57.48403489605651
 70
8
  0
VERTEX
  8
1
 10
-1131.474638020987
 20
61.04426832436442
 70
8
  0
VERTEX
  8
1
 10
-1128.649092244623
 20
64.91752772648884
 70
8
  0
VERTEX
  8
1
 10
-1125.064486765927
 20
71.09579839141354
 70
8
  0
VERTEX
  8
1
 10
-1123.522421586021
 20
74.31834025647251
 70
8
  0
VERTEX
  8
1
 10
-1120.664409323862
 20
81.51188475338834
 70
8
  0
VERTEX
  8
1
 10
-1119.447102376318
 20
85.18705382025162
 70
8
  0
VERTEX
  8
1
 10
-1116.058580057615
 20
98.25841029839404
 70
8
  0
VERTEX
  8
1
 10
-1113.728059444084
 20
111.5741800985389
 70
8
  0
VERTEX
  8
1
 10
-1111.677180744435
 20
130.0652336003656
 70
8
  0
VERTEX
  8
1
 10
-1111.006595296115
 20
139.3421236643594
 70
8
  0
VERTEX
  8
1
 10
-1110.025482505070
 20
163.9115917779424
 70
8
  0
VERTEX
  8
1
 10
-1110.065374753034
 20
183.5830283721221
 70
8
  0
VERTEX
  8
1
 10
-1111.072760846972
 20
207.0059542009388
 70
8
  0
VERTEX
  8
1
 10
-1112.538328170250
 20
225.7060275495084
 70
8
  0
VERTEX
  8
1
 10
-1115.720061055402
 20
254.1180918157278
 70
8
  0
VERTEX
  8
1
 10
-1117.709131899453
 20
268.2746718805762
 70
8
  0
VERTEX
  8
1
 10
-1122.521869947011
 20
296.8739541881612
 70
8
  0
VERTEX
  8
1
 10
-1125.320562058974
 20
311.1007678431581
 70
8
  0
VERTEX
  8
1
 10
-1132.713317091392
 20
344.0622790712289
 70
8
  0
VERTEX
  8
1
 10
-1137.230409416467
 20
362.8340529848899
  0
VERTEX
  8
1
 10
-1141.623282403297
 20
377.1763912503742
  0
VERTEX
  8
1
 10
-936.2979118404023
 20
440.0649005827248
  0
VERTEX
  8
1
 10
-931.9050388535720
 20
425.7225623172405
  0
VERTEX
  8
1
 10
-927.5496524805271
 20
419.5862562579946
 70
8
  0
VERTEX
  8
1
 10
-923.1938249708585
 20
414.4026030127684
 70
8
  0
VERTEX
  8
1
 10
-920.7472756389440
 20
412.0718225974626
 70
8
  0
VERTEX
  8
1
 10
-915.6527405244892
 20
408.4408409936396
 70
8
  0
VERTEX
  8
1
 10
-909.7763913220758
 20
405.6758712292960
 70
8
  0
VERTEX
  8
1
 10
-901.8814479515100
 20
403.2689477004366
 70
8
  0
VERTEX
  8
1
 10
-893.7481644112008
 20
401.7483655813753
 70
8
  0
VERTEX
  8
1
 10
-884.1505589438788
 20
400.7081733682271
 70
8
  0
VERTEX
  8
1
 10
-869.6863919559876
 20
400.1259915094319
 70
8
  0
VERTEX
  8
1
 10
-855.2003684439806
 20
400.0964671105619
 70
8
  0
VERTEX
  8
1
 10
-849.4483042028952
 20
400.0943001455205
  0
SEQEND
  0
POLYLINE
  8
14
 66
1
 70
1
  0
VERTEX
  8
14
 10
-849.4708251953125
 20
-140.7296180725098
  0
VERTEX
  8
14
 10
-912.6934045009450
 20
-140.8586127123291
 70
8
  0
VERTEX
  8
14
 10
-922.4179077148438
 20
-140.7296180725098
 70
8
  0
VERTEX
  8
14
 10
-971.9630889701548
 20
-139.2473333995145
 70
8
  0
VERTEX
  8
14
 10
-1066.078252125950
 20
-135.2770855243289
 70
8
  0
VERTEX
  8
14
 10
-1105.713239300658
 20
-134.4212650214645
 70
8
  0
VERTEX
  8
14
 10
-1120.579452514648
 20
-134.3820762634277
 70
8
  0
VERTEX
  8
14
 10
-1149.474487304688
 20
-134.7295761108398
  0
VERTEX
  8
14
 10
-1162.150955200195
 20
28.39778184890747
  0
VERTEX
  8
14
 10
-1149.437140926868
 20
32.20409392258050
 70
8
  0
VERTEX
  8
14
 10
-1141.380238722627
 20
35.23362771752854
 70
8
  0
VERTEX
  8
14
 10
-1133.951797485352
 20
39.00115013122559
 70
8
  0
VERTEX
  8
14
 10
-1130.137549086104
 20
41.54162351424318
 70
8
  0
VERTEX
  8
14
 10
-1126.590963314690
 20
44.39051273856364
 70
8
  0
VERTEX
  8
14
 10
-1123.301750422112
 20
47.52983996086207
 70
8
  0
VERTEX
  8
14
 10
-1120.259620659378
 20
50.94162733781354
 70
8
  0
VERTEX
  8
14
 10
-1117.454284277493
 20
54.60789702609318
 70
8
  0
VERTEX
  8
14
 10
-1112.512832660287
 20
62.63197196333729
 70
8
  0
VERTEX
  8
14
 10
-1108.395077578537
 20
71.45824202599518
 70
8
  0
VERTEX
  8
14
 10
-1105.018701040285
 20
80.94288446746758
 70
8
  0
VERTEX
  8
14
 10
-1102.301385053573
 20
90.94207654115530
 70
8
  0
VERTEX
  8
14
 10
-1099.281079000233
 20
106.5910329539048
 70
8
  0
VERTEX
  8
14
 10
-1097.280620483094
 20
122.5887230895180
 70
8
  0
VERTEX
  8
14
 10
-1096.022186279297
 20
138.4497451782227
 70
8
  0
VERTEX
  8
14
 10
-1095.004119833344
 20
164.1667076841354
 70
8
  0
VERTEX
  8
14
 10
-1095.179889088811
 20
188.7067507954307
 70
8
  0
VERTEX
  8
14
 10
-1096.408139191498
 20
212.6822265371323
 70
8
  0
VERTEX
  8
14
 10
-1097.591476440430
 20
227.0512580871582
 70
8
  0
VERTEX
  8
14
 10
-1100.826316838854
 20
255.9369255740262
 70
8
  0
VERTEX
  8
14
 10
-1105.185151544104
 20
285.0674002222792
 70
8
  0
VERTEX
  8
14
 10
-1110.618133544922
 20
314.0976715087891
 70
8
  0
VERTEX
  8
14
 10
-1118.224134190816
 20
347.9929983106218
 70
8
  0
VERTEX
  8
14
 10
-1122.862854003906
 20
367.2346496582031
  0
VERTEX
  8
14
 10
-946.8527984619141
 20
421.1442565917969
  0
VERTEX
  8
14
 10
-939.3326623451565
 20
410.2516132405279
 70
8
  0
VERTEX
  8
14
 10
-933.8077808464652
 20
403.7015552084122
 70
8
  0
VERTEX
  8
14
 10
-930.7768249511719
 20
400.8001708984375
 70
8
  0
VERTEX
  8
14
 10
-927.1481370123968
 20
397.9362785379223
 70
8
  0
VERTEX
  8
14
 10
-923.2598816489776
 20
395.4426883737103
 70
8
  0
VERTEX
  8
14
 10
-919.1369779994977
 20
393.2938333191017
 70
8
  0
VERTEX
  8
14
 10
-914.8043452025398
 20
391.4641462873969
 70
8
  0
VERTEX
  8
14
 10
-910.2869023966875
 20
389.9280601918963
 70
8
  0
VERTEX
  8
14
 10
-900.7972633126326
 20
387.6344224627093
 70
8
  0
VERTEX
  8
14
 10
-890.8674138559984
 20
386.2083834379430
 70
8
  0
VERTEX
  8
14
 10
-875.5833301476672
 20
385.2486484543388
 70
8
  0
VERTEX
  8
14
 10
-855.5244445800781
 20
385.0965881347656
 70
8
  0
VERTEX
  8
14
 10
-849.4489288330078
 20
385.0942993164063
  0
SEQEND
  0
POINT
  8
2
 10
-849.4708251953125
 20
-140.7296180725098
  0
TEXT
  8
2
 10
-849.4708251953125
 20
-140.7296180725098
 40
8.000000000000000
 50
0.0000000000000000
 51
0.0000000000000000
 71
0
  1
# 39
  0
POINT
  8
2
 10
-1149.474487304688
 20
-134.7295761108398
  0
TEXT
  8
2
 10
-1149.474487304688
 20
-134.7295761108398
 40
8.000000000000000
 50
0.0000000000000000
 51
0.0000000000000000
 71
0
  1
# 40
  0
POINT
  8
2
 10
-1162.150955200195
 20
28.39778184890747
  0
TEXT
  8
2
 10
-1162.150955200195
 20
28.39778184890747
 40
8.000000000000000
 50
0.0000000000000000
 51
0.0000000000000000
 71
0
  1
# 41
  0
POINT
  8
2
 10
-1096.022186279297
 20
138.4497451782227
  0
TEXT
  8
2
 10
-1096.022186279297
 20
138.4497451782227
 40
8.000000000000000
 50
0.0000000000000000
 51
0.0000000000000000
 71
0
  1
# 42
  0
POINT
  8
2
 10
-1122.862854003906
 20
367.2346496582031
  0
TEXT
  8
2
 10
-1122.862854003906
 20
367.2346496582031
 40
8.000000000000000
 50
0.0000000000000000
 51
0.0000000000000000
 71
0
  1
# 43
  0
POINT
  8
2
 10
-946.8527984619141
 20
421.1442565917969
  0
TEXT
  8
2
 10
-946.8527984619141
 20
421.1442565917969
 40
8.000000000000000
 50
0.0000000000000000
 51
0.0000000000000000
 71
0
  1
# 44
  0
POINT
  8
2
 10
-849.4489288330078
 20
385.0942993164063
  0
TEXT
  8
2
 10
-849.4489288330078
 20
385.0942993164063
 40
8.000000000000000
 50
0.0000000000000000
 51
0.0000000000000000
 71
0
  1
# 45
  0
POINT
  8
2
 10
-849.4714498253906
 20
-155.7296180725097
  0
TEXT
  8
2
 10
-849.4714498253906
 20
-155.7296180725097
 40
8.000000000000000
 50
0.0000000000000000
 51
0.0000000000000000
 71
0
  1
# 46
  0
POINT
  8
2
 10
-1148.310167964273
 20
-149.7126407459397
  0
TEXT
  8
2
 10
-1148.310167964273
 20
-149.7126407459397
 40
8.000000000000000
 50
0.0000000000000000
 51
0.0000000000000000
 71
0
  1
# 47
  0
POINT
  8
2
 10
-1163.265081863705
 20
-150.8747725201391
  0
TEXT
  8
2
 10
-1163.265081863705
 20
-150.8747725201391
 40
8.000000000000000
 50
0.0000000000000000
 51
0.0000000000000000
 71
0
  1
# 48
  0
POINT
  8
2
 10
-1178.291149156884
 20
42.48844807622199
  0
TEXT
  8
2
 10
-1178.291149156884
 20
42.48844807622199
 40
8.000000000000000
 50
0.0000000000000000
 51
0.0000000000000000
 71
0
  1
# 49
  0
POINT
  8
2
 10
-1163.336235257453
 20
43.65057985042138
  0
TEXT
  8
2
 10
-1163.336235257453
 20
43.65057985042138
 40
8.000000000000000
 50
0.0000000000000000
 51
0.0000000000000000
 71
0
  1
# 50
  0
POINT
  8
2
 10
-1111.006595296115
 20
139.3421236643594
  0
TEXT
  8
2
 10
-1111.006595296115
 20
139.3421236643594
 40
8.000000000000000
 50
0.0000000000000000
 51
0.0000000000000000
 71
0
  1
# 51
  0
POINT
  8
2
 10
-1137.230409416467
 20
362.8340529848899
  0
TEXT
  8
2
 10
-1137.230409416467
 20
362.8340529848899
 40
8.000000000000000
 50
0.0000000000000000
 51
0.0000000000000000
 71
0
  1
# 52
  0
POINT
  8
2
 10
-1141.623282403297
 20
377.1763912503742
  0
TEXT
  8
2
 10
-1141.623282403297
 20
377.1763912503742
 40
8.000000000000000
 50
0.0000000000000000
 51
0.0000000000000000
 71
0
  1
# 53
  0
POINT
  8
2
 10
-936.2979118404023
 20
440.0649005827248
  0
TEXT
  8
2
 10
-936.2979118404023
 20
440.0649005827248
 40
8.000000000000000
 50
0.0000000000000000
 51
0.0000000000000000
 71
0
  1
# 54
  0
POINT
  8
2
 10
-931.9050388535720
 20
425.7225623172405
  0
TEXT
  8
2
 10
-931.9050388535720
 20
425.7225623172405
 40
8.000000000000000
 50
0.0000000000000000
 51
0.0000000000000000
 71
0
  1
# 55
  0
POINT
  8
2
 10
-849.4483042028952
 20
400.0943001455205
  0
TEXT
  8
2
 10
-849.4483042028952
 20
400.0943001455205
 40
8.000000000000000
 50
0.0000000000000000
 51
0.0000000000000000
 71
0
  1
# 56
  0
POINT
  8
3
 10
-912.9349448090715
 20
-155.8540312244065
  0
POINT
  8
3
 10
-922.6954527676986
 20
-155.7244808960467
  0
POINT
  8
3
 10
-972.3405886814553
 20
-154.2425460281667
  0
POINT
  8
3
 10
-1021.977456161344
 20
-152.0526984488244
  0
POINT
  8
3
 10
-1081.199597762143
 20
-149.8394507865715
  0
POINT
  8
3
 10
-1120.691936041303
 20
-149.3787950007980
  0
POINT
  8
3
 10
-1143.707044200752
 20
-149.6386076102190
  0
POINT
  8
3
 10
-1152.689490415397
 20
46.97022257844934
  0
POINT
  8
3
 10
-1145.289469229335
 20
50.00362438587140
  0
POINT
  8
3
 10
-1141.787280318898
 20
51.91766243147654
  0
POINT
  8
3
 10
-1138.075080374302
 20
54.49479862542580
  0
POINT
  8
3
 10
-1134.681966483617
 20
57.48403489605651
  0
POINT
  8
3
 10
-1131.474638020987
 20
61.04426832436442
  0
POINT
  8
3
 10
-1128.649092244623
 20
64.91752772648884
  0
POINT
  8
3
 10
-1125.064486765927
 20
71.09579839141354
  0
POINT
  8
3
 10
-1123.522421586021
 20
74.31834025647251
  0
POINT
  8
3
 10
-1120.664409323862
 20
81.51188475338834
  0
POINT
  8
3
 10
-1119.447102376318
 20
85.18705382025162
  0
POINT
  8
3
 10
-1116.058580057615
 20
98.25841029839404
  0
POINT
  8
3
 10
-1113.728059444084
 20
111.5741800985389
  0
POINT
  8
3
 10
-1111.677180744435
 20
130.0652336003656
  0
POINT
  8
3
 10
-1111.006595296115
 20
139.3421236643594
  0
POINT
  8
3
 10
-1110.025482505070
 20
163.9115917779424
  0
POINT
  8
3
 10
-1110.065374753034
 20
183.5830283721221
  0
POINT
  8
3
 10
-1111.072760846972
 20
207.0059542009388
  0
POINT
  8
3
 10
-1112.538328170250
 20
225.7060275495084
  0
POINT
  8
3
 10
-1115.720061055402
 20
254.1180918157278
  0
POINT
  8
3
 10
-1117.709131899453
 20
268.2746718805762
  0
POINT
  8
3
 10
-1122.521869947011
 20
296.8739541881612
  0
POINT
  8
3
 10
-1125.320562058974
 20
311.1007678431581
  0
POINT
  8
3
 10
-1132.713317091392
 20
344.0622790712289
  0
POINT
  8
3
 10
-1136.094484951607
 20
358.1425498555546
  0
POINT
  8
3
 10
-927.5496524805271
 20
419.5862562579946
  0
POINT
  8
3
 10
-923.1938249708585
 20
414.4026030127684
  0
POINT
  8
3
 10
-920.7472756389440
 20
412.0718225974626
  0
POINT
  8
3
 10
-915.6527405244892
 20
408.4408409936396
  0
POINT
  8
3
 10
-909.7763913220758
 20
405.6758712292960
  0
POINT
  8
3
 10
-901.8814479515100
 20
403.2689477004366
  0
POINT
  8
3
 10
-893.7481644112008
 20
401.7483655813753
  0
POINT
  8
3
 10
-884.1505589438788
 20
400.7081733682271
  0
POINT
  8
3
 10
-869.6863919559876
 20
400.1259915094319
  0
POINT
  8
3
 10
-855.2003684439806
 20
400.0964671105619
  0
POINT
  8
4
 10
-849.4714498253906
 20
-155.7296180725097
 30
4.000000059604652
 50
89.99761408885264
  0
POINT
  8
4
 10
-1111.006595296115
 20
139.3421236643594
 30
4.000000059604675
 50
-3.587677440084994
  0
POINT
  8
4
 10
-849.4483042028952
 20
400.0943001455205
  0
POINT
  8
4
 10
-849.4708251953125
 20
-140.7296180725098
 30
4.000000059604652
 50
89.99761408885264
  0
POINT
  8
4
 10
-1096.022186279297
 20
138.4497451782227
 30
4.000000059604709
 50
-3.587650741692148
  0
POINT
  8
4
 10
-849.4489288330078
 20
385.0942993164063
  0
LINE
  8
6
 10
-849.4714498253906
 20
-155.7296180725097
 11
-849.4483042028952
 21
400.0943001455205
  0
ENDBLK
  0
BLOCK
  8
1
  2
3
 70
64
 10
0.0
 20
0.0
  0
LINE
  8
7
 10
-164.8719406127930
 20
282.1276283264160
 11
-164.8719406127930
 21
-35.20242929458618
  0
TEXT
  8
1
 10
-161.8573058144136
 20
201.5690814616160
 40
13.70288968086242
 50
270.0000006832453
 51
0.0000000000000000
 71
0
  1
Size: IT38
  0
TEXT
  8
1
 10
-146.7841271654649
 20
201.5690816413618
 40
13.70288968086242
 50
270.0000006832453
 51
0.0000000000000000
 71
0
  1
Piece Name: UJJA  2X
  0
TEXT
  8
1
 10
-176.9304844633622
 20
201.5690812818701
 40
13.70288968086242
 50
270.0000006832453
 51
0.0000000000000000
 71
0
  1
Quantity: 2
  0
TEXT
  8
1
 10
-192.0036631123109
 20
201.5690811021243
 40
13.70288968086242
 50
270.0000006832453
 51
0.0000000000000000
 71
0
  1
Material: ALAP
  0
TEXT
  8
1
 10
-207.0768417612595
 20
201.5690809223784
 40
13.70288968086242
 50
270.0000006832453
 51
0.0000000000000000
 71
0
  1
Area: 0.2827 sq.m
  0
POLYLINE
  8
1
 66
1
 70
1
  0
VERTEX
  8
1
 10
-468.8878848732099
 20
-160.3603846446499
  0
VERTEX
  8
1
 10
-492.3639650505501
 20
-83.31954872082464
  0
VERTEX
  8
1
 10
-495.7481937649488
 20
218.1381748913340
  0
VERTEX
  8
1
 10
-471.6705268582460
 20
222.2382202955891
 70
8
  0
VERTEX
  8
1
 10
-457.3327632979710
 20
225.3954955150899
 70
8
  0
VERTEX
  8
1
 10
-448.0824950157642
 20
227.9836187900618
 70
8
  0
VERTEX
  8
1
 10
-439.0847493885480
 20
231.2617826084295
 70
8
  0
VERTEX
  8
1
 10
-434.7394299368781
 20
233.2467813674484
 70
8
  0
VERTEX
  8
1
 10
-426.8683534835779
 20
237.7117239167576
 70
8
  0
VERTEX
  8
1
 10
-419.4389268804781
 20
242.9345991523808
 70
8
  0
VERTEX
  8
1
 10
-415.8781393227623
 20
245.7569838670334
 70
8
  0
VERTEX
  8
1
 10
-404.9103863575972
 20
255.5655319281936
 70
8
  0
VERTEX
  8
1
 10
-397.9596736542907
 20
262.4748049584484
 70
8
  0
VERTEX
  8
1
 10
-378.3136683360524
 20
283.4574175761080
 70
8
  0
VERTEX
  8
1
 10
-365.4356251014138
 20
297.6671636732691
 70
8
  0
VERTEX
  8
1
 10
-345.2364263702406
 20
319.1778535169636
 70
8
  0
VERTEX
  8
1
 10
-331.1261844135766
 20
332.8638068897818
 70
8
  0
VERTEX
  8
1
 10
-317.0440321799734
 20
345.0758019121415
 70
8
  0
VERTEX
  8
1
 10
-302.2658336869986
 20
356.4467036500331
 70
8
  0
VERTEX
  8
1
 10
-290.6129499555053
 20
364.4651513254931
 70
8
  0
VERTEX
  8
1
 10
-278.5839176770713
 20
371.9048986342241
 70
8
  0
VERTEX
  8
1
 10
-270.3564184932969
 20
376.5158395869162
 70
8
  0
VERTEX
  8
1
 10
-257.8100876455030
 20
382.8171471372519
 70
8
  0
VERTEX
  8
1
 10
-244.9241172707286
 20
388.3843945628766
 70
8
  0
VERTEX
  8
1
 10
-236.1585274987006
 20
391.6517896132901
 70
8
  0
VERTEX
  8
1
 10
-222.4225233914726
 20
395.9304470471440
 70
8
  0
VERTEX
  8
1
 10
-217.7825739136157
 20
397.1454387928106
 70
8
  0
VERTEX
  8
1
 10
-203.8002809269306
 20
400.0996427904476
 70
8
  0
VERTEX
  8
1
 10
-199.0955835215639
 20
400.8496402224047
 70
8
  0
VERTEX
  8
1
 10
-185.1310565925957
 20
402.3663976759898
 70
8
  0
VERTEX
  8
1
 10
-171.0887703634249
 20
402.9568120441269
 70
8
  0
VERTEX
  8
1
 10
-156.5841321039792
 20
402.7271231506217
 70
8
  0
VERTEX
  8
1
 10
-142.1198780961683
 20
401.6686799383858
 70
8
  0
VERTEX
  8
1
 10
-127.6706724981848
 20
399.7647693388708
 70
8
  0
VERTEX
  8
1
 10
-113.3600907532759
 20
397.0026061602514
 70
8
  0
VERTEX
  8
1
 10
-99.21140891849421
 20
393.3534560328989
 70
8
  0
VERTEX
  8
1
 10
-85.32509329678449
 20
388.8042323187208
 70
8
  0
VERTEX
  8
1
 10
-71.71077919811147
 20
383.3084403077291
 70
8
  0
VERTEX
  8
1
 10
-58.52289639099926
 20
376.8630373158721
 70
8
  0
VERTEX
  8
1
 10
-46.26950208427347
 20
369.7412456030671
 70
8
  0
VERTEX
  8
1
 10
-34.49904275119617
 20
361.8309678241446
 70
8
  0
VERTEX
  8
1
 10
-26.91860777414513
 20
356.1773379902861
 70
8
  0
VERTEX
  8
1
 10
-16.07913998075066
 20
347.3284270073054
 70
8
  0
VERTEX
  8
1
 10
-2.288561971866140
 20
334.7766937246403
 70
8
  0
VERTEX
  8
1
 10
1.049549291029483
 20
331.5250354570896
 70
8
  0
VERTEX
  8
1
 10
17.62812810574634
 20
314.3372562154080
 70
8
  0
VERTEX
  8
1
 10
40.29946325409562
 20
289.7178513810371
 70
8
  0
VERTEX
  8
1
 10
56.89821335534950
 20
272.6856196875702
 70
8
  0
VERTEX
  8
1
 10
70.89992912797889
 20
259.8381020296669
 70
8
  0
VERTEX
  8
1
 10
74.53490230861109
 20
256.7796218281915
 70
8
  0
VERTEX
  8
1
 10
85.03501876620520
 20
248.6496296962420
 70
8
  0
VERTEX
  8
1
 10
92.34805169224521
 20
243.6522086866656
 70
8
  0
VERTEX
  8
1
 10
103.5781820676885
 20
237.0956733996144
 70
8
  0
VERTEX
  8
1
 10
111.3876106137387
 20
233.3479683571929
 70
8
  0
VERTEX
  8
1
 10
123.6430725511609
 20
228.6875883667297
 70
8
  0
VERTEX
  8
1
 10
131.9968132039267
 20
226.0769506285450
 70
8
  0
VERTEX
  8
1
 10
153.1820729019497
 20
220.4173616860169
 70
8
  0
VERTEX
  8
1
 10
165.9672417878818
 20
217.3264395371567
  0
VERTEX
  8
1
 10
162.5921535607869
 20
-83.31796548797882
  0
VERTEX
  8
1
 10
139.1246164358548
 20
-160.3397111781296
  0
VERTEX
  8
1
 10
130.0236335668148
 20
-157.7231521284457
 70
8
  0
VERTEX
  8
1
 10
125.4673519587696
 20
-156.7610022093653
 70
8
  0
VERTEX
  8
1
 10
120.9041221424943
 20
-156.2142078171989
 70
8
  0
VERTEX
  8
1
 10
116.3316280485788
 20
-156.2212207942509
 70
8
  0
VERTEX
  8
1
 10
112.1364168078630
 20
-156.7819038351473
 70
8
  0
VERTEX
  8
1
 10
107.9720282741331
 20
-157.7272470465316
 70
8
  0
VERTEX
  8
1
 10
98.66225837052883
 20
-160.6085541435069
 70
8
  0
VERTEX
  8
1
 10
85.07206937659757
 20
-165.9138352943058
  0
VERTEX
  8
1
 10
66.96082270397002
 20
-159.1671422694146
 70
8
  0
VERTEX
  8
1
 10
62.28932338940334
 20
-157.7240960210601
 70
8
  0
VERTEX
  8
1
 10
58.13407871612425
 20
-156.6701142571865
 70
8
  0
VERTEX
  8
1
 10
53.95121798457765
 20
-156.2208372870673
 70
8
  0
VERTEX
  8
1
 10
49.69314316496678
 20
-156.7048816108799
 70
8
  0
VERTEX
  8
1
 10
45.44448335180724
 20
-157.7536156084511
  0
VERTEX
  8
1
 10
22.60253212424952
 20
-165.9065563254460
  0
VERTEX
  8
1
 10
-0.2499283737727039
 20
-157.7447510259231
  0
VERTEX
  8
1
 10
-4.467020096819068
 20
-156.6963421703732
 70
8
  0
VERTEX
  8
1
 10
-8.683649873540270
 20
-156.2234395601165
 70
8
  0
VERTEX
  8
1
 10
-12.86323390148666
 20
-156.7014379114378
 70
8
  0
VERTEX
  8
1
 10
-17.04236389935696
 20
-157.7450802133835
  0
VERTEX
  8
1
 10
-39.89594178637805
 20
-165.9071004351165
  0
VERTEX
  8
1
 10
-62.74992686285329
 20
-157.7447510137472
  0
VERTEX
  8
1
 10
-66.96701832156495
 20
-156.6963422350749
 70
8
  0
VERTEX
  8
1
 10
-71.18364784761310
 20
-156.2234395304924
 70
8
  0
VERTEX
  8
1
 10
-75.36323315192058
 20
-156.7014378479255
 70
8
  0
VERTEX
  8
1
 10
-79.54236443925303
 20
-157.7450803544052
  0
VERTEX
  8
1
 10
-102.3959441707564
 20
-165.9071002086313
  0
VERTEX
  8
1
 10
-125.2499303742856
 20
-157.7447514103836
  0
VERTEX
  8
1
 10
-129.4670264828370
 20
-156.6963418757185
 70
8
  0
VERTEX
  8
1
 10
-133.6836605992543
 20
-156.2234394373792
 70
8
  0
VERTEX
  8
1
 10
-137.8632428971623
 20
-156.7014380060432
 70
8
  0
VERTEX
  8
1
 10
-142.0423711212649
 20
-157.7450797492474
  0
VERTEX
  8
1
 10
-164.8958304123732
 20
-165.9070647988889
  0
VERTEX
  8
1
 10
-187.7499699844643
 20
-157.7449902473755
  0
VERTEX
  8
1
 10
-191.9690780272663
 20
-156.6968819883798
 70
8
  0
VERTEX
  8
1
 10
-196.1878847052138
 20
-156.2227353111009
 70
8
  0
VERTEX
  8
1
 10
-200.3848074184932
 20
-156.7003333970379
 70
8
  0
VERTEX
  8
1
 10
-204.5814318144643
 20
-157.7460888894051
  0
VERTEX
  8
1
 10
-227.3897804768559
 20
-165.9085781672712
  0
VERTEX
  8
1
 10
-250.2504839941755
 20
-157.7470894298000
  0
VERTEX
  8
1
 10
-254.4680933228001
 20
-156.6973898328621
 70
8
  0
VERTEX
  8
1
 10
-258.6853026489353
 20
-156.2237289109249
 70
8
  0
VERTEX
  8
1
 10
-262.8640435936092
 20
-156.7015061664873
 70
8
  0
VERTEX
  8
1
 10
-267.0423916763229
 20
-157.7450391086783
  0
VERTEX
  8
1
 10
-289.8959143343605
 20
-165.9071083643644
  0
VERTEX
  8
1
 10
-312.7499096003685
 20
-157.7447522268257
  0
VERTEX
  8
1
 10
-316.9670183712931
 20
-156.6963408393602
 70
8
  0
VERTEX
  8
1
 10
-321.1836649522061
 20
-156.2234392524493
 70
8
  0
VERTEX
  8
1
 10
-325.3632411991810
 20
-156.7014390064999
 70
8
  0
VERTEX
  8
1
 10
-329.5423631817955
 20
-157.7450796981165
  0
VERTEX
  8
1
 10
-352.3947074595408
 20
-165.9066542126071
  0
VERTEX
  8
1
 10
-375.2486106198316
 20
-157.7483715523663
  0
VERTEX
  8
1
 10
-379.4695011290466
 20
-156.7050679859504
 70
8
  0
VERTEX
  8
1
 10
-383.6996847765934
 20
-156.2213601836866
 70
8
  0
VERTEX
  8
1
 10
-387.8954481559176
 20
-156.6709008468806
 70
8
  0
VERTEX
  8
1
 10
-392.0642758067115
 20
-157.7284644148085
 70
8
  0
VERTEX
  8
1
 10
-405.9638169016392
 20
-162.4189881088366
 70
8
  0
VERTEX
  8
1
 10
-415.0091147141354
 20
-165.9135609071115
  0
VERTEX
  8
1
 10
-428.4974075866828
 20
-160.6000965490599
 70
8
  0
VERTEX
  8
1
 10
-437.7433637740671
 20
-157.7262091057085
 70
8
  0
VERTEX
  8
1
 10
-441.9405370906802
 20
-156.7771307850432
 70
8
  0
VERTEX
  8
1
 10
-446.1694440472215
 20
-156.2212495770009
 70
8
  0
VERTEX
  8
1
 10
-450.7287294352741
 20
-156.2248054956437
 70
8
  0
VERTEX
  8
1
 10
-455.2776166747566
 20
-156.7778754775446
 70
8
  0
VERTEX
  8
1
 10
-464.3545948565821
 20
-158.9830435678622
 70
8
  0
SEQEND
  0
POLYLINE
  8
14
 66
1
 70
1
  0
VERTEX
  8
14
 10
-458.4334182739258
 20
-143.2087326049805
  0
VERTEX
  8
14
 10
-477.3890304565430
 20
-81.00259780883789
  0
VERTEX
  8
14
 10
-480.6079864501953
 20
205.7330894470215
  0
VERTEX
  8
14
 10
-460.7640163452651
 20
209.2516635672818
 70
8
  0
VERTEX
  8
14
 10
-446.2789564551384
 20
212.7486828346932
 70
8
  0
VERTEX
  8
14
 10
-436.9667673410029
 20
215.8229629326352
 70
8
  0
VERTEX
  8
14
 10
-428.0266571044922
 20
219.6996116638184
 70
8
  0
VERTEX
  8
14
 10
-419.9026159719502
 20
224.2584346725546
 70
8
  0
VERTEX
  8
14
 10
-412.1496565620675
 20
229.5629958693768
 70
8
  0
VERTEX
  8
14
 10
-401.1226376256105
 20
238.5975997230925
 70
8
  0
VERTEX
  8
14
 10
-390.6904890038310
 20
248.4859792435419
 70
8
  0
VERTEX
  8
14
 10
-387.3204040527344
 20
251.8863677978516
 70
8
  0
VERTEX
  8
14
 10
-367.4531415941513
 20
273.0980243284710
 70
8
  0
VERTEX
  8
14
 10
-341.5304650235408
 20
301.4233722917115
 70
8
  0
VERTEX
  8
14
 10
-328.0222819077650
 20
315.1342803643520
 70
8
  0
VERTEX
  8
14
 10
-320.9778976440430
 20
321.7853546142578
 70
8
  0
VERTEX
  8
14
 10
-309.5693102850283
 20
331.7560791423571
 70
8
  0
VERTEX
  8
14
 10
-297.6000892536208
 20
341.2189232579362
 70
8
  0
VERTEX
  8
14
 10
-285.1162246059889
 20
350.0777947553646
 70
8
  0
VERTEX
  8
14
 10
-272.1637063983013
 20
358.2366014290118
 70
8
  0
VERTEX
  8
14
 10
-258.7885246867262
 20
365.5992510732472
 70
8
  0
VERTEX
  8
14
 10
-245.0366695274324
 20
372.0696514824400
 70
8
  0
VERTEX
  8
14
 10
-230.9541309765882
 20
377.5517104509599
 70
8
  0
VERTEX
  8
14
 10
-216.5868990903621
 20
381.9493357731762
 70
8
  0
VERTEX
  8
14
 10
-201.9809639249229
 20
385.1664352434583
 70
8
  0
VERTEX
  8
14
 10
-197.0672225952148
 20
385.9598541259766
 70
8
  0
VERTEX
  8
14
 10
-184.0190382969047
 20
387.3800954634542
 70
8
  0
VERTEX
  8
14
 10
-170.8584213256836
 20
387.9317474365234
 70
8
  0
VERTEX
  8
14
 10
-156.0308517780577
 20
387.6582515321787
 70
8
  0
VERTEX
  8
14
 10
-141.1887257004743
 20
386.4569076096016
 70
8
  0
VERTEX
  8
14
 10
-126.4275734156191
 20
384.3100976548966
 70
8
  0
VERTEX
  8
14
 10
-111.8429252461778
 20
381.2002036541686
 70
8
  0
VERTEX
  8
14
 10
-97.53031151483574
 20
377.1096075935224
 70
8
  0
VERTEX
  8
14
 10
-83.58526254427879
 20
372.0206914590622
 70
8
  0
VERTEX
  8
14
 10
-70.10330865719244
 20
365.9158372368933
 70
8
  0
VERTEX
  8
14
 10
-65.72874546051025
 20
363.6520767211914
 70
8
  0
VERTEX
  8
14
 10
-53.45938148210200
 20
356.4883569314612
 70
8
  0
VERTEX
  8
14
 10
-41.71450059594514
 20
348.4885121800287
 70
8
  0
VERTEX
  8
14
 10
-30.47151947815195
 20
339.7794430339105
 70
8
  0
VERTEX
  8
14
 10
-19.70785480483473
 20
330.4880500601234
 70
8
  0
VERTEX
  8
14
 10
-9.400923252105699
 20
320.7412338256836
 70
8
  0
VERTEX
  8
14
 10
7.047830357704634
 20
303.6958808146255
 70
8
  0
VERTEX
  8
14
 10
29.62475299835205
 20
279.1728973388672
 70
8
  0
VERTEX
  8
14
 10
46.70354014764995
 20
261.6666727506169
 70
8
  0
VERTEX
  8
14
 10
57.44484452232813
 20
251.6453075450432
 70
8
  0
VERTEX
  8
14
 10
68.62101134157814
 20
242.2286646490624
 70
8
  0
VERTEX
  8
14
 10
80.28468109873872
 20
233.6155173664513
 70
8
  0
VERTEX
  8
14
 10
92.48849428714864
 20
226.0046390009867
 70
8
  0
VERTEX
  8
14
 10
100.9504447354683
 20
221.5856958119444
 70
8
  0
VERTEX
  8
14
 10
105.2850914001465
 20
219.5948028564453
 70
8
  0
VERTEX
  8
14
 10
118.5331933221625
 20
214.5318115686578
 70
8
  0
VERTEX
  8
14
 10
132.2230569915592
 20
210.4269261954066
 70
8
  0
VERTEX
  8
14
 10
150.8361625671387
 20
205.7344245910645
  0
VERTEX
  8
14
 10
147.6172161102295
 20
-81.00126266479492
  0
VERTEX
  8
14
 10
128.6640262603760
 20
-143.2066726684570
  0
VERTEX
  8
14
 10
120.4550845135690
 20
-141.3247292503497
 70
8
  0
VERTEX
  8
14
 10
116.3355827331543
 20
-140.9790325164795
 70
8
  0
VERTEX
  8
14
 10
112.2325988487726
 20
-141.2706553664908
 70
8
  0
VERTEX
  8
14
 10
108.1413018767189
 20
-142.0711586139683
 70
8
  0
VERTEX
  8
14
 10
104.0911674499512
 20
-143.1849288940430
 70
8
  0
VERTEX
  8
14
 10
92.59439471980531
 20
-147.1054076867403
 70
8
  0
VERTEX
  8
14
 10
85.08603096008301
 20
-149.9791431427002
  0
VERTEX
  8
14
 10
70.04531947004124
 20
-144.4069956612090
 70
8
  0
VERTEX
  8
14
 10
66.18412017822266
 20
-143.1844520568848
 70
8
  0
VERTEX
  8
14
 10
62.13864471701686
 20
-142.0709368030649
 70
8
  0
VERTEX
  8
14
 10
58.05133288194303
 20
-141.2714562731364
 70
8
  0
VERTEX
  8
14
 10
53.95198345184326
 20
-140.9791469573975
 70
8
  0
VERTEX
  8
14
 10
49.81359050581490
 20
-141.3241774961994
 70
8
  0
VERTEX
  8
14
 10
41.56714916229248
 20
-143.2106971740723
  0
VERTEX
  8
14
 10
22.60411262512207
 20
-149.9791431427002
  0
VERTEX
  8
14
 10
3.630259931087494
 20
-143.2025909423828
  0
VERTEX
  8
14
 10
-4.587503894609433
 20
-141.3052906598322
 70
8
  0
VERTEX
  8
14
 10
-8.695886135101318
 20
-140.9791469573975
 70
8
  0
VERTEX
  8
14
 10
-12.77555737850455
 20
-141.3124304648983
 70
8
  0
VERTEX
  8
14
 10
-20.93391418457031
 20
-143.2069873809814
  0
VERTEX
  8
14
 10
-39.89588499069214
 20
-149.9791431427002
  0
VERTEX
  8
14
 10
-58.86973857879639
 20
-143.2025909423828
  0
VERTEX
  8
14
 10
-67.08750179860816
 20
-141.3052907672955
 70
8
  0
VERTEX
  8
14
 10
-71.19588375091553
 20
-140.9791469573975
 70
8
  0
VERTEX
  8
14
 10
-75.27555577951324
 20
-141.3124303590089
 70
8
  0
VERTEX
  8
14
 10
-83.43391418457031
 20
-143.2069873809814
  0
VERTEX
  8
14
 10
-102.3958873748779
 20
-149.9791431427002
  0
VERTEX
  8
14
 10
-121.3697433471680
 20
-143.2025909423828
  0
VERTEX
  8
14
 10
-129.5875129674772
 20
-141.3052902995805
 70
8
  0
VERTEX
  8
14
 10
-133.6958980560303
 20
-140.9791469573975
 70
8
  0
VERTEX
  8
14
 10
-137.7755685365157
 20
-141.3124308198732
 70
8
  0
VERTEX
  8
14
 10
-145.9339237213135
 20
-143.2069873809814
  0
VERTEX
  8
14
 10
-164.8958778381348
 20
-149.9791431427002
  0
VERTEX
  8
14
 10
-183.8697242736816
 20
-143.2028675079346
  0
VERTEX
  8
14
 10
-192.0873843565214
 20
-141.3066210696455
 70
8
  0
VERTEX
  8
14
 10
-196.1958885192871
 20
-140.9791469573975
 70
8
  0
VERTEX
  8
14
 10
-200.2888038493223
 20
-141.3112337725919
 70
8
  0
VERTEX
  8
14
 10
-208.4739875793457
 20
-143.2075119018555
  0
VERTEX
  8
14
 10
-227.3958778381348
 20
-149.9791431427002
  0
VERTEX
  8
14
 10
-246.3697242736816
 20
-143.2052993774414
  0
VERTEX
  8
14
 10
-254.5874554669060
 20
-141.3059300055991
 70
8
  0
VERTEX
  8
14
 10
-258.6958885192871
 20
-140.9791469573975
 70
8
  0
VERTEX
  8
14
 10
-262.7755211632993
 20
-141.3121868203779
 70
8
  0
VERTEX
  8
14
 10
-270.9339332580566
 20
-143.2069396972656
  0
VERTEX
  8
14
 10
-289.8958778381348
 20
-149.9791431427002
  0
VERTEX
  8
14
 10
-308.8697242736816
 20
-143.2025909423828
  0
VERTEX
  8
14
 10
-317.0875131098554
 20
-141.3052887398414
 70
8
  0
VERTEX
  8
14
 10
-321.1959075927734
 20
-140.9791469573975
 70
8
  0
VERTEX
  8
14
 10
-325.2755718533916
 20
-141.3124323567590
 70
8
  0
VERTEX
  8
14
 10
-333.4339141845703
 20
-143.2069873809814
  0
VERTEX
  8
14
 10
-352.3958969116211
 20
-149.9791431427002
  0
VERTEX
  8
14
 10
-371.3674926757813
 20
-143.2067489624023
  0
VERTEX
  8
14
 10
-379.5764862278082
 20
-141.3246372380925
 70
8
  0
VERTEX
  8
14
 10
-383.6959075927734
 20
-140.9791469573975
 70
8
  0
VERTEX
  8
14
 10
-387.7987267194757
 20
-141.2712128239645
 70
8
  0
VERTEX
  8
14
 10
-391.8899319749386
 20
-142.0719748971105
 70
8
  0
VERTEX
  8
14
 10
-395.9402465820313
 20
-143.1852912902832
 70
8
  0
VERTEX
  8
14
 10
-407.4605602766738
 20
-147.1066274563489
 70
8
  0
VERTEX
  8
14
 10
-414.9850845336914
 20
-149.9791431427002
  0
VERTEX
  8
14
 10
-429.9999782467137
 20
-144.4043740780057
 70
8
  0
VERTEX
  8
14
 10
-433.8557815551758
 20
-143.1831836700439
 70
8
  0
VERTEX
  8
14
 10
-437.9369458680565
 20
-142.0621308833298
 70
8
  0
VERTEX
  8
14
 10
-442.0607282166565
 20
-141.2620531284760
 70
8
  0
VERTEX
  8
14
 10
-446.1959075927734
 20
-140.9791469573975
 70
8
  0
VERTEX
  8
14
 10
-450.2859223175658
 20
-141.3321017236225
 70
8
  0
SEQEND
  0
POINT
  8
2
 10
-458.4334182739258
 20
-143.2087326049805
  0
TEXT
  8
2
 10
-458.4334182739258
 20
-143.2087326049805
 40
8.000000000000000
 50
0.0000000000000000
 51
0.0000000000000000
 71
0
  1
# 57
  0
POINT
  8
2
 10
-477.3890304565430
 20
-81.00259780883789
  0
TEXT
  8
2
 10
-477.3890304565430
 20
-81.00259780883789
 40
8.000000000000000
 50
0.0000000000000000
 51
0.0000000000000000
 71
0
  1
# 58
  0
POINT
  8
2
 10
-480.6079864501953
 20
205.7330894470215
  0
TEXT
  8
2
 10
-480.6079864501953
 20
205.7330894470215
 40
8.000000000000000
 50
0.0000000000000000
 51
0.0000000000000000
 71
0
  1
# 59
  0
POINT
  8
2
 10
-387.3204040527344
 20
251.8863677978516
  0
TEXT
  8
2
 10
-387.3204040527344
 20
251.8863677978516
 40
8.000000000000000
 50
0.0000000000000000
 51
0.0000000000000000
 71
0
  1
# 60
  0
POINT
  8
2
 10
-170.8584213256836
 20
387.9317474365234
  0
TEXT
  8
2
 10
-170.8584213256836
 20
387.9317474365234
 40
8.000000000000000
 50
0.0000000000000000
 51
0.0000000000000000
 71
0
  1
# 61
  0
POINT
  8
2
 10
29.62475299835205
 20
279.1728973388672
  0
TEXT
  8
2
 10
29.62475299835205
 20
279.1728973388672
 40
8.000000000000000
 50
0.0000000000000000
 51
0.0000000000000000
 71
0
  1
# 62
  0
POINT
  8
2
 10
150.8361625671387
 20
205.7344245910645
  0
TEXT
  8
2
 10
150.8361625671387
 20
205.7344245910645
 40
8.000000000000000
 50
0.0000000000000000
 51
0.0000000000000000
 71
0
  1
# 63
  0
POINT
  8
2
 10
147.6172161102295
 20
-81.00126266479492
  0
TEXT
  8
2
 10
147.6172161102295
 20
-81.00126266479492
 40
8.000000000000000
 50
0.0000000000000000
 51
0.0000000000000000
 71
0
  1
# 64
  0
POINT
  8
2
 10
128.6640262603760
 20
-143.2066726684570
  0
TEXT
  8
2
 10
128.6640262603760
 20
-143.2066726684570
 40
8.000000000000000
 50
0.0000000000000000
 51
0.0000000000000000
 71
0
  1
# 65
  0
POINT
  8
2
 10
104.0911674499512
 20
-143.1849288940430
  0
TEXT
  8
2
 10
104.0911674499512
 20
-143.1849288940430
 40
8.000000000000000
 50
0.0000000000000000
 51
0.0000000000000000
 71
0
  1
# 66
  0
POINT
  8
2
 10
85.08603096008301
 20
-149.9791431427002
  0
TEXT
  8
2
 10
85.08603096008301
 20
-149.9791431427002
 40
8.000000000000000
 50
0.0000000000000000
 51
0.0000000000000000
 71
0
  1
# 67
  0
POINT
  8
2
 10
66.18412017822266
 20
-143.1844520568848
  0
TEXT
  8
2
 10
66.18412017822266
 20
-143.1844520568848
 40
8.000000000000000
 50
0.0000000000000000
 51
0.0000000000000000
 71
0
  1
# 68
  0
POINT
  8
2
 10
53.95198345184326
 20
-140.9791469573975
  0
TEXT
  8
2
 10
53.95198345184326
 20
-140.9791469573975
 40
8.000000000000000
 50
0.0000000000000000
 51
0.0000000000000000
 71
0
  1
# 69
  0
POINT
  8
2
 10
41.56714916229248
 20
-143.2106971740723
  0
TEXT
  8
2
 10
41.56714916229248
 20
-143.2106971740723
 40
8.000000000000000
 50
0.0000000000000000
 51
0.0000000000000000
 71
0
  1
# 70
  0
POINT
  8
2
 10
22.60411262512207
 20
-149.9791431427002
  0
TEXT
  8
2
 10
22.60411262512207
 20
-149.9791431427002
 40
8.000000000000000
 50
0.0000000000000000
 51
0.0000000000000000
 71
0
  1
# 71
  0
POINT
  8
2
 10
3.630259931087494
 20
-143.2025909423828
  0
TEXT
  8
2
 10
3.630259931087494
 20
-143.2025909423828
 40
8.000000000000000
 50
0.0000000000000000
 51
0.0000000000000000
 71
0
  1
# 72
  0
POINT
  8
2
 10
-8.695886135101318
 20
-140.9791469573975
  0
TEXT
  8
2
 10
-8.695886135101318
 20
-140.9791469573975
 40
8.000000000000000
 50
0.0000000000000000
 51
0.0000000000000000
 71
0
  1
# 73
  0
POINT
  8
2
 10
-20.93391418457031
 20
-143.2069873809814
  0
TEXT
  8
2
 10
-20.93391418457031
 20
-143.2069873809814
 40
8.000000000000000
 50
0.0000000000000000
 51
0.0000000000000000
 71
0
  1
# 74
  0
POINT
  8
2
 10
-39.89588499069214
 20
-149.9791431427002
  0
TEXT
  8
2
 10
-39.89588499069214
 20
-149.9791431427002
 40
8.000000000000000
 50
0.0000000000000000
 51
0.0000000000000000
 71
0
  1
# 75
  0
POINT
  8
2
 10
-58.86973857879639
 20
-143.2025909423828
  0
TEXT
  8
2
 10
-58.86973857879639
 20
-143.2025909423828
 40
8.000000000000000
 50
0.0000000000000000
 51
0.0000000000000000
 71
0
  1
# 76
  0
POINT
  8
2
 10
-71.19588375091553
 20
-140.9791469573975
  0
TEXT
  8
2
 10
-71.19588375091553
 20
-140.9791469573975
 40
8.000000000000000
 50
0.0000000000000000
 51
0.0000000000000000
 71
0
  1
# 77
  0
POINT
  8
2
 10
-83.43391418457031
 20
-143.2069873809814
  0
TEXT
  8
2
 10
-83.43391418457031
 20
-143.2069873809814
 40
8.000000000000000
 50
0.0000000000000000
 51
0.0000000000000000
 71
0
  1
# 78
  0
POINT
  8
2
 10
-102.3958873748779
 20
-149.9791431427002
  0
TEXT
  8
2
 10
-102.3958873748779
 20
-149.9791431427002
 40
8.000000000000000
 50
0.0000000000000000
 51
0.0000000000000000
 71
0
  1
# 79
  0
POINT
  8
2
 10
-121.3697433471680
 20
-143.2025909423828
  0
TEXT
  8
2
 10
-121.3697433471680
 20
-143.2025909423828
 40
8.000000000000000
 50
0.0000000000000000
 51
0.0000000000000000
 71
0
  1
# 80
  0
POINT
  8
2
 10
-133.6958980560303
 20
-140.9791469573975
  0
TEXT
  8
2
 10
-133.6958980560303
 20
-140.9791469573975
 40
8.000000000000000
 50
0.0000000000000000
 51
0.0000000000000000
 71
0
  1
# 81
  0
POINT
  8
2
 10
-145.9339237213135
 20
-143.2069873809814
  0
TEXT
  8
2
 10
-145.9339237213135
 20
-143.2069873809814
 40
8.000000000000000
 50
0.0000000000000000
 51
0.0000000000000000
 71
0
  1
# 82
  0
POINT
  8
2
 10
-164.8958778381348
 20
-149.9791431427002
  0
TEXT
  8
2
 10
-164.8958778381348
 20
-149.9791431427002
 40
8.000000000000000
 50
0.0000000000000000
 51
0.0000000000000000
 71
0
  1
# 83
  0
POINT
  8
2
 10
-183.8697242736816
 20
-143.2028675079346
  0
TEXT
  8
2
 10
-183.8697242736816
 20
-143.2028675079346
 40
8.000000000000000
 50
0.0000000000000000
 51
0.0000000000000000
 71
0
  1
# 84
  0
POINT
  8
2
 10
-196.1958885192871
 20
-140.9791469573975
  0
TEXT
  8
2
 10
-196.1958885192871
 20
-140.9791469573975
 40
8.000000000000000
 50
0.0000000000000000
 51
0.0000000000000000
 71
0
  1
# 85
  0
POINT
  8
2
 10
-208.4739875793457
 20
-143.2075119018555
  0
TEXT
  8
2
 10
-208.4739875793457
 20
-143.2075119018555
 40
8.000000000000000
 50
0.0000000000000000
 51
0.0000000000000000
 71
0
  1
# 86
  0
POINT
  8
2
 10
-227.3958778381348
 20
-149.9791431427002
  0
TEXT
  8
2
 10
-227.3958778381348
 20
-149.9791431427002
 40
8.000000000000000
 50
0.0000000000000000
 51
0.0000000000000000
 71
0
  1
# 87
  0
POINT
  8
2
 10
-246.3697242736816
 20
-143.2052993774414
  0
TEXT
  8
2
 10
-246.3697242736816
 20
-143.2052993774414
 40
8.000000000000000
 50
0.0000000000000000
 51
0.0000000000000000
 71
0
  1
# 88
  0
POINT
  8
2
 10
-258.6958885192871
 20
-140.9791469573975
  0
TEXT
  8
2
 10
-258.6958885192871
 20
-140.9791469573975
 40
8.000000000000000
 50
0.0000000000000000
 51
0.0000000000000000
 71
0
  1
# 89
  0
POINT
  8
2
 10
-270.9339332580566
 20
-143.2069396972656
  0
TEXT
  8
2
 10
-270.9339332580566
 20
-143.2069396972656
 40
8.000000000000000
 50
0.0000000000000000
 51
0.0000000000000000
 71
0
  1
# 90
  0
POINT
  8
2
 10
-289.8958778381348
 20
-149.9791431427002
  0
TEXT
  8
2
 10
-289.8958778381348
 20
-149.9791431427002
 40
8.000000000000000
 50
0.0000000000000000
 51
0.0000000000000000
 71
0
  1
# 91
  0
POINT
  8
2
 10
-308.8697242736816
 20
-143.2025909423828
  0
TEXT
  8
2
 10
-308.8697242736816
 20
-143.2025909423828
 40
8.000000000000000
 50
0.0000000000000000
 51
0.0000000000000000
 71
0
  1
# 92
  0
POINT
  8
2
 10
-321.1959075927734
 20
-140.9791469573975
  0
TEXT
  8
2
 10
-321.1959075927734
 20
-140.9791469573975
 40
8.000000000000000
 50
0.0000000000000000
 51
0.0000000000000000
 71
0
  1
# 93
  0
POINT
  8
2
 10
-333.4339141845703
 20
-143.2069873809814
  0
TEXT
  8
2
 10
-333.4339141845703
 20
-143.2069873809814
 40
8.000000000000000
 50
0.0000000000000000
 51
0.0000000000000000
 71
0
  1
# 94
  0
POINT
  8
2
 10
-352.3958969116211
 20
-149.9791431427002
  0
TEXT
  8
2
 10
-352.3958969116211
 20
-149.9791431427002
 40
8.000000000000000
 50
0.0000000000000000
 51
0.0000000000000000
 71
0
  1
# 95
  0
POINT
  8
2
 10
-371.3674926757813
 20
-143.2067489624023
  0
TEXT
  8
2
 10
-371.3674926757813
 20
-143.2067489624023
 40
8.000000000000000
 50
0.0000000000000000
 51
0.0000000000000000
 71
0
  1
# 96
  0
POINT
  8
2
 10
-383.6959075927734
 20
-140.9791469573975
  0
TEXT
  8
2
 10
-383.6959075927734
 20
-140.9791469573975
 40
8.000000000000000
 50
0.0000000000000000
 51
0.0000000000000000
 71
0
  1
# 97
  0
POINT
  8
2
 10
-395.9402465820313
 20
-143.1852912902832
  0
TEXT
  8
2
 10
-395.9402465820313
 20
-143.1852912902832
 40
8.000000000000000
 50
0.0000000000000000
 51
0.0000000000000000
 71
0
  1
# 98
  0
POINT
  8
2
 10
-414.9850845336914
 20
-149.9791431427002
  0
TEXT
  8
2
 10
-414.9850845336914
 20
-149.9791431427002
 40
8.000000000000000
 50
0.0000000000000000
 51
0.0000000000000000
 71
0
  1
# 99
  0
POINT
  8
2
 10
-433.8557815551758
 20
-143.1831836700439
  0
TEXT
  8
2
 10
-433.8557815551758
 20
-143.1831836700439
 40
8.000000000000000
 50
0.0000000000000000
 51
0.0000000000000000
 71
0
  1
# 100
  0
POINT
  8
2
 10
-446.1959075927734
 20
-140.9791469573975
  0
TEXT
  8
2
 10
-446.1959075927734
 20
-140.9791469573975
 40
8.000000000000000
 50
0.0000000000000000
 51
0.0000000000000000
 71
0
  1
# 101
  0
POINT
  8
2
 10
-468.8878848732099
 20
-160.3603846446499
  0
TEXT
  8
2
 10
-468.8878848732099
 20
-160.3603846446499
 40
8.000000000000000
 50
0.0000000000000000
 51
0.0000000000000000
 71
0
  1
# 102
  0
POINT
  8
2
 10
-492.3639650505501
 20
-83.31954872082464
  0
TEXT
  8
2
 10
-492.3639650505501
 20
-83.31954872082464
 40
8.000000000000000
 50
0.0000000000000000
 51
0.0000000000000000
 71
0
  1
# 103
  0
POINT
  8
2
 10
-495.7481937649488
 20
218.1381748913340
  0
TEXT
  8
2
 10
-495.7481937649488
 20
218.1381748913340
 40
8.000000000000000
 50
0.0000000000000000
 51
0.0000000000000000
 71
0
  1
# 104
  0
POINT
  8
2
 10
-397.9596736542907
 20
262.4748049584484
  0
TEXT
  8
2
 10
-397.9596736542907
 20
262.4748049584484
 40
8.000000000000000
 50
0.0000000000000000
 51
0.0000000000000000
 71
0
  1
# 105
  0
POINT
  8
2
 10
-171.0887703634249
 20
402.9568120441269
  0
TEXT
  8
2
 10
-171.0887703634249
 20
402.9568120441269
 40
8.000000000000000
 50
0.0000000000000000
 51
0.0000000000000000
 71
0
  1
# 106
  0
POINT
  8
2
 10
40.29946325409562
 20
289.7178513810371
  0
TEXT
  8
2
 10
40.29946325409562
 20
289.7178513810371
 40
8.000000000000000
 50
0.0000000000000000
 51
0.0000000000000000
 71
0
  1
# 107
  0
POINT
  8
2
 10
165.9672417878818
 20
217.3264395371567
  0
TEXT
  8
2
 10
165.9672417878818
 20
217.3264395371567
 40
8.000000000000000
 50
0.0000000000000000
 51
0.0000000000000000
 71
0
  1
# 108
  0
POINT
  8
2
 10
162.5921535607869
 20
-83.31796548797882
  0
TEXT
  8
2
 10
162.5921535607869
 20
-83.31796548797882
 40
8.000000000000000
 50
0.0000000000000000
 51
0.0000000000000000
 71
0
  1
# 109
  0
POINT
  8
2
 10
139.1246164358548
 20
-160.3397111781296
  0
TEXT
  8
2
 10
139.1246164358548
 20
-160.3397111781296
 40
8.000000000000000
 50
0.0000000000000000
 51
0.0000000000000000
 71
0
  1
# 110
  0
POINT
  8
2
 10
107.9720282741331
 20
-157.7272470465316
  0
TEXT
  8
2
 10
107.9720282741331
 20
-157.7272470465316
 40
8.000000000000000
 50
0.0000000000000000
 51
0.0000000000000000
 71
0
  1
# 111
  0
POINT
  8
2
 10
85.07206937659757
 20
-165.9138352943058
  0
TEXT
  8
2
 10
85.07206937659757
 20
-165.9138352943058
 40
8.000000000000000
 50
0.0000000000000000
 51
0.0000000000000000
 71
0
  1
# 112
  0
POINT
  8
2
 10
62.28932338940334
 20
-157.7240960210601
  0
TEXT
  8
2
 10
62.28932338940334
 20
-157.7240960210601
 40
8.000000000000000
 50
0.0000000000000000
 51
0.0000000000000000
 71
0
  1
# 113
  0
POINT
  8
2
 10
53.95121798457765
 20
-156.2208372870673
  0
TEXT
  8
2
 10
53.95121798457765
 20
-156.2208372870673
 40
8.000000000000000
 50
0.0000000000000000
 51
0.0000000000000000
 71
0
  1
# 114
  0
POINT
  8
2
 10
45.44448335180724
 20
-157.7536156084511
  0
TEXT
  8
2
 10
45.44448335180724
 20
-157.7536156084511
 40
8.000000000000000
 50
0.0000000000000000
 51
0.0000000000000000
 71
0
  1
# 115
  0
POINT
  8
2
 10
22.60253212424952
 20
-165.9065563254460
  0
TEXT
  8
2
 10
22.60253212424952
 20
-165.9065563254460
 40
8.000000000000000
 50
0.0000000000000000
 51
0.0000000000000000
 71
0
  1
# 116
  0
POINT
  8
2
 10
-0.2499283737727039
 20
-157.7447510259231
  0
TEXT
  8
2
 10
-0.2499283737727039
 20
-157.7447510259231
 40
8.000000000000000
 50
0.0000000000000000
 51
0.0000000000000000
 71
0
  1
# 117
  0
POINT
  8
2
 10
-8.683649873540270
 20
-156.2234395601165
  0
TEXT
  8
2
 10
-8.683649873540270
 20
-156.2234395601165
 40
8.000000000000000
 50
0.0000000000000000
 51
0.0000000000000000
 71
0
  1
# 118
  0
POINT
  8
2
 10
-17.04236389935696
 20
-157.7450802133835
  0
TEXT
  8
2
 10
-17.04236389935696
 20
-157.7450802133835
 40
8.000000000000000
 50
0.0000000000000000
 51
0.0000000000000000
 71
0
  1
# 119
  0
POINT
  8
2
 10
-39.89594178637805
 20
-165.9071004351165
  0
TEXT
  8
2
 10
-39.89594178637805
 20
-165.9071004351165
 40
8.000000000000000
 50
0.0000000000000000
 51
0.0000000000000000
 71
0
  1
# 120
  0
POINT
  8
2
 10
-62.74992686285329
 20
-157.7447510137472
  0
TEXT
  8
2
 10
-62.74992686285329
 20
-157.7447510137472
 40
8.000000000000000
 50
0.0000000000000000
 51
0.0000000000000000
 71
0
  1
# 121
  0
POINT
  8
2
 10
-71.18364784761310
 20
-156.2234395304924
  0
TEXT
  8
2
 10
-71.18364784761310
 20
-156.2234395304924
 40
8.000000000000000
 50
0.0000000000000000
 51
0.0000000000000000
 71
0
  1
# 122
  0
POINT
  8
2
 10
-79.54236443925303
 20
-157.7450803544052
  0
TEXT
  8
2
 10
-79.54236443925303
 20
-157.7450803544052
 40
8.000000000000000
 50
0.0000000000000000
 51
0.0000000000000000
 71
0
  1
# 123
  0
POINT
  8
2
 10
-102.3959441707564
 20
-165.9071002086313
  0
TEXT
  8
2
 10
-102.3959441707564
 20
-165.9071002086313
 40
8.000000000000000
 50
0.0000000000000000
 51
0.0000000000000000
 71
0
  1
# 124
  0
POINT
  8
2
 10
-125.2499303742856
 20
-157.7447514103836
  0
TEXT
  8
2
 10
-125.2499303742856
 20
-157.7447514103836
 40
8.000000000000000
 50
0.0000000000000000
 51
0.0000000000000000
 71
0
  1
# 125
  0
POINT
  8
2
 10
-133.6836605992543
 20
-156.2234394373792
  0
TEXT
  8
2
 10
-133.6836605992543
 20
-156.2234394373792
 40
8.000000000000000
 50
0.0000000000000000
 51
0.0000000000000000
 71
0
  1
# 126
  0
POINT
  8
2
 10
-142.0423711212649
 20
-157.7450797492474
  0
TEXT
  8
2
 10
-142.0423711212649
 20
-157.7450797492474
 40
8.000000000000000
 50
0.0000000000000000
 51
0.0000000000000000
 71
0
  1
# 127
  0
POINT
  8
2
 10
-164.8958304123732
 20
-165.9070647988889
  0
TEXT
  8
2
 10
-164.8958304123732
 20
-165.9070647988889
 40
8.000000000000000
 50
0.0000000000000000
 51
0.0000000000000000
 71
0
  1
# 128
  0
POINT
  8
2
 10
-187.7499699844643
 20
-157.7449902473755
  0
TEXT
  8
2
 10
-187.7499699844643
 20
-157.7449902473755
 40
8.000000000000000
 50
0.0000000000000000
 51
0.0000000000000000
 71
0
  1
# 129
  0
POINT
  8
2
 10
-196.1878847052138
 20
-156.2227353111009
  0
TEXT
  8
2
 10
-196.1878847052138
 20
-156.2227353111009
 40
8.000000000000000
 50
0.0000000000000000
 51
0.0000000000000000
 71
0
  1
# 130
  0
POINT
  8
2
 10
-204.5814318144643
 20
-157.7460888894051
  0
TEXT
  8
2
 10
-204.5814318144643
 20
-157.7460888894051
 40
8.000000000000000
 50
0.0000000000000000
 51
0.0000000000000000
 71
0
  1
# 131
  0
POINT
  8
2
 10
-227.3897804768559
 20
-165.9085781672712
  0
TEXT
  8
2
 10
-227.3897804768559
 20
-165.9085781672712
 40
8.000000000000000
 50
0.0000000000000000
 51
0.0000000000000000
 71
0
  1
# 132
  0
POINT
  8
2
 10
-250.2504839941755
 20
-157.7470894298000
  0
TEXT
  8
2
 10
-250.2504839941755
 20
-157.7470894298000
 40
8.000000000000000
 50
0.0000000000000000
 51
0.0000000000000000
 71
0
  1
# 133
  0
POINT
  8
2
 10
-258.6853026489353
 20
-156.2237289109249
  0
TEXT
  8
2
 10
-258.6853026489353
 20
-156.2237289109249
 40
8.000000000000000
 50
0.0000000000000000
 51
0.0000000000000000
 71
0
  1
# 134
  0
POINT
  8
2
 10
-267.0423916763229
 20
-157.7450391086783
  0
TEXT
  8
2
 10
-267.0423916763229
 20
-157.7450391086783
 40
8.000000000000000
 50
0.0000000000000000
 51
0.0000000000000000
 71
0
  1
# 135
  0
POINT
  8
2
 10
-289.8959143343605
 20
-165.9071083643644
  0
TEXT
  8
2
 10
-289.8959143343605
 20
-165.9071083643644
 40
8.000000000000000
 50
0.0000000000000000
 51
0.0000000000000000
 71
0
  1
# 136
  0
POINT
  8
2
 10
-312.7499096003685
 20
-157.7447522268257
  0
TEXT
  8
2
 10
-312.7499096003685
 20
-157.7447522268257
 40
8.000000000000000
 50
0.0000000000000000
 51
0.0000000000000000
 71
0
  1
# 137
  0
POINT
  8
2
 10
-321.1836649522061
 20
-156.2234392524493
  0
TEXT
  8
2
 10
-321.1836649522061
 20
-156.2234392524493
 40
8.000000000000000
 50
0.0000000000000000
 51
0.0000000000000000
 71
0
  1
# 138
  0
POINT
  8
2
 10
-329.5423631817955
 20
-157.7450796981165
  0
TEXT
  8
2
 10
-329.5423631817955
 20
-157.7450796981165
 40
8.000000000000000
 50
0.0000000000000000
 51
0.0000000000000000
 71
0
  1
# 139
  0
POINT
  8
2
 10
-352.3947074595408
 20
-165.9066542126071
  0
TEXT
  8
2
 10
-352.3947074595408
 20
-165.9066542126071
 40
8.000000000000000
 50
0.0000000000000000
 51
0.0000000000000000
 71
0
  1
# 140
  0
POINT
  8
2
 10
-375.2486106198316
 20
-157.7483715523663
  0
TEXT
  8
2
 10
-375.2486106198316
 20
-157.7483715523663
 40
8.000000000000000
 50
0.0000000000000000
 51
0.0000000000000000
 71
0
  1
# 141
  0
POINT
  8
2
 10
-383.6996847765934
 20
-156.2213601836866
  0
TEXT
  8
2
 10
-383.6996847765934
 20
-156.2213601836866
 40
8.000000000000000
 50
0.0000000000000000
 51
0.0000000000000000
 71
0
  1
# 142
  0
POINT
  8
2
 10
-392.0642758067115
 20
-157.7284644148085
  0
TEXT
  8
2
 10
-392.0642758067115
 20
-157.7284644148085
 40
8.000000000000000
 50
0.0000000000000000
 51
0.0000000000000000
 71
0
  1
# 143
  0
POINT
  8
2
 10
-415.0091147141354
 20
-165.9135609071115
  0
TEXT
  8
2
 10
-415.0091147141354
 20
-165.9135609071115
 40
8.000000000000000
 50
0.0000000000000000
 51
0.0000000000000000
 71
0
  1
# 144
  0
POINT
  8
2
 10
-437.7433637740671
 20
-157.7262091057085
  0
TEXT
  8
2
 10
-437.7433637740671
 20
-157.7262091057085
 40
8.000000000000000
 50
0.0000000000000000
 51
0.0000000000000000
 71
0
  1
# 145
  0
POINT
  8
2
 10
-446.1694440472215
 20
-156.2212495770009
  0
TEXT
  8
2
 10
-446.1694440472215
 20
-156.2212495770009
 40
8.000000000000000
 50
0.0000000000000000
 51
0.0000000000000000
 71
0
  1
# 146
  0
POINT
  8
3
 10
-471.6705268582460
 20
222.2382202955891
  0
POINT
  8
3
 10
-457.3327632979710
 20
225.3954955150899
  0
POINT
  8
3
 10
-448.0824950157642
 20
227.9836187900618
  0
POINT
  8
3
 10
-439.0847493885480
 20
231.2617826084295
  0
POINT
  8
3
 10
-434.7394299368781
 20
233.2467813674484
  0
POINT
  8
3
 10
-426.8683534835779
 20
237.7117239167576
  0
POINT
  8
3
 10
-419.4389268804781
 20
242.9345991523808
  0
POINT
  8
3
 10
-415.8781393227623
 20
245.7569838670334
  0
POINT
  8
3
 10
-404.9103863575972
 20
255.5655319281936
  0
POINT
  8
3
 10
-397.9596736542907
 20
262.4748049584484
  0
POINT
  8
3
 10
-378.3136683360524
 20
283.4574175761080
  0
POINT
  8
3
 10
-365.4356251014138
 20
297.6671636732691
  0
POINT
  8
3
 10
-345.2364263702406
 20
319.1778535169636
  0
POINT
  8
3
 10
-331.1261844135766
 20
332.8638068897818
  0
POINT
  8
3
 10
-317.0440321799734
 20
345.0758019121415
  0
POINT
  8
3
 10
-302.2658336869986
 20
356.4467036500331
  0
POINT
  8
3
 10
-290.6129499555053
 20
364.4651513254931
  0
POINT
  8
3
 10
-278.5839176770713
 20
371.9048986342241
  0
POINT
  8
3
 10
-270.3564184932969
 20
376.5158395869162
  0
POINT
  8
3
 10
-257.8100876455030
 20
382.8171471372519
  0
POINT
  8
3
 10
-244.9241172707286
 20
388.3843945628766
  0
POINT
  8
3
 10
-236.1585274987006
 20
391.6517896132901
  0
POINT
  8
3
 10
-222.4225233914726
 20
395.9304470471440
  0
POINT
  8
3
 10
-217.7825739136157
 20
397.1454387928106
  0
POINT
  8
3
 10
-203.8002809269306
 20
400.0996427904476
  0
POINT
  8
3
 10
-199.0955835215639
 20
400.8496402224047
  0
POINT
  8
3
 10
-185.1310565925957
 20
402.3663976759898
  0
POINT
  8
3
 10
-171.0887703634249
 20
402.9568120441269
  0
POINT
  8
3
 10
-156.5841321039792
 20
402.7271231506217
  0
POINT
  8
3
 10
-142.1198780961683
 20
401.6686799383858
  0
POINT
  8
3
 10
-127.6706724981848
 20
399.7647693388708
  0
POINT
  8
3
 10
-113.3600907532759
 20
397.0026061602514
  0
POINT
  8
3
 10
-99.21140891849421
 20
393.3534560328989
  0
POINT
  8
3
 10
-85.32509329678449
 20
388.8042323187208
  0
POINT
  8
3
 10
-71.71077919811147
 20
383.3084403077291
  0
POINT
  8
3
 10
-58.52289639099926
 20
376.8630373158721
  0
POINT
  8
3
 10
-46.26950208427347
 20
369.7412456030671
  0
POINT
  8
3
 10
-34.49904275119617
 20
361.8309678241446
  0
POINT
  8
3
 10
-26.91860777414513
 20
356.1773379902861
  0
POINT
  8
3
 10
-16.07913998075066
 20
347.3284270073054
  0
POINT
  8
3
 10
-2.288561971866140
 20
334.7766937246403
  0
POINT
  8
3
 10
1.049549291029483
 20
331.5250354570896
  0
POINT
  8
3
 10
17.62812810574634
 20
314.3372562154080
  0
POINT
  8
3
 10
40.29946325409562
 20
289.7178513810371
  0
POINT
  8
3
 10
56.89821335534950
 20
272.6856196875702
  0
POINT
  8
3
 10
70.89992912797889
 20
259.8381020296669
  0
POINT
  8
3
 10
74.53490230861109
 20
256.7796218281915
  0
POINT
  8
3
 10
85.03501876620520
 20
248.6496296962420
  0
POINT
  8
3
 10
92.34805169224521
 20
243.6522086866656
  0
POINT
  8
3
 10
103.5781820676885
 20
237.0956733996144
  0
POINT
  8
3
 10
111.3876106137387
 20
233.3479683571929
  0
POINT
  8
3
 10
123.6430725511609
 20
228.6875883667297
  0
POINT
  8
3
 10
131.9968132039267
 20
226.0769506285450
  0
POINT
  8
3
 10
153.1820729019497
 20
220.4173616860169
  0
POINT
  8
3
 10
161.7032760056887
 20
218.3475096105144
  0
POINT
  8
3
 10
130.0236335668148
 20
-157.7231521284457
  0
POINT
  8
3
 10
125.4673519587696
 20
-156.7610022093653
  0
POINT
  8
3
 10
120.9041221424943
 20
-156.2142078171989
  0
POINT
  8
3
 10
116.3316280485788
 20
-156.2212207942509
  0
POINT
  8
3
 10
112.1364168078630
 20
-156.7819038351473
  0
POINT
  8
3
 10
107.9720282741331
 20
-157.7272470465316
  0
POINT
  8
3
 10
98.66225837052883
 20
-160.6085541435069
  0
POINT
  8
3
 10
66.96082270397002
 20
-159.1671422694146
  0
POINT
  8
3
 10
62.28932338940334
 20
-157.7240960210601
  0
POINT
  8
3
 10
58.13407871612425
 20
-156.6701142571865
  0
POINT
  8
3
 10
53.95121798457765
 20
-156.2208372870673
  0
POINT
  8
3
 10
-4.467020096819068
 20
-156.6963421703732
  0
POINT
  8
3
 10
-8.683649873540270
 20
-156.2234395601165
  0
POINT
  8
3
 10
-66.96701832156495
 20
-156.6963422350749
  0
POINT
  8
3
 10
-71.18364784761310
 20
-156.2234395304924
  0
POINT
  8
3
 10
-129.4670264828370
 20
-156.6963418757185
  0
POINT
  8
3
 10
-133.6836605992543
 20
-156.2234394373792
  0
POINT
  8
3
 10
-191.9690780272663
 20
-156.6968819883798
  0
POINT
  8
3
 10
-196.1878847052138
 20
-156.2227353111009
  0
POINT
  8
3
 10
-254.4680933228001
 20
-156.6973898328621
  0
POINT
  8
3
 10
-258.6853026489353
 20
-156.2237289109249
  0
POINT
  8
3
 10
-316.9670183712931
 20
-156.6963408393602
  0
POINT
  8
3
 10
-321.1836649522061
 20
-156.2234392524493
  0
POINT
  8
3
 10
-379.4695011290466
 20
-156.7050679859504
  0
POINT
  8
3
 10
-383.6996847765934
 20
-156.2213601836866
  0
POINT
  8
3
 10
-387.8954481559176
 20
-156.6709008468806
  0
POINT
  8
3
 10
-392.0642758067115
 20
-157.7284644148085
  0
POINT
  8
3
 10
-405.9638169016392
 20
-162.4189881088366
  0
POINT
  8
3
 10
-428.4974075866828
 20
-160.6000965490599
  0
POINT
  8
3
 10
-437.7433637740671
 20
-157.7262091057085
  0
POINT
  8
3
 10
-441.9405370906802
 20
-156.7771307850432
  0
POINT
  8
3
 10
-446.1694440472215
 20
-156.2212495770009
  0
POINT
  8
3
 10
-450.7287294352741
 20
-156.2248054956437
  0
POINT
  8
3
 10
-455.2776166747566
 20
-156.7778754775446
  0
POINT
  8
4
 10
-397.9596736542907
 20
262.4748049584484
 30
4.000000059604628
 50
-44.40515174018934
  0
POINT
  8
4
 10
-171.0887703634249
 20
402.9568120441269
 30
4.000000059604625
 50
-89.27500097946236
  0
POINT
  8
4
 10
40.60049122406967
 20
289.3962839392569
 30
4.000000059604648
 50
-136.8739130088887
  0
POINT
  8
4
 10
124.5806736613288
 20
-156.6178340814434
 30
4.000000059604645
 50
73.04577403709733
  0
POINT
  8
4
 10
108.4319549816260
 20
-157.6093455706121
 30
4.000000059604647
 50
106.7196646710165
  0
POINT
  8
4
 10
61.83041447069856
 20
-157.5920614089015
 30
4.000000059604631
 50
73.27682266077264
  0
POINT
  8
4
 10
46.03436125664850
 20
-157.5951387398015
 30
4.000000059604647
 50
107.2921158966240
  0
POINT
  8
4
 10
22.60253212424952
 20
-165.9065563254460
 30
4.000000059604627
 50
89.99431445469664
  0
POINT
  8
4
 10
-0.8746938588557575
 20
-157.5755330446848
 30
4.000000059604645
 50
72.59831674355007
  0
POINT
  8
4
 10
-16.34585449465996
 20
-157.5558639514297
 30
4.000000059604655
 50
107.4314723499215
  0
POINT
  8
4
 10
-39.89594178637805
 20
-165.9071004351165
 30
4.000000059604637
 50
89.99979569551576
  0
POINT
  8
4
 10
-63.45278791433859
 20
-157.5544740007947
 30
4.000000059604646
 50
72.61955966541612
  0
POINT
  8
4
 10
-78.92324484242027
 20
-157.5768066620435
 30
4.000000059604644
 50
107.4525388455257
  0
POINT
  8
4
 10
-102.3959441707564
 20
-165.9071002086313
 30
4.000000059604638
 50
89.99979569482100
  0
POINT
  8
4
 10
-125.8356486551087
 20
-157.5860740330369
 30
4.000000059604643
 50
72.58863879401322
  0
POINT
  8
4
 10
-141.4232519796163
 20
-157.5768061944633
 30
4.000000059604652
 50
107.4525377049359
  0
POINT
  8
4
 10
-164.8958304123732
 20
-165.9070647988889
 30
4.000000059604648
 50
90.00017059953191
  0
POINT
  8
4
 10
-188.4140965533382
 20
-157.5653256939401
 30
4.000000059604643
 50
72.62224672710799
  0
POINT
  8
4
 10
-203.9985740873093
 20
-157.5879469788931
 30
4.000000059604657
 50
107.4336555417572
  0
POINT
  8
4
 10
-227.3897804768559
 20
-165.9085781672712
 30
4.000000059604639
 50
90.02193128945544
  0
POINT
  8
4
 10
-250.9534296848159
 20
-157.5565828969577
 30
4.000000059604638
 50
72.60391690424220
  0
POINT
  8
4
 10
-266.4233866329449
 20
-157.5767789554595
 30
4.000000059604646
 50
107.4540375941889
  0
POINT
  8
4
 10
-289.8959143343605
 20
-165.9071083643644
 30
4.000000059604629
 50
89.99986871645807
  0
POINT
  8
4
 10
-313.3356296443467
 20
-157.5860745307553
 30
4.000000059604638
 50
72.58865335930595
  0
POINT
  8
4
 10
-328.9619398856348
 20
-157.5872886378445
 30
4.000000059604623
 50
107.4621445703592
  0
POINT
  8
4
 10
-352.3947074595408
 20
-165.9066542126071
 30
4.000000059604656
 50
90.00427879683524
  0
POINT
  8
4
 10
-375.8346344435063
 20
-157.5907645502536
 30
4.000000059604655
 50
72.69266484405343
  0
POINT
  8
4
 10
-391.6038064329313
 20
-157.5961105317599
 30
4.000000059604637
 50
106.7117166756086
  0
POINT
  8
4
 10
-415.0091147141354
 20
-165.9135609071115
 30
4.000000059604657
 50
89.87740564427114
  0
POINT
  8
4
 10
-438.2068155617146
 20
-157.6074523517858
 30
4.000000059604651
 50
73.29181816978624
  0
POINT
  8
4
 10
-454.3236454860298
 20
-156.6230334251897
 30
4.000000059604638
 50
106.9610469801693
  0
POINT
  8
4
 10
-458.4334182739258
 20
-143.2087326049805
 30
4.000000059604632
 50
106.9471672490926
  0
POINT
  8
4
 10
-387.3204040527344
 20
251.8863677978516
 30
4.000000059604620
 50
-44.42861135556056
  0
POINT
  8
4
 10
-170.8584213256836
 20
387.9317474365234
 30
4.000000059604678
 50
-89.28500281884104
  0
POINT
  8
4
 10
29.62475299835205
 20
279.1728973388672
 30
4.000000059604650
 50
-136.8887171296033
  0
POINT
  8
4
 10
128.6640262603760
 20
-143.2066726684570
 30
4.000000059604643
 50
73.05469879589185
  0
POINT
  8
4
 10
104.0911674499512
 20
-143.1849288940430
 30
4.000000059604637
 50
106.6898410523993
  0
POINT
  8
4
 10
66.18412017822266
 20
-143.1844520568848
 30
4.000000059604641
 50
73.27762938684384
  0
POINT
  8
4
 10
41.56714916229248
 20
-143.2106971740723
 30
4.000000059604648
 50
107.3153503092458
  0
POINT
  8
4
 10
22.60411262512207
 20
-149.9791431427002
 30
4.000000059604645
 50
89.99431445469664
  0
POINT
  8
4
 10
3.630259931087494
 20
-143.2025909423828
 30
4.000000059604646
 50
72.58416897974190
  0
POINT
  8
4
 10
-20.93391418457031
 20
-143.2069873809814
 30
4.000000059604650
 50
107.4449779936358
  0
POINT
  8
4
 10
-39.89588499069214
 20
-149.9791431427002
 30
4.000000059604637
 50
89.99979569551583
  0
POINT
  8
4
 10
-58.86973857879639
 20
-143.2025909423828
 30
4.000000059604647
 50
72.58416949480426
  0
POINT
  8
4
 10
-83.43391418457031
 20
-143.2069873809814
 30
4.000000059604643
 50
107.4449760452720
  0
POINT
  8
4
 10
-102.3958873748779
 20
-149.9791431427002
 30
4.000000059604638
 50
89.99979569482126
  0
POINT
  8
4
 10
-121.3697433471680
 20
-143.2025909423828
 30
4.000000059604639
 50
72.58417356916677
  0
POINT
  8
4
 10
-145.9339237213135
 20
-143.2069873809814
 30
4.000000059604641
 50
107.4449853575429
  0
POINT
  8
4
 10
-164.8958778381348
 20
-149.9791431427002
 30
4.000000059604648
 50
90.00017059953242
  0
POINT
  8
4
 10
-183.8697242736816
 20
-143.2028675079346
 30
4.000000059604644
 50
72.59100216842252
  0
POINT
  8
4
 10
-208.4739875793457
 20
-143.2075119018555
 30
4.000000059604643
 50
107.4487831804071
  0
POINT
  8
4
 10
-227.3958778381348
 20
-149.9791431427002
 30
4.000000059604639
 50
90.02193128945595
  0
POINT
  8
4
 10
-246.3697242736816
 20
-143.2052993774414
 30
4.000000059604642
 50
72.58033028029014
  0
POINT
  8
4
 10
-270.9339332580566
 20
-143.2069396972656
 30
4.000000059604647
 50
107.4462099583075
  0
POINT
  8
4
 10
-289.8958778381348
 20
-149.9791431427002
 30
4.000000059604647
 50
89.99986871645757
  0
POINT
  8
4
 10
-308.8697242736816
 20
-143.2025909423828
 30
4.000000059604659
 50
72.58417691818082
  0
POINT
  8
4
 10
-333.4339141845703
 20
-143.2069873809814
 30
4.000000059604633
 50
107.4449741660329
  0
POINT
  8
4
 10
-352.3958969116211
 20
-149.9791431427002
 30
4.000000059604639
 50
90.00427879683524
  0
POINT
  8
4
 10
-371.3674926757813
 20
-143.2067489624023
 30
4.000000059604646
 50
72.66989013036887
  0
POINT
  8
4
 10
-395.9402465820313
 20
-143.1852912902832
 30
4.000000059604645
 50
106.6754414766482
  0
POINT
  8
4
 10
-414.9850845336914
 20
-149.9791431427002
 30
4.000000059604653
 50
89.88017281824730
  0
POINT
  8
4
 10
-433.8557815551758
 20
-143.1831836700439
 30
4.000000059604647
 50
73.28379187714540
  0
POLYLINE
  8
8
 66
1
 70
0
  0
VERTEX
  8
8
 10
-371.3674926757813
 20
-143.2067489624023
  0
VERTEX
  8
8
 10
-352.3958969116211
 20
-80.97914695739746
  0
VERTEX
  8
8
 10
-333.4339141845703
 20
-143.2069873809814
  0
SEQEND
  0
POINT
  8
2
 10
-371.3674926757813
 20
-143.2067489624023
  0
TEXT
  8
2
 10
-371.3674926757813
 20
-143.2067489624023
 40
8.000000000000000
 50
0.0000000000000000
 51
0.0000000000000000
 71
0
  1
# 147
  0
POINT
  8
2
 10
-352.3958969116211
 20
-80.97914695739746
  0
TEXT
  8
2
 10
-352.3958969116211
 20
-80.97914695739746
 40
8.000000000000000
 50
0.0000000000000000
 51
0.0000000000000000
 71
0
  1
# 148
  0
POINT
  8
2
 10
-333.4339141845703
 20
-143.2069873809814
  0
TEXT
  8
2
 10
-333.4339141845703
 20
-143.2069873809814
 40
8.000000000000000
 50
0.0000000000000000
 51
0.0000000000000000
 71
0
  1
# 149
  0
POLYLINE
  8
8
 66
1
 70
0
  0
VERTEX
  8
8
 10
-308.8697242736816
 20
-143.2025909423828
  0
VERTEX
  8
8
 10
-289.8958778381348
 20
-80.97914695739746
  0
VERTEX
  8
8
 10
-270.9339332580566
 20
-143.2069396972656
  0
SEQEND
  0
POINT
  8
2
 10
-308.8697242736816
 20
-143.2025909423828
  0
TEXT
  8
2
 10
-308.8697242736816
 20
-143.2025909423828
 40
8.000000000000000
 50
0.0000000000000000
 51
0.0000000000000000
 71
0
  1
# 150
  0
POINT
  8
2
 10
-289.8958778381348
 20
-80.97914695739746
  0
TEXT
  8
2
 10
-289.8958778381348
 20
-80.97914695739746
 40
8.000000000000000
 50
0.0000000000000000
 51
0.0000000000000000
 71
0
  1
# 151
  0
POINT
  8
2
 10
-270.9339332580566
 20
-143.2069396972656
  0
TEXT
  8
2
 10
-270.9339332580566
 20
-143.2069396972656
 40
8.000000000000000
 50
0.0000000000000000
 51
0.0000000000000000
 71
0
  1
# 152
  0
POLYLINE
  8
8
 66
1
 70
0
  0
VERTEX
  8
8
 10
-246.3697242736816
 20
-143.2052993774414
  0
VERTEX
  8
8
 10
-227.3475646972656
 20
-80.97914695739746
  0
VERTEX
  8
8
 10
-208.4739875793457
 20
-143.2075119018555
  0
SEQEND
  0
POINT
  8
2
 10
-246.3697242736816
 20
-143.2052993774414
  0
TEXT
  8
2
 10
-246.3697242736816
 20
-143.2052993774414
 40
8.000000000000000
 50
0.0000000000000000
 51
0.0000000000000000
 71
0
  1
# 153
  0
POINT
  8
2
 10
-227.3475646972656
 20
-80.97914695739746
  0
TEXT
  8
2
 10
-227.3475646972656
 20
-80.97914695739746
 40
8.000000000000000
 50
0.0000000000000000
 51
0.0000000000000000
 71
0
  1
# 154
  0
POINT
  8
2
 10
-208.4739875793457
 20
-143.2075119018555
  0
TEXT
  8
2
 10
-208.4739875793457
 20
-143.2075119018555
 40
8.000000000000000
 50
0.0000000000000000
 51
0.0000000000000000
 71
0
  1
# 155
  0
POLYLINE
  8
8
 66
1
 70
0
  0
VERTEX
  8
8
 10
-183.8697242736816
 20
-143.2028675079346
  0
VERTEX
  8
8
 10
-164.8958778381348
 20
-80.97914695739746
  0
VERTEX
  8
8
 10
-145.9339237213135
 20
-143.2069873809814
  0
SEQEND
  0
POINT
  8
2
 10
-183.8697242736816
 20
-143.2028675079346
  0
TEXT
  8
2
 10
-183.8697242736816
 20
-143.2028675079346
 40
8.000000000000000
 50
0.0000000000000000
 51
0.0000000000000000
 71
0
  1
# 156
  0
POINT
  8
2
 10
-164.8958778381348
 20
-80.97914695739746
  0
TEXT
  8
2
 10
-164.8958778381348
 20
-80.97914695739746
 40
8.000000000000000
 50
0.0000000000000000
 51
0.0000000000000000
 71
0
  1
# 157
  0
POINT
  8
2
 10
-145.9339237213135
 20
-143.2069873809814
  0
TEXT
  8
2
 10
-145.9339237213135
 20
-143.2069873809814
 40
8.000000000000000
 50
0.0000000000000000
 51
0.0000000000000000
 71
0
  1
# 158
  0
POLYLINE
  8
8
 66
1
 70
0
  0
VERTEX
  8
8
 10
-121.3697433471680
 20
-143.2025909423828
  0
VERTEX
  8
8
 10
-102.3958873748779
 20
-80.97914695739746
  0
VERTEX
  8
8
 10
-83.43391418457031
 20
-143.2069873809814
  0
SEQEND
  0
POINT
  8
2
 10
-121.3697433471680
 20
-143.2025909423828
  0
TEXT
  8
2
 10
-121.3697433471680
 20
-143.2025909423828
 40
8.000000000000000
 50
0.0000000000000000
 51
0.0000000000000000
 71
0
  1
# 159
  0
POINT
  8
2
 10
-102.3958873748779
 20
-80.97914695739746
  0
TEXT
  8
2
 10
-102.3958873748779
 20
-80.97914695739746
 40
8.000000000000000
 50
0.0000000000000000
 51
0.0000000000000000
 71
0
  1
# 160
  0
POINT
  8
2
 10
-83.43391418457031
 20
-143.2069873809814
  0
TEXT
  8
2
 10
-83.43391418457031
 20
-143.2069873809814
 40
8.000000000000000
 50
0.0000000000000000
 51
0.0000000000000000
 71
0
  1
# 161
  0
POLYLINE
  8
8
 66
1
 70
0
  0
VERTEX
  8
8
 10
-58.86973857879639
 20
-143.2025909423828
  0
VERTEX
  8
8
 10
-39.89588499069214
 20
-80.97914695739746
  0
VERTEX
  8
8
 10
-20.93391418457031
 20
-143.2069873809814
  0
SEQEND
  0
POINT
  8
2
 10
-58.86973857879639
 20
-143.2025909423828
  0
TEXT
  8
2
 10
-58.86973857879639
 20
-143.2025909423828
 40
8.000000000000000
 50
0.0000000000000000
 51
0.0000000000000000
 71
0
  1
# 162
  0
POINT
  8
2
 10
-39.89588499069214
 20
-80.97914695739746
  0
TEXT
  8
2
 10
-39.89588499069214
 20
-80.97914695739746
 40
8.000000000000000
 50
0.0000000000000000
 51
0.0000000000000000
 71
0
  1
# 163
  0
POINT
  8
2
 10
-20.93391418457031
 20
-143.2069873809814
  0
TEXT
  8
2
 10
-20.93391418457031
 20
-143.2069873809814
 40
8.000000000000000
 50
0.0000000000000000
 51
0.0000000000000000
 71
0
  1
# 164
  0
POLYLINE
  8
8
 66
1
 70
0
  0
VERTEX
  8
8
 10
3.630259931087494
 20
-143.2025909423828
  0
VERTEX
  8
8
 10
22.57565975189209
 20
-80.97914695739746
  0
VERTEX
  8
8
 10
41.56714916229248
 20
-143.2106971740723
  0
SEQEND
  0
POINT
  8
2
 10
3.630259931087494
 20
-143.2025909423828
  0
TEXT
  8
2
 10
3.630259931087494
 20
-143.2025909423828
 40
8.000000000000000
 50
0.0000000000000000
 51
0.0000000000000000
 71
0
  1
# 165
  0
POINT
  8
2
 10
22.57565975189209
 20
-80.97914695739746
  0
TEXT
  8
2
 10
22.57565975189209
 20
-80.97914695739746
 40
8.000000000000000
 50
0.0000000000000000
 51
0.0000000000000000
 71
0
  1
# 166
  0
POINT
  8
2
 10
41.56714916229248
 20
-143.2106971740723
  0
TEXT
  8
2
 10
41.56714916229248
 20
-143.2106971740723
 40
8.000000000000000
 50
0.0000000000000000
 51
0.0000000000000000
 71
0
  1
# 167
  0
POINT
  8
8
 10
-352.3958969116211
 20
-80.97914695739746
  0
TEXT
  8
8
 10
-352.3958969116211
 20
-80.97914695739746
 40
8.000000000000000
 50
0.0000000000000000
 51
0.0000000000000000
 71
0
  1
# 168
  0
POINT
  8
8
 10
-289.8958778381348
 20
-80.97914695739746
  0
TEXT
  8
8
 10
-289.8958778381348
 20
-80.97914695739746
 40
8.000000000000000
 50
0.0000000000000000
 51
0.0000000000000000
 71
0
  1
# 169
  0
POINT
  8
8
 10
-227.3475646972656
 20
-80.97914695739746
  0
TEXT
  8
8
 10
-227.3475646972656
 20
-80.97914695739746
 40
8.000000000000000
 50
0.0000000000000000
 51
0.0000000000000000
 71
0
  1
# 170
  0
POINT
  8
8
 10
-164.8958778381348
 20
-80.97914695739746
  0
TEXT
  8
8
 10
-164.8958778381348
 20
-80.97914695739746
 40
8.000000000000000
 50
0.0000000000000000
 51
0.0000000000000000
 71
0
  1
# 171
  0
POINT
  8
8
 10
-102.3958873748779
 20
-80.97914695739746
  0
TEXT
  8
8
 10
-102.3958873748779
 20
-80.97914695739746
 40
8.000000000000000
 50
0.0000000000000000
 51
0.0000000000000000
 71
0
  1
# 172
  0
POINT
  8
8
 10
-39.89588499069214
 20
-80.97914695739746
  0
TEXT
  8
8
 10
-39.89588499069214
 20
-80.97914695739746
 40
8.000000000000000
 50
0.0000000000000000
 51
0.0000000000000000
 71
0
  1
# 173
  0
POINT
  8
8
 10
22.57565975189209
 20
-80.97914695739746
  0
TEXT
  8
8
 10
22.57565975189209
 20
-80.97914695739746
 40
8.000000000000000
 50
0.0000000000000000
 51
0.0000000000000000
 71
0
  1
# 174
  0
POLYLINE
  8
8
 66
1
 70
0
  0
VERTEX
  8
8
 10
-433.8557815551758
 20
-143.1831836700439
  0
VERTEX
  8
8
 10
-414.8958587646484
 20
-80.97915649414063
  0
VERTEX
  8
8
 10
-395.9402465820313
 20
-143.1852912902832
  0
SEQEND
  0
POINT
  8
2
 10
-433.8557815551758
 20
-143.1831836700439
  0
TEXT
  8
2
 10
-433.8557815551758
 20
-143.1831836700439
 40
8.000000000000000
 50
0.0000000000000000
 51
0.0000000000000000
 71
0
  1
# 175
  0
POINT
  8
2
 10
-414.8958587646484
 20
-80.97915649414063
  0
TEXT
  8
2
 10
-414.8958587646484
 20
-80.97915649414063
 40
8.000000000000000
 50
0.0000000000000000
 51
0.0000000000000000
 71
0
  1
# 176
  0
POINT
  8
2
 10
-395.9402465820313
 20
-143.1852912902832
  0
TEXT
  8
2
 10
-395.9402465820313
 20
-143.1852912902832
 40
8.000000000000000
 50
0.0000000000000000
 51
0.0000000000000000
 71
0
  1
# 177
  0
POLYLINE
  8
8
 66
1
 70
0
  0
VERTEX
  8
8
 10
66.18412017822266
 20
-143.1844520568848
  0
VERTEX
  8
8
 10
85.13731002807617
 20
-80.97904205322266
  0
VERTEX
  8
8
 10
104.0911674499512
 20
-143.1849288940430
  0
SEQEND
  0
POINT
  8
2
 10
66.18412017822266
 20
-143.1844520568848
  0
TEXT
  8
2
 10
66.18412017822266
 20
-143.1844520568848
 40
8.000000000000000
 50
0.0000000000000000
 51
0.0000000000000000
 71
0
  1
# 178
  0
POINT
  8
2
 10
85.13731002807617
 20
-80.97904205322266
  0
TEXT
  8
2
 10
85.13731002807617
 20
-80.97904205322266
 40
8.000000000000000
 50
0.0000000000000000
 51
0.0000000000000000
 71
0
  1
# 179
  0
POINT
  8
2
 10
104.0911674499512
 20
-143.1849288940430
  0
TEXT
  8
2
 10
104.0911674499512
 20
-143.1849288940430
 40
8.000000000000000
 50
0.0000000000000000
 51
0.0000000000000000
 71
0
  1
# 180
  0
POINT
  8
8
 10
-414.8958587646484
 20
-80.97915649414063
  0
TEXT
  8
8
 10
-414.8958587646484
 20
-80.97915649414063
 40
8.000000000000000
 50
0.0000000000000000
 51
0.0000000000000000
 71
0
  1
# 181
  0
POINT
  8
8
 10
85.13731002807617
 20
-80.97904205322266
  0
TEXT
  8
8
 10
85.13731002807617
 20
-80.97904205322266
 40
8.000000000000000
 50
0.0000000000000000
 51
0.0000000000000000
 71
0
  1
# 182
  0
ENDBLK
  0
BLOCK
  8
1
  2
4
 70
64
 10
0.0
 20
0.0
  0
LINE
  8
7
 10
-2101.848449707031
 20
-258.3866691589355
 11
-1999.848480224609
 21
-258.3866691589355
  0
TEXT
  8
1
 10
-2094.453386783600
 20
-257.0542942166328
 40
6.056249737739563
 50
0.0000000000000000
 51
0.0000000000000000
 71
0
  1
Size: IT38
  0
TEXT
  8
1
 10
-2094.453386783600
 20
-250.3924195051193
 40
6.056249737739563
 50
0.0000000000000000
 51
0.0000000000000000
 71
0
  1
Piece Name: ZSEBALATET 2X
  0
TEXT
  8
1
 10
-2094.453386783600
 20
-263.7161689281464
 40
6.056249737739563
 50
0.0000000000000000
 51
0.0000000000000000
 71
0
  1
Quantity: 2
  0
TEXT
  8
1
 10
-2094.453386783600
 20
-270.3780436396598
 40
6.056249737739563
 50
0.0000000000000000
 51
0.0000000000000000
 71
0
  1
Material: ALAP
  0
TEXT
  8
1
 10
-2094.453386783600
 20
-277.0399183511734
 40
6.056249737739563
 50
0.0000000000000000
 51
0.0000000000000000
 71
0
  1
Area: 0.0102 sq.m
  0
POLYLINE
  8
1
 66
1
 70
1
  0
VERTEX
  8
1
 10
-2150.848388671875
 20
-303.3866691589355
  0
VERTEX
  8
1
 10
-2150.848388671875
 20
-228.3866691589355
  0
VERTEX
  8
1
 10
-2135.848388671875
 20
-228.3866691589355
  0
VERTEX
  8
1
 10
-1965.848388671875
 20
-228.3866691589355
  0
VERTEX
  8
1
 10
-1950.848388671875
 20
-228.3866691589355
  0
VERTEX
  8
1
 10
-1950.848388671875
 20
-303.3866691589355
  0
SEQEND
  0
POLYLINE
  8
14
 66
1
 70
1
  0
VERTEX
  8
14
 10
-2135.848388671875
 20
-288.3866691589355
  0
VERTEX
  8
14
 10
-2135.848388671875
 20
-228.3866691589355
  0
VERTEX
  8
14
 10
-1965.848388671875
 20
-228.3866691589355
  0
VERTEX
  8
14
 10
-1965.848388671875
 20
-288.3866691589355
  0
SEQEND
  0
POINT
  8
2
 10
-2135.848388671875
 20
-288.3866691589355
  0
TEXT
  8
2
 10
-2135.848388671875
 20
-288.3866691589355
 40
8.000000000000000
 50
0.0000000000000000
 51
0.0000000000000000
 71
0
  1
# 183
  0
POINT
  8
2
 10
-2135.848388671875
 20
-228.3866691589355
  0
TEXT
  8
2
 10
-2135.848388671875
 20
-228.3866691589355
 40
8.000000000000000
 50
0.0000000000000000
 51
0.0000000000000000
 71
0
  1
# 184
  0
POINT
  8
2
 10
-1965.848388671875
 20
-228.3866691589355
  0
TEXT
  8
2
 10
-1965.848388671875
 20
-228.3866691589355
 40
8.000000000000000
 50
0.0000000000000000
 51
0.0000000000000000
 71
0
  1
# 185
  0
POINT
  8
2
 10
-1965.848388671875
 20
-288.3866691589355
  0
TEXT
  8
2
 10
-1965.848388671875
 20
-288.3866691589355
 40
8.000000000000000
 50
0.0000000000000000
 51
0.0000000000000000
 71
0
  1
# 186
  0
POINT
  8
2
 10
-2150.848388671875
 20
-303.3866691589355
  0
TEXT
  8
2
 10
-2150.848388671875
 20
-303.3866691589355
 40
8.000000000000000
 50
0.0000000000000000
 51
0.0000000000000000
 71
0
  1
# 187
  0
POINT
  8
2
 10
-2150.848388671875
 20
-228.3866691589355
  0
TEXT
  8
2
 10
-2150.848388671875
 20
-228.3866691589355
 40
8.000000000000000
 50
0.0000000000000000
 51
0.0000000000000000
 71
0
  1
# 188
  0
POINT
  8
2
 10
-2135.848388671875
 20
-228.3866691589355
  0
TEXT
  8
2
 10
-2135.848388671875
 20
-228.3866691589355
 40
8.000000000000000
 50
0.0000000000000000
 51
0.0000000000000000
 71
0
  1
# 189
  0
POINT
  8
2
 10
-1965.848388671875
 20
-228.3866691589355
  0
TEXT
  8
2
 10
-1965.848388671875
 20
-228.3866691589355
 40
8.000000000000000
 50
0.0000000000000000
 51
0.0000000000000000
 71
0
  1
# 190
  0
POINT
  8
2
 10
-1950.848388671875
 20
-228.3866691589355
  0
TEXT
  8
2
 10
-1950.848388671875
 20
-228.3866691589355
 40
8.000000000000000
 50
0.0000000000000000
 51
0.0000000000000000
 71
0
  1
# 191
  0
POINT
  8
2
 10
-1950.848388671875
 20
-303.3866691589355
  0
TEXT
  8
2
 10
-1950.848388671875
 20
-303.3866691589355
 40
8.000000000000000
 50
0.0000000000000000
 51
0.0000000000000000
 71
0
  1
# 192
  0
ENDBLK
  0
BLOCK
  8
1
  2
5
 70
64
 10
0.0
 20
0.0
  0
LINE
  8
7
 10
-1912.646179199219
 20
50.00790596008301
 11
-1887.446136474609
 21
-19.29705500602722
  0
TEXT
  8
1
 10
-1910.289267257173
 20
46.74476219299348
 40
4.999999999999999
 50
289.9818010623877
 51
0.0000000000000000
 71
0
  1
Size: IT38
  0
TEXT
  8
1
 10
-1905.120360603756
 20
48.62423126915959
 40
4.999999999999999
 50
289.9818010623877
 51
0.0000000000000000
 71
0
  1
Piece Name: ZSEBPANT 2X
  0
TEXT
  8
1
 10
-1915.458173910589
 20
44.86529311682737
 40
4.999999999999999
 50
289.9818010623877
 51
0.0000000000000000
 71
0
  1
Quantity: 2
  0
TEXT
  8
1
 10
-1920.627080564006
 20
42.98582404066126
 40
4.999999999999999
 50
289.9818010623877
 51
0.0000000000000000
 71
0
  1
Material: ALAP+VETEX
  0
TEXT
  8
1
 10
-1925.795987217423
 20
41.10635496449515
 40
4.999999999999999
 50
289.9818010623877
 51
0.0000000000000000
 71
0
  1
Area: 0.0187 sq.m
  0
POLYLINE
  8
1
 66
1
 70
1
  0
VERTEX
  8
1
 10
-1852.979882066883
 20
-52.63264312531837
  0
VERTEX
  8
1
 10
-1914.066880177065
 20
-74.84454982423303
  0
VERTEX
  8
1
 10
-1978.979632700775
 20
103.6779426716954
  0
VERTEX
  8
1
 10
-1917.892462903819
 20
125.8898462274271
  0
SEQEND
  0
POLYLINE
  8
14
 66
1
 70
1
  0
VERTEX
  8
14
 10
-1856.397094726563
 20
-43.23462963104248
  0
VERTEX
  8
14
 10
-1908.086090087891
 20
-62.02931880950928
  0
VERTEX
  8
14
 10
-1966.164398193359
 20
97.69714355468750
  0
VERTEX
  8
14
 10
-1914.475250244141
 20
116.4918327331543
  0
SEQEND
  0
POINT
  8
2
 10
-1856.397094726563
 20
-43.23462963104248
  0
TEXT
  8
2
 10
-1856.397094726563
 20
-43.23462963104248
 40
8.000000000000000
 50
0.0000000000000000
 51
0.0000000000000000
 71
0
  1
# 193
  0
POINT
  8
2
 10
-1908.086090087891
 20
-62.02931880950928
  0
TEXT
  8
2
 10
-1908.086090087891
 20
-62.02931880950928
 40
8.000000000000000
 50
0.0000000000000000
 51
0.0000000000000000
 71
0
  1
# 194
  0
POINT
  8
2
 10
-1966.164398193359
 20
97.69714355468750
  0
TEXT
  8
2
 10
-1966.164398193359
 20
97.69714355468750
 40
8.000000000000000
 50
0.0000000000000000
 51
0.0000000000000000
 71
0
  1
# 195
  0
POINT
  8
2
 10
-1914.475250244141
 20
116.4918327331543
  0
TEXT
  8
2
 10
-1914.475250244141
 20
116.4918327331543
 40
8.000000000000000
 50
0.0000000000000000
 51
0.0000000000000000
 71
0
  1
# 196
  0
POINT
  8
2
 10
-1852.979882066883
 20
-52.63264312531837
  0
TEXT
  8
2
 10
-1852.979882066883
 20
-52.63264312531837
 40
8.000000000000000
 50
0.0000000000000000
 51
0.0000000000000000
 71
0
  1
# 197
  0
POINT
  8
2
 10
-1914.066880177065
 20
-74.84454982423303
  0
TEXT
  8
2
 10
-1914.066880177065
 20
-74.84454982423303
 40
8.000000000000000
 50
0.0000000000000000
 51
0.0000000000000000
 71
0
  1
# 198
  0
POINT
  8
2
 10
-1978.979632700775
 20
103.6779426716954
  0
TEXT
  8
2
 10
-1978.979632700775
 20
103.6779426716954
 40
8.000000000000000
 50
0.0000000000000000
 51
0.0000000000000000
 71
0
  1
# 199
  0
POINT
  8
2
 10
-1917.892462903819
 20
125.8898462274271
  0
TEXT
  8
2
 10
-1917.892462903819
 20
125.8898462274271
 40
8.000000000000000
 50
0.0000000000000000
 51
0.0000000000000000
 71
0
  1
# 200
  0
POINT
  8
4
 10
-1852.979882066883
 20
-52.63264312531837
 30
4.000000059604684
 50
109.9817776366213
  0
POINT
  8
4
 10
-1917.892462903819
 20
125.8898462274271
 30
4.000000059604684
 50
-70.01822236337873
  0
POINT
  8
4
 10
-1856.397094726563
 20
-43.23462963104248
 30
4.000000059604688
 50
109.9817776366213
  0
POINT
  8
4
 10
-1914.475250244141
 20
116.4918327331543
 30
4.000000059604684
 50
-70.01822236337873
  0
POLYLINE
  8
8
 66
1
 70
0
  0
VERTEX
  8
8
 10
-1966.164398193359
 20
97.69714355468750
  0
VERTEX
  8
8
 10
-1908.086090087891
 20
-62.02931880950928
  0
SEQEND
  0
POINT
  8
2
 10
-1966.164398193359
 20
97.69714355468750
  0
TEXT
  8
2
 10
-1966.164398193359
 20
97.69714355468750
 40
8.000000000000000
 50
0.0000000000000000
 51
0.0000000000000000
 71
0
  1
# 201
  0
POINT
  8
2
 10
-1908.086090087891
 20
-62.02931880950928
  0
TEXT
  8
2
 10
-1908.086090087891
 20
-62.02931880950928
 40
8.000000000000000
 50
0.0000000000000000
 51
0.0000000000000000
 71
0
  1
# 202
  0
LINE
  8
6
 10
-1852.979882066883
 20
-52.63264312531837
 11
-1917.892462903819
 21
125.8898462274271
  0
ENDBLK
  0
BLOCK
  8
1
  2
6
 70
64
 10
0.0
 20
0.0
  0
LINE
  8
7
 10
-181.5512466430664
 20
-390.6348419189453
 11
-181.5512466430664
 21
-498.6347961425781
  0
TEXT
  8
1
 10
-180.4512471975734
 20
-398.1347808706716
 40
4.999999999999999
 50
270.0000006832453
 51
0.0000000000000000
 71
0
  1
Size: IT38
  0
TEXT
  8
1
 10
-174.9512471975734
 20
-398.1347808050848
 40
4.999999999999999
 50
270.0000006832453
 51
0.0000000000000000
 71
0
  1
Piece Name: UJJA  ALJA PASSZE 2X
  0
TEXT
  8
1
 10
-185.9512471975734
 20
-398.1347809362586
 40
4.999999999999999
 50
270.0000006832453
 51
0.0000000000000000
 71
0
  1
Quantity: 2
  0
TEXT
  8
1
 10
-191.4512471975734
 20
-398.1347810018453
 40
4.999999999999999
 50
270.0000006832453
 51
0.0000000000000000
 71
0
  1
Material: PASSZE
  0
TEXT
  8
1
 10
-196.9512471975733
 20
-398.1347810674322
 40
4.999999999999999
 50
270.0000006832453
 51
0.0000000000000000
 71
0
  1
Area: 0.0449 sq.m
  0
POLYLINE
  8
1
 66
1
 70
1
  0
VERTEX
  8
1
 10
-83.16429416412582
 20
-414.6347808837891
  0
VERTEX
  8
1
 10
-81.71743178958027
 20
-447.2178488103385
 70
8
  0
VERTEX
  8
1
 10
-80.03041853134604
 20
-465.7525960239403
 70
8
  0
VERTEX
  8
1
 10
-75.81249821664933
 20
-494.2293579029875
 70
8
  0
VERTEX
  8
1
 10
-73.06772455491085
 20
-513.2163394104803
 70
8
  0
VERTEX
  8
1
 10
-72.07282775573405
 20
-522.7446053897440
 70
8
  0
VERTEX
  8
1
 10
-71.11703979965844
 20
-540.6564881798747
 70
8
  0
VERTEX
  8
1
 10
-70.87863571630513
 20
-549.6347808837891
  0
VERTEX
  8
1
 10
-181.5512466430664
 20
-549.6347808837891
  0
VERTEX
  8
1
 10
-292.2239818903602
 20
-549.6347808837891
  0
VERTEX
  8
1
 10
-291.3658659261369
 20
-527.2137309239915
 70
8
  0
VERTEX
  8
1
 10
-291.0296521740788
 20
-522.7448838156580
 70
8
  0
VERTEX
  8
1
 10
-288.7487414984705
 20
-503.7147638230437
 70
8
  0
VERTEX
  8
1
 10
-283.6718080345390
 20
-470.5078491378335
 70
8
  0
VERTEX
  8
1
 10
-283.0718486097335
 20
-465.7512766123417
 70
8
  0
VERTEX
  8
1
 10
-281.3832562647297
 20
-447.2169697459867
 70
8
  0
VERTEX
  8
1
 10
-279.9318928669455
 20
-414.6347808837891
  0
SEQEND
  0
POLYLINE
  8
14
 66
1
 70
1
  0
VERTEX
  8
14
 10
-93.18306922912598
 20
-414.6347808837891
  0
VERTEX
  8
14
 10
-92.06374043336518
 20
-443.1228198794428
 70
8
  0
VERTEX
  8
14
 10
-90.53513914009613
 20
-462.0386124488443
 70
8
  0
VERTEX
  8
14
 10
-89.98795509338379
 20
-466.7514801025391
 70
8
  0
VERTEX
  8
14
 10
-83.47567550702165
 20
-509.3831067193051
 70
8
  0
VERTEX
  8
14
 10
-82.04203605651855
 20
-523.6598968505859
 70
8
  0
VERTEX
  8
14
 10
-81.55464172363281
 20
-534.6347808837891
  0
VERTEX
  8
14
 10
-181.5512466430664
 20
-534.6347808837891
  0
VERTEX
  8
14
 10
-281.5478897094727
 20
-534.6347808837891
  0
VERTEX
  8
14
 10
-281.0604476928711
 20
-523.6602020263672
 70
8
  0
VERTEX
  8
14
 10
-279.6269438326602
 20
-509.3831430177653
 70
8
  0
VERTEX
  8
14
 10
-273.1143951416016
 20
-466.7507553100586
 70
8
  0
VERTEX
  8
14
 10
-271.3347979631828
 20
-447.8594851970405
 70
8
  0
VERTEX
  8
14
 10
-270.0575355471876
 20
-419.3868808632742
 70
8
  0
VERTEX
  8
14
 10
-269.9130439758301
 20
-414.6347808837891
  0
SEQEND
  0
POINT
  8
2
 10
-93.18306922912598
 20
-414.6347808837891
  0
TEXT
  8
2
 10
-93.18306922912598
 20
-414.6347808837891
 40
8.000000000000000
 50
0.0000000000000000
 51
0.0000000000000000
 71
0
  1
# 203
  0
POINT
  8
2
 10
-81.55464172363281
 20
-534.6347808837891
  0
TEXT
  8
2
 10
-81.55464172363281
 20
-534.6347808837891
 40
8.000000000000000
 50
0.0000000000000000
 51
0.0000000000000000
 71
0
  1
# 204
  0
POINT
  8
2
 10
-181.5512466430664
 20
-534.6347808837891
  0
TEXT
  8
2
 10
-181.5512466430664
 20
-534.6347808837891
 40
8.000000000000000
 50
0.0000000000000000
 51
0.0000000000000000
 71
0
  1
# 205
  0
POINT
  8
2
 10
-281.5478897094727
 20
-534.6347808837891
  0
TEXT
  8
2
 10
-281.5478897094727
 20
-534.6347808837891
 40
8.000000000000000
 50
0.0000000000000000
 51
0.0000000000000000
 71
0
  1
# 206
  0
POINT
  8
2
 10
-269.9130439758301
 20
-414.6347808837891
  0
TEXT
  8
2
 10
-269.9130439758301
 20
-414.6347808837891
 40
8.000000000000000
 50
0.0000000000000000
 51
0.0000000000000000
 71
0
  1
# 207
  0
POINT
  8
2
 10
-83.16429416412582
 20
-414.6347808837891
  0
TEXT
  8
2
 10
-83.16429416412582
 20
-414.6347808837891
 40
8.000000000000000
 50
0.0000000000000000
 51
0.0000000000000000
 71
0
  1
# 208
  0
POINT
  8
2
 10
-70.87863571630513
 20
-549.6347808837891
  0
TEXT
  8
2
 10
-70.87863571630513
 20
-549.6347808837891
 40
8.000000000000000
 50
0.0000000000000000
 51
0.0000000000000000
 71
0
  1
# 209
  0
POINT
  8
2
 10
-181.5512466430664
 20
-549.6347808837891
  0
TEXT
  8
2
 10
-181.5512466430664
 20
-549.6347808837891
 40
8.000000000000000
 50
0.0000000000000000
 51
0.0000000000000000
 71
0
  1
# 210
  0
POINT
  8
2
 10
-292.2239818903602
 20
-549.6347808837891
  0
TEXT
  8
2
 10
-292.2239818903602
 20
-549.6347808837891
 40
8.000000000000000
 50
0.0000000000000000
 51
0.0000000000000000
 71
0
  1
# 211
  0
POINT
  8
2
 10
-279.9318928669455
 20
-414.6347808837891
  0
TEXT
  8
2
 10
-279.9318928669455
 20
-414.6347808837891
 40
8.000000000000000
 50
0.0000000000000000
 51
0.0000000000000000
 71
0
  1
# 212
  0
POINT
  8
3
 10
-81.71743178958027
 20
-447.2178488103385
  0
POINT
  8
3
 10
-80.03041853134604
 20
-465.7525960239403
  0
POINT
  8
3
 10
-75.81249821664933
 20
-494.2293579029875
  0
POINT
  8
3
 10
-73.06772455491085
 20
-513.2163394104803
  0
POINT
  8
3
 10
-72.07282775573405
 20
-522.7446053897440
  0
POINT
  8
3
 10
-71.11703979965844
 20
-540.6564881798747
  0
POINT
  8
3
 10
-70.99035369877289
 20
-545.1449360534303
  0
POINT
  8
3
 10
-291.3658659261369
 20
-527.2137309239915
  0
POINT
  8
3
 10
-291.0296521740788
 20
-522.7448838156580
  0
POINT
  8
3
 10
-288.7487414984705
 20
-503.7147638230437
  0
POINT
  8
3
 10
-283.6718080345390
 20
-470.5078491378335
  0
POINT
  8
3
 10
-283.0718486097335
 20
-465.7512766123417
  0
POINT
  8
3
 10
-281.3832562647297
 20
-447.2169697459867
  0
POINT
  8
3
 10
-280.0871552326558
 20
-419.2944754605040
  0
POINT
  8
4
 10
-83.16429416412582
 20
-414.6347808837891
 30
4.000000059604645
 50
180.0000000000000
  0
POINT
  8
4
 10
-181.5512466430664
 20
-549.6347808837891
 30
4.000000059604645
 50
90.00000000000000
  0
POINT
  8
4
 10
-279.9318928669455
 20
-414.6347808837891
 30
4.000000059604645
 50
0.0000000000000000
  0
POINT
  8
4
 10
-93.18306922912598
 20
-414.6347808837891
 30
4.000000059604645
 50
180.0000000000000
  0
POINT
  8
4
 10
-181.5512466430664
 20
-534.6347808837891
 30
4.000000059604645
 50
90.00000000000000
  0
POINT
  8
4
 10
-269.9130439758301
 20
-414.6347808837891
 30
4.000000059604645
 50
0.0000000000000000
  0
LINE
  8
6
 10
-83.16429416412582
 20
-414.6347808837891
 11
-279.9318928669455
 21
-414.6347808837891
  0
ENDBLK
  0
BLOCK
  8
1
  2
7
 70
64
 10
0.0
 20
0.0
  0
LINE
  8
7
 10
-1124.561920166016
 20
-318.7529373168945
 11
-1124.561920166016
 21
-426.7529296875000
  0
TEXT
  8
1
 10
-1121.740421250098
 20
-276.5654122492977
 40
12.82500028610229
 50
270.0000006832453
 51
0.0000000000000000
 71
0
  1
Size: IT38
  0
TEXT
  8
1
 10
-1107.632920935385
 20
-276.5654120810674
 40
12.82500028610229
 50
270.0000006832453
 51
0.0000000000000000
 71
0
  1
Piece Name: ALJA PASSZE 1X
  0
TEXT
  8
1
 10
-1135.847921564810
 20
-276.5654124175280
 40
12.82500028610229
 50
270.0000006832453
 51
0.0000000000000000
 71
0
  1
Quantity: 1
  0
TEXT
  8
1
 10
-1149.955421879523
 20
-276.5654125857582
 40
12.82500028610229
 50
270.0000006832453
 51
0.0000000000000000
 71
0
  1
Material: PASSZE
  0
TEXT
  8
1
 10
-1164.062922194235
 20
-276.5654127539884
 40
12.82500028610229
 50
270.0000006832453
 51
0.0000000000000000
 71
0
  1
Area: 0.1896 sq.m
  0
POLYLINE
  8
1
 66
1
 70
1
  0
VERTEX
  8
1
 10
-1124.561920166016
 20
-513.6470413208008
  0
VERTEX
  8
1
 10
-1349.561920166016
 20
-513.6470413208008
  0
VERTEX
  8
1
 10
-1534.561920166016
 20
-513.6470413208008
  0
VERTEX
  8
1
 10
-1534.561920166016
 20
-378.6470413208008
  0
VERTEX
  8
1
 10
-1534.561920166016
 20
-243.6470413208008
  0
VERTEX
  8
1
 10
-1349.561920166016
 20
-243.6470413208008
  0
VERTEX
  8
1
 10
-1124.561920166016
 20
-243.6470413208008
  0
SEQEND
  0
POLYLINE
  8
14
 66
1
 70
1
  0
VERTEX
  8
14
 10
-1124.561920166016
 20
-498.6470413208008
  0
VERTEX
  8
14
 10
-1349.561920166016
 20
-498.6470413208008
  0
VERTEX
  8
14
 10
-1519.561920166016
 20
-498.6470413208008
  0
VERTEX
  8
14
 10
-1519.561920166016
 20
-378.6470413208008
  0
VERTEX
  8
14
 10
-1519.561920166016
 20
-258.6470413208008
  0
VERTEX
  8
14
 10
-1349.561920166016
 20
-258.6470413208008
  0
VERTEX
  8
14
 10
-1124.561920166016
 20
-258.6470413208008
  0
SEQEND
  0
POINT
  8
2
 10
-1124.561920166016
 20
-498.6470413208008
  0
TEXT
  8
2
 10
-1124.561920166016
 20
-498.6470413208008
 40
8.000000000000000
 50
0.0000000000000000
 51
0.0000000000000000
 71
0
  1
# 213
  0
POINT
  8
2
 10
-1349.561920166016
 20
-498.6470413208008
  0
TEXT
  8
2
 10
-1349.561920166016
 20
-498.6470413208008
 40
8.000000000000000
 50
0.0000000000000000
 51
0.0000000000000000
 71
0
  1
# 214
  0
POINT
  8
2
 10
-1519.561920166016
 20
-498.6470413208008
  0
TEXT
  8
2
 10
-1519.561920166016
 20
-498.6470413208008
 40
8.000000000000000
 50
0.0000000000000000
 51
0.0000000000000000
 71
0
  1
# 215
  0
POINT
  8
2
 10
-1519.561920166016
 20
-378.6470413208008
  0
TEXT
  8
2
 10
-1519.561920166016
 20
-378.6470413208008
 40
8.000000000000000
 50
0.0000000000000000
 51
0.0000000000000000
 71
0
  1
# 216
  0
POINT
  8
2
 10
-1519.561920166016
 20
-258.6470413208008
  0
TEXT
  8
2
 10
-1519.561920166016
 20
-258.6470413208008
 40
8.000000000000000
 50
0.0000000000000000
 51
0.0000000000000000
 71
0
  1
# 217
  0
POINT
  8
2
 10
-1349.561920166016
 20
-258.6470413208008
  0
TEXT
  8
2
 10
-1349.561920166016
 20
-258.6470413208008
 40
8.000000000000000
 50
0.0000000000000000
 51
0.0000000000000000
 71
0
  1
# 218
  0
POINT
  8
2
 10
-1124.561920166016
 20
-258.6470413208008
  0
TEXT
  8
2
 10
-1124.561920166016
 20
-258.6470413208008
 40
8.000000000000000
 50
0.0000000000000000
 51
0.0000000000000000
 71
0
  1
# 219
  0
POINT
  8
2
 10
-1124.561920166016
 20
-513.6470413208008
  0
TEXT
  8
2
 10
-1124.561920166016
 20
-513.6470413208008
 40
8.000000000000000
 50
0.0000000000000000
 51
0.0000000000000000
 71
0
  1
# 220
  0
POINT
  8
2
 10
-1349.561920166016
 20
-513.6470413208008
  0
TEXT
  8
2
 10
-1349.561920166016
 20
-513.6470413208008
 40
8.000000000000000
 50
0.0000000000000000
 51
0.0000000000000000
 71
0
  1
# 221
  0
POINT
  8
2
 10
-1534.561920166016
 20
-513.6470413208008
  0
TEXT
  8
2
 10
-1534.561920166016
 20
-513.6470413208008
 40
8.000000000000000
 50
0.0000000000000000
 51
0.0000000000000000
 71
0
  1
# 222
  0
POINT
  8
2
 10
-1534.561920166016
 20
-378.6470413208008
  0
TEXT
  8
2
 10
-1534.561920166016
 20
-378.6470413208008
 40
8.000000000000000
 50
0.0000000000000000
 51
0.0000000000000000
 71
0
  1
# 223
  0
POINT
  8
2
 10
-1534.561920166016
 20
-243.6470413208008
  0
TEXT
  8
2
 10
-1534.561920166016
 20
-243.6470413208008
 40
8.000000000000000
 50
0.0000000000000000
 51
0.0000000000000000
 71
0
  1
# 224
  0
POINT
  8
2
 10
-1349.561920166016
 20
-243.6470413208008
  0
TEXT
  8
2
 10
-1349.561920166016
 20
-243.6470413208008
 40
8.000000000000000
 50
0.0000000000000000
 51
0.0000000000000000
 71
0
  1
# 225
  0
POINT
  8
2
 10
-1124.561920166016
 20
-243.6470413208008
  0
TEXT
  8
2
 10
-1124.561920166016
 20
-243.6470413208008
 40
8.000000000000000
 50
0.0000000000000000
 51
0.0000000000000000
 71
0
  1
# 226
  0
POINT
  8
4
 10
-1124.561920166016
 20
-513.6470413208008
 30
4.000000059604645
 50
90.00000000000000
  0
POINT
  8
4
 10
-1519.561920166016
 20
-513.6470413208008
 30
4.000000059604645
 50
90.00000000000000
  0
POINT
  8
4
 10
-1349.561920166016
 20
-513.6470413208008
 30
4.000000059604645
 50
90.00000000000000
  0
POINT
  8
4
 10
-1534.561920166016
 20
-378.6470413208008
 30
4.000000059604645
 50
0.0000000000000000
  0
POINT
  8
4
 10
-1519.561920166016
 20
-243.6470413208008
 30
4.000000059604645
 50
-90.00000000000000
  0
POINT
  8
4
 10
-1349.561920166016
 20
-243.6470413208008
 30
4.000000059604645
 50
-90.00000000000000
  0
POINT
  8
4
 10
-1124.561920166016
 20
-243.6470413208008
 30
4.000000059604645
 50
-90.00000000000000
  0
POINT
  8
4
 10
-1124.561920166016
 20
-498.6470413208008
 30
4.000000059604645
 50
90.00000000000000
  0
POINT
  8
4
 10
-1349.561920166016
 20
-498.6470413208008
 30
4.000000059604645
 50
90.00000000000000
  0
POINT
  8
4
 10
-1519.561920166016
 20
-498.6470413208008
 30
4.000000059604716
 50
90.00000000000000
  0
POINT
  8
4
 10
-1519.561920166016
 20
-378.6470413208008
 30
4.000000059604645
 50
0.0000000000000000
  0
POINT
  8
4
 10
-1519.561920166016
 20
-258.6470413208008
 30
4.000000059604716
 50
-90.00000000000000
  0
POINT
  8
4
 10
-1349.561920166016
 20
-258.6470413208008
 30
4.000000059604645
 50
-90.00000000000000
  0
POINT
  8
4
 10
-1124.561920166016
 20
-258.6470413208008
 30
4.000000059604645
 50
-90.00000000000000
  0
LINE
  8
6
 10
-1124.561920166016
 20
-513.6470413208008
 11
-1124.561920166016
 21
-243.6470413208008
  0
ENDBLK
  0
BLOCK
  8
1
  2
8
 70
64
 10
0.0
 20
0.0
  0
LINE
  8
7
 10
-1627.252349853516
 20
681.7173004150391
 11
-1627.252349853516
 21
573.7173080444336
  0
TEXT
  8
1
 10
-1624.430851121122
 20
739.2948258259587
 40
12.82500028610229
 50
270.0000006832453
 51
0.0000000000000000
 71
0
  1
Size: IT38
  0
TEXT
  8
1
 10
-1610.323350806409
 20
739.2948259941888
 40
12.82500028610229
 50
270.0000006832453
 51
0.0000000000000000
 71
0
  1
Piece Name: NYAKPANT PASSZE 1X
  0
TEXT
  8
1
 10
-1638.538351435834
 20
739.2948256577284
 40
12.82500028610229
 50
270.0000006832453
 51
0.0000000000000000
 71
0
  1
Quantity: 1
  0
TEXT
  8
1
 10
-1652.645851750547
 20
739.2948254894982
 40
12.82500028610229
 50
270.0000006832453
 51
0.0000000000000000
 71
0
  1
Material: PASSZE
  0
TEXT
  8
1
 10
-1666.753352065259
 20
739.2948253212678
 40
12.82500028610229
 50
270.0000006832453
 51
0.0000000000000000
 71
0
  1
Area: 0.0823 sq.m
  0
POLYLINE
  8
1
 66
1
 70
1
  0
VERTEX
  8
1
 10
-1627.252349853516
 20
521.8231964111328
  0
VERTEX
  8
1
 10
-1734.752349853516
 20
521.8231964111328
  0
VERTEX
  8
1
 10
-1884.252319335938
 20
521.8231964111328
  0
VERTEX
  8
1
 10
-1884.252319335938
 20
621.8231964111328
  0
VERTEX
  8
1
 10
-1884.252319335938
 20
721.8231964111328
  0
VERTEX
  8
1
 10
-1734.752349853516
 20
721.8231964111328
  0
VERTEX
  8
1
 10
-1627.252349853516
 20
721.8231964111328
  0
SEQEND
  0
POLYLINE
  8
14
 66
1
 70
1
  0
VERTEX
  8
14
 10
-1627.252349853516
 20
536.8231964111328
  0
VERTEX
  8
14
 10
-1734.752349853516
 20
536.8231964111328
  0
VERTEX
  8
14
 10
-1869.252319335938
 20
536.8231964111328
  0
VERTEX
  8
14
 10
-1869.252319335938
 20
621.8231964111328
  0
VERTEX
  8
14
 10
-1869.252319335938
 20
706.8231964111328
  0
VERTEX
  8
14
 10
-1734.752349853516
 20
706.8231964111328
  0
VERTEX
  8
14
 10
-1627.252349853516
 20
706.8231964111328
  0
SEQEND
  0
POINT
  8
2
 10
-1627.252349853516
 20
536.8231964111328
  0
TEXT
  8
2
 10
-1627.252349853516
 20
536.8231964111328
 40
8.000000000000000
 50
0.0000000000000000
 51
0.0000000000000000
 71
0
  1
# 227
  0
POINT
  8
2
 10
-1734.752349853516
 20
536.8231964111328
  0
TEXT
  8
2
 10
-1734.752349853516
 20
536.8231964111328
 40
8.000000000000000
 50
0.0000000000000000
 51
0.0000000000000000
 71
0
  1
# 228
  0
POINT
  8
2
 10
-1869.252319335938
 20
536.8231964111328
  0
TEXT
  8
2
 10
-1869.252319335938
 20
536.8231964111328
 40
8.000000000000000
 50
0.0000000000000000
 51
0.0000000000000000
 71
0
  1
# 229
  0
POINT
  8
2
 10
-1869.252319335938
 20
621.8231964111328
  0
TEXT
  8
2
 10
-1869.252319335938
 20
621.8231964111328
 40
8.000000000000000
 50
0.0000000000000000
 51
0.0000000000000000
 71
0
  1
# 230
  0
POINT
  8
2
 10
-1869.252319335938
 20
706.8231964111328
  0
TEXT
  8
2
 10
-1869.252319335938
 20
706.8231964111328
 40
8.000000000000000
 50
0.0000000000000000
 51
0.0000000000000000
 71
0
  1
# 231
  0
POINT
  8
2
 10
-1734.752349853516
 20
706.8231964111328
  0
TEXT
  8
2
 10
-1734.752349853516
 20
706.8231964111328
 40
8.000000000000000
 50
0.0000000000000000
 51
0.0000000000000000
 71
0
  1
# 232
  0
POINT
  8
2
 10
-1627.252349853516
 20
706.8231964111328
  0
TEXT
  8
2
 10
-1627.252349853516
 20
706.8231964111328
 40
8.000000000000000
 50
0.0000000000000000
 51
0.0000000000000000
 71
0
  1
# 233
  0
POINT
  8
2
 10
-1627.252349853516
 20
521.8231964111328
  0
TEXT
  8
2
 10
-1627.252349853516
 20
521.8231964111328
 40
8.000000000000000
 50
0.0000000000000000
 51
0.0000000000000000
 71
0
  1
# 234
  0
POINT
  8
2
 10
-1734.752349853516
 20
521.8231964111328
  0
TEXT
  8
2
 10
-1734.752349853516
 20
521.8231964111328
 40
8.000000000000000
 50
0.0000000000000000
 51
0.0000000000000000
 71
0
  1
# 235
  0
POINT
  8
2
 10
-1884.252319335938
 20
521.8231964111328
  0
TEXT
  8
2
 10
-1884.252319335938
 20
521.8231964111328
 40
8.000000000000000
 50
0.0000000000000000
 51
0.0000000000000000
 71
0
  1
# 236
  0
POINT
  8
2
 10
-1884.252319335938
 20
621.8231964111328
  0
TEXT
  8
2
 10
-1884.252319335938
 20
621.8231964111328
 40
8.000000000000000
 50
0.0000000000000000
 51
0.0000000000000000
 71
0
  1
# 237
  0
POINT
  8
2
 10
-1884.252319335938
 20
721.8231964111328
  0
TEXT
  8
2
 10
-1884.252319335938
 20
721.8231964111328
 40
8.000000000000000
 50
0.0000000000000000
 51
0.0000000000000000
 71
0
  1
# 238
  0
POINT
  8
2
 10
-1734.752349853516
 20
721.8231964111328
  0
TEXT
  8
2
 10
-1734.752349853516
 20
721.8231964111328
 40
8.000000000000000
 50
0.0000000000000000
 51
0.0000000000000000
 71
0
  1
# 239
  0
POINT
  8
2
 10
-1627.252349853516
 20
721.8231964111328
  0
TEXT
  8
2
 10
-1627.252349853516
 20
721.8231964111328
 40
8.000000000000000
 50
0.0000000000000000
 51
0.0000000000000000
 71
0
  1
# 240
  0
POINT
  8
4
 10
-1627.252349853516
 20
521.8231964111328
 30
4.000000059604645
 50
90.00000000000000
  0
POINT
  8
4
 10
-1869.252319335938
 20
521.8231964111328
 30
4.000000059604645
 50
90.00000000000000
  0
POINT
  8
4
 10
-1734.752349853516
 20
521.8231964111328
 30
4.000000059604645
 50
90.00000000000000
  0
POINT
  8
4
 10
-1884.252319335938
 20
621.8231964111328
 30
4.000000059604645
 50
0.0000000000000000
  0
POINT
  8
4
 10
-1869.252319335938
 20
721.8231964111328
 30
4.000000059604645
 50
-90.00000000000000
  0
POINT
  8
4
 10
-1734.752349853516
 20
721.8231964111328
 30
4.000000059604645
 50
-90.00000000000000
  0
POINT
  8
4
 10
-1627.252349853516
 20
721.8231964111328
 30
4.000000059604645
 50
-90.00000000000000
  0
POINT
  8
4
 10
-1627.252349853516
 20
536.8231964111328
 30
4.000000059604645
 50
90.00000000000000
  0
POINT
  8
4
 10
-1734.752349853516
 20
536.8231964111328
 30
4.000000059604645
 50
90.00000000000000
  0
POINT
  8
4
 10
-1869.252319335938
 20
536.8231964111328
 30
4.000000059604716
 50
90.00000000000000
  0
POINT
  8
4
 10
-1869.252319335938
 20
621.8231964111328
 30
4.000000059604645
 50
0.0000000000000000
  0
POINT
  8
4
 10
-1869.252319335938
 20
706.8231964111328
 30
4.000000059604787
 50
-90.00000000000000
  0
POINT
  8
4
 10
-1734.752349853516
 20
706.8231964111328
 30
4.000000059604645
 50
-90.00000000000000
  0
POINT
  8
4
 10
-1627.252349853516
 20
706.8231964111328
 30
4.000000059604645
 50
-90.00000000000000
  0
LINE
  8
6
 10
-1627.252349853516
 20
521.8231964111328
 11
-1627.252349853516
 21
721.8231964111328
  0
ENDBLK
  0
BLOCK
  8
1
  2
9
 70
64
 10
0.0
 20
0.0
  0
LINE
  8
7
 10
-2100.436401367188
 20
-12.08872914314270
 11
-2100.436401367188
 21
-92.08872795104980
  0
TEXT
  8
1
 10
-2099.182401811146
 20
-16.17872838670713
 40
5.699999928474425
 50
270.0000006832453
 51
0.0000000000000000
 71
0
  1
Size: IT38
  0
TEXT
  8
1
 10
-2092.912401889824
 20
-16.17872831193813
 40
5.699999928474425
 50
270.0000006832453
 51
0.0000000000000000
 71
0
  1
Piece Name: ZSEBLAP 4X
  0
TEXT
  8
1
 10
-2105.452401732467
 20
-16.17872846147613
 40
5.699999928474425
 50
270.0000006832453
 51
0.0000000000000000
 71
0
  1
Quantity: 4
  0
TEXT
  8
1
 10
-2111.722401653789
 20
-16.17872853624512
 40
5.699999928474425
 50
270.0000006832453
 51
0.0000000000000000
 71
0
  1
Material: ZSEBANYAG
  0
TEXT
  8
1
 10
-2117.992401575111
 20
-16.17872861101413
 40
5.699999928474425
 50
270.0000006832453
 51
0.0000000000000000
 71
0
  1
Area: 0.0277 sq.m
  0
POLYLINE
  8
1
 66
1
 70
1
  0
VERTEX
  8
1
 10
-2179.079573240478
 20
-140.3859043121338
  0
VERTEX
  8
1
 10
-2179.079754124632
 20
23.03132821979447
  0
VERTEX
  8
1
 10
-2081.638707614452
 20
57.89939464099515
 70
8
  0
VERTEX
  8
1
 10
-2015.888569423192
 20
81.80689795639809
  0
VERTEX
  8
1
 10
-1947.724542323434
 20
-105.6577143770017
  0
VERTEX
  8
1
 10
-1982.842061439490
 20
-119.8605378237942
 70
8
  0
VERTEX
  8
1
 10
-1987.275770665309
 20
-121.5291211009417
 70
8
  0
VERTEX
  8
1
 10
-2005.403154179939
 20
-127.7822369459546
 70
8
  0
VERTEX
  8
1
 10
-2014.605809927670
 20
-130.4545702117396
 70
8
  0
VERTEX
  8
1
 10
-2027.388663412194
 20
-133.4689984942090
 70
8
  0
VERTEX
  8
1
 10
-2040.321219623293
 20
-135.7934207513433
 70
8
  0
VERTEX
  8
1
 10
-2057.639898371442
 20
-137.9816121820479
 70
8
  0
VERTEX
  8
1
 10
-2066.333157256176
 20
-138.7462754589419
 70
8
  0
VERTEX
  8
1
 10
-2089.436866314054
 20
-139.9434706570850
 70
8
  0
VERTEX
  8
1
 10
-2117.210356054276
 20
-140.3820126159559
 70
8
  0
SEQEND
  0
POLYLINE
  8
14
 66
1
 70
1
  0
VERTEX
  8
14
 10
-2164.079589843750
 20
-125.3859043121338
  0
VERTEX
  8
14
 10
-2164.079742431641
 20
12.46746778488159
  0
VERTEX
  8
14
 10
-2076.548919677734
 20
43.78937721252441
 70
8
  0
VERTEX
  8
14
 10
-2024.859771728516
 20
62.58406162261963
  0
VERTEX
  8
14
 10
-1966.781616210938
 20
-97.14240074157715
  0
VERTEX
  8
14
 10
-1994.747464837598
 20
-108.2974366047443
 70
8
  0
VERTEX
  8
14
 10
-2008.911566173434
 20
-113.1575588025069
 70
8
  0
VERTEX
  8
14
 10
-2018.470611572266
 20
-115.9370899200439
 70
8
  0
VERTEX
  8
14
 10
-2032.933457233152
 20
-119.2589622712786
 70
8
  0
VERTEX
  8
14
 10
-2047.609297216686
 20
-121.6846068359331
 70
8
  0
VERTEX
  8
14
 10
-2067.422474603010
 20
-123.7735936997030
 70
8
  0
VERTEX
  8
14
 10
-2087.408067538245
 20
-124.8667096567164
 70
8
  0
VERTEX
  8
14
 10
-2117.451934814453
 20
-125.3859043121338
 70
8
  0
SEQEND
  0
POINT
  8
2
 10
-2164.079589843750
 20
-125.3859043121338
  0
TEXT
  8
2
 10
-2164.079589843750
 20
-125.3859043121338
 40
8.000000000000000
 50
0.0000000000000000
 51
0.0000000000000000
 71
0
  1
# 241
  0
POINT
  8
2
 10
-2164.079742431641
 20
12.46746778488159
  0
TEXT
  8
2
 10
-2164.079742431641
 20
12.46746778488159
 40
8.000000000000000
 50
0.0000000000000000
 51
0.0000000000000000
 71
0
  1
# 242
  0
POINT
  8
2
 10
-2076.548919677734
 20
43.78937721252441
  0
TEXT
  8
2
 10
-2076.548919677734
 20
43.78937721252441
 40
8.000000000000000
 50
0.0000000000000000
 51
0.0000000000000000
 71
0
  1
# 243
  0
POINT
  8
2
 10
-2024.859771728516
 20
62.58406162261963
  0
TEXT
  8
2
 10
-2024.859771728516
 20
62.58406162261963
 40
8.000000000000000
 50
0.0000000000000000
 51
0.0000000000000000
 71
0
  1
# 244
  0
POINT
  8
2
 10
-1966.781616210938
 20
-97.14240074157715
  0
TEXT
  8
2
 10
-1966.781616210938
 20
-97.14240074157715
 40
8.000000000000000
 50
0.0000000000000000
 51
0.0000000000000000
 71
0
  1
# 245
  0
POINT
  8
2
 10
-2018.470611572266
 20
-115.9370899200439
  0
TEXT
  8
2
 10
-2018.470611572266
 20
-115.9370899200439
 40
8.000000000000000
 50
0.0000000000000000
 51
0.0000000000000000
 71
0
  1
# 246
  0
POINT
  8
2
 10
-2179.079573240478
 20
-140.3859043121338
  0
TEXT
  8
2
 10
-2179.079573240478
 20
-140.3859043121338
 40
8.000000000000000
 50
0.0000000000000000
 51
0.0000000000000000
 71
0
  1
# 247
  0
POINT
  8
2
 10
-2179.079754124632
 20
23.03132821979447
  0
TEXT
  8
2
 10
-2179.079754124632
 20
23.03132821979447
 40
8.000000000000000
 50
0.0000000000000000
 51
0.0000000000000000
 71
0
  1
# 248
  0
POINT
  8
2
 10
-2081.638707614452
 20
57.89939464099515
  0
TEXT
  8
2
 10
-2081.638707614452
 20
57.89939464099515
 40
8.000000000000000
 50
0.0000000000000000
 51
0.0000000000000000
 71
0
  1
# 249
  0
POINT
  8
2
 10
-2015.888569423192
 20
81.80689795639809
  0
TEXT
  8
2
 10
-2015.888569423192
 20
81.80689795639809
 40
8.000000000000000
 50
0.0000000000000000
 51
0.0000000000000000
 71
0
  1
# 250
  0
POINT
  8
2
 10
-1947.724542323434
 20
-105.6577143770017
  0
TEXT
  8
2
 10
-1947.724542323434
 20
-105.6577143770017
 40
8.000000000000000
 50
0.0000000000000000
 51
0.0000000000000000
 71
0
  1
# 251
  0
POINT
  8
2
 10
-2014.605809927670
 20
-130.4545702117396
  0
TEXT
  8
2
 10
-2014.605809927670
 20
-130.4545702117396
 40
8.000000000000000
 50
0.0000000000000000
 51
0.0000000000000000
 71
0
  1
# 252
  0
POINT
  8
3
 10
-2081.638707614452
 20
57.89939464099515
  0
POINT
  8
3
 10
-1982.842061439490
 20
-119.8605378237942
  0
POINT
  8
3
 10
-1987.275770665309
 20
-121.5291211009417
  0
POINT
  8
3
 10
-2005.403154179939
 20
-127.7822369459546
  0
POINT
  8
3
 10
-2014.605809927670
 20
-130.4545702117396
  0
POINT
  8
3
 10
-2027.388663412194
 20
-133.4689984942090
  0
POINT
  8
3
 10
-2040.321219623293
 20
-135.7934207513433
  0
POINT
  8
3
 10
-2057.639898371442
 20
-137.9816121820479
  0
POINT
  8
3
 10
-2066.333157256176
 20
-138.7462754589419
  0
POINT
  8
3
 10
-2089.436866314054
 20
-139.9434706570850
  0
POINT
  8
3
 10
-2117.210356054276
 20
-140.3820126159559
  0
POINT
  8
3
 10
-2174.321434834347
 20
-140.4001238886333
  0
POINT
  8
4
 10
-2029.987374479743
 20
76.66471471242994
 30
4.000000059604646
 50
-69.96726810261289
  0
POINT
  8
4
 10
-1961.271905354259
 20
-111.2739709533784
 30
4.000000059604740
 50
111.2419279031890
  0
POINT
  8
4
 10
-2024.859771728516
 20
62.58406162261963
 30
4.000000059604584
 50
-70.00976875576602
  0
POINT
  8
4
 10
-1966.781616210938
 20
-97.14240074157715
 30
4.000000059604583
 50
111.2263758647846
  0
LINE
  8
8
 10
-2037.700653076172
 20
7.980149984359741
 11
-2010.362854003906
 21
-67.20395088195801
  0
POLYLINE
  8
8
 66
1
 70
0
  0
VERTEX
  8
8
 10
-2076.548919677734
 20
43.78937721252441
  0
VERTEX
  8
8
 10
-2018.470611572266
 20
-115.9370899200439
  0
SEQEND
  0
POINT
  8
2
 10
-2076.548919677734
 20
43.78937721252441
  0
TEXT
  8
2
 10
-2076.548919677734
 20
43.78937721252441
 40
8.000000000000000
 50
0.0000000000000000
 51
0.0000000000000000
 71
0
  1
# 253
  0
POINT
  8
2
 10
-2018.470611572266
 20
-115.9370899200439
  0
TEXT
  8
2
 10
-2018.470611572266
 20
-115.9370899200439
 40
8.000000000000000
 50
0.0000000000000000
 51
0.0000000000000000
 71
0
  1
# 254
  0
ENDBLK
  0
BLOCK
  8
1
  2
10
 70
64
 10
0.0
 20
0.0
  0
LINE
  8
7
 10
529.4276809692383
 20
-50.78940868377686
 11
529.4276809692383
 21
-66.46394252777100
  0
TEXT
  8
1
 10
488.9276809692383
 20
-57.52667560577392
 40
5.000000000000000
 50
0.0000000000000000
 51
0.0000000000000000
 71
0
  1
Size: IT38
  0
TEXT
  8
1
 10
488.9276809692383
 20
-52.02667560577392
 40
5.000000000000000
 50
0.0000000000000000
 51
0.0000000000000000
 71
0
  1
Piece Name: UJJA ALJA SABLON
  0
TEXT
  8
1
 10
488.9276809692383
 20
-63.02667560577392
 40
5.000000000000000
 50
0.0000000000000000
 51
0.0000000000000000
 71
0
  1
Quantity: 1
  0
TEXT
  8
1
 10
488.9276809692383
 20
-68.52667560577393
 40
5.000000000000000
 50
0.0000000000000000
 51
0.0000000000000000
 71
0
  1
Material: J
  0
TEXT
  8
1
 10
488.9276809692383
 20
-74.02667560577393
 40
5.000000000000000
 50
0.0000000000000000
 51
0.0000000000000000
 71
0
  1
Area: 0.0431 sq.m
  0
POLYLINE
  8
1
 66
1
 70
1
  0
VERTEX
  8
1
 10
756.3699631050624
 20
-148.2728242096715
  0
VERTEX
  8
1
 10
751.7492576164555
 20
-147.0905198727359
 70
8
  0
VERTEX
  8
1
 10
748.8259531252463
 20
-146.7857784155747
 70
8
  0
VERTEX
  8
1
 10
745.3727395705245
 20
-147.0124318586874
 70
8
  0
VERTEX
  8
1
 10
738.5375286899528
 20
-148.6395832000403
  0
VERTEX
  8
1
 10
735.8776092529297
 20
-133.8773059844971
  0
VERTEX
  8
1
 10
716.8861389160156
 20
-71.64575576782227
  0
VERTEX
  8
1
 10
697.9407501220703
 20
-133.8691997528076
  0
VERTEX
  8
1
 10
694.0148423826105
 20
-148.3463282119064
  0
VERTEX
  8
1
 10
689.8197512674071
 20
-147.3572203625340
 70
8
  0
VERTEX
  8
1
 10
685.6267924302451
 20
-146.8900476878322
 70
8
  0
VERTEX
  8
1
 10
680.8435215821535
 20
-147.4203154712652
 70
8
  0
VERTEX
  8
1
 10
676.0630307118673
 20
-148.6310612097577
  0
VERTEX
  8
1
 10
673.3765411376953
 20
-133.8735961914063
  0
VERTEX
  8
1
 10
654.4145965576172
 20
-71.64575576782227
  0
VERTEX
  8
1
 10
635.4407119750977
 20
-133.8691997528076
  0
VERTEX
  8
1
 10
631.5147923845707
 20
-148.3463249981288
  0
VERTEX
  8
1
 10
627.3197393532446
 20
-147.3572227659343
 70
8
  0
VERTEX
  8
1
 10
623.1268181494416
 20
-146.8900484327361
 70
8
  0
VERTEX
  8
1
 10
618.3435306486087
 20
-147.4203129687652
 70
8
  0
VERTEX
  8
1
 10
613.5630226064707
 20
-148.6310626852841
  0
VERTEX
  8
1
 10
610.8765411376953
 20
-133.8735961914063
  0
VERTEX
  8
1
 10
591.9145584106445
 20
-71.64575576782227
  0
VERTEX
  8
1
 10
572.9407119750977
 20
-133.8691997528076
  0
VERTEX
  8
1
 10
569.0147965077274
 20
-148.3463261162494
  0
VERTEX
  8
1
 10
564.8197263424918
 20
-147.3572212118028
 70
8
  0
VERTEX
  8
1
 10
560.6267883098699
 20
-146.8900484379167
 70
8
  0
VERTEX
  8
1
 10
555.8435196043737
 20
-147.4203147967523
 70
8
  0
VERTEX
  8
1
 10
551.0630307118672
 20
-148.6310612097577
  0
VERTEX
  8
1
 10
548.3765411376953
 20
-133.8735961914063
  0
VERTEX
  8
1
 10
529.4145965576172
 20
-71.64575576782227
  0
VERTEX
  8
1
 10
510.4407501220703
 20
-133.8694763183594
  0
VERTEX
  8
1
 10
506.5180974772737
 20
-148.3474871012076
  0
VERTEX
  8
1
 10
502.3193579864558
 20
-147.3580524968990
 70
8
  0
VERTEX
  8
1
 10
498.1225896905405
 20
-146.8893441215257
 70
8
  0
VERTEX
  8
1
 10
493.3175479076216
 20
-147.4193012808648
 70
8
  0
VERTEX
  8
1
 10
488.5150944793401
 20
-148.6330184010669
  0
VERTEX
  8
1
 10
485.8364868164063
 20
-133.8741207122803
  0
VERTEX
  8
1
 10
466.9628906250000
 20
-71.64575576782227
  0
VERTEX
  8
1
 10
447.9407501220703
 20
-133.8719081878662
  0
VERTEX
  8
1
 10
444.0110624110457
 20
-148.3480110644633
  0
VERTEX
  8
1
 10
439.8170778810984
 20
-147.3581257762661
 70
8
  0
VERTEX
  8
1
 10
435.6251717468167
 20
-146.8903377213497
 70
8
  0
VERTEX
  8
1
 10
430.8427143265757
 20
-147.4202971086330
 70
8
  0
VERTEX
  8
1
 10
426.0629669505461
 20
-148.6310251331860
  0
VERTEX
  8
1
 10
423.3765411376953
 20
-133.8735485076904
  0
VERTEX
  8
1
 10
404.4145965576172
 20
-71.64575576782227
  0
VERTEX
  8
1
 10
385.4407501220703
 20
-133.8691997528076
  0
VERTEX
  8
1
 10
381.5148423826104
 20
-148.3463282119064
  0
VERTEX
  8
1
 10
377.3197512674072
 20
-147.3572203625340
 70
8
  0
VERTEX
  8
1
 10
373.1267924302457
 20
-146.8900476878322
 70
8
  0
VERTEX
  8
1
 10
368.3435215821538
 20
-147.4203154712651
 70
8
  0
VERTEX
  8
1
 10
363.5630307118672
 20
-148.6310612097577
  0
VERTEX
  8
1
 10
360.8765411376953
 20
-133.8735961914063
  0
VERTEX
  8
1
 10
341.9145584106445
 20
-71.64575576782227
  0
VERTEX
  8
1
 10
322.9429626464844
 20
-133.8733577728271
  0
VERTEX
  8
1
 10
319.0462919167751
 20
-148.3583830480632
  0
VERTEX
  8
1
 10
314.1255293544925
 20
-147.1498615577634
 70
8
  0
VERTEX
  8
1
 10
310.5254002223477
 20
-146.7348264832125
 70
8
  0
VERTEX
  8
1
 10
307.1061498305137
 20
-147.0881241107072
 70
8
  0
VERTEX
  8
1
 10
302.1204793323077
 20
-148.3755177797241
  0
VERTEX
  8
1
 10
298.3702087402344
 20
-133.8519001007080
  0
VERTEX
  8
1
 10
279.4145965576172
 20
-71.64576530456543
  0
VERTEX
  8
1
 10
260.4546737670898
 20
-133.8497924804688
  0
VERTEX
  8
1
 10
256.3359167182580
 20
-148.2732400701644
  0
VERTEX
  8
1
 10
251.6795576776748
 20
-147.0856684648579
 70
8
  0
VERTEX
  8
1
 10
248.7118179181554
 20
-146.7838615589700
 70
8
  0
VERTEX
  8
1
 10
244.0049409238062
 20
-146.8599050175919
 70
8
  0
VERTEX
  8
1
 10
239.3307489298098
 20
-147.4510037566130
 70
8
  0
VERTEX
  8
1
 10
230.0477349425227
 20
-149.6633117954541
 70
8
  0
VERTEX
  8
1
 10
225.4225704490556
 20
-151.0269934550743
  0
VERTEX
  8
1
 10
201.9785846308991
 20
-74.09148074710434
  0
VERTEX
  8
1
 10
201.2572517933240
 20
-45.94890524858984
  0
VERTEX
  8
1
 10
216.2523269653320
 20
-45.56456089019775
  0
VERTEX
  8
1
 10
842.6030731201172
 20
-45.56456089019775
  0
VERTEX
  8
1
 10
857.5980553019737
 20
-45.95251625593974
  0
VERTEX
  8
1
 10
856.8700294026419
 20
-74.09166924204038
  0
VERTEX
  8
1
 10
833.4350492231781
 20
-151.0063231446930
  0
VERTEX
  8
1
 10
824.1469366183866
 20
-148.4041595128553
 70
8
  0
VERTEX
  8
1
 10
819.4833192672702
 20
-147.4295004510672
 70
8
  0
VERTEX
  8
1
 10
814.7962286576894
 20
-146.8465486942362
 70
8
  0
VERTEX
  8
1
 10
810.0778403701556
 20
-146.7858733440145
 70
8
  0
VERTEX
  8
1
 10
807.1516517306476
 20
-147.0905221147548
 70
8
  0
VERTEX
  8
1
 10
802.1345239720624
 20
-148.3796343117563
  0
VERTEX
  8
1
 10
798.4016418457031
 20
-133.8515377044678
  0
VERTEX
  8
1
 10
779.4477844238281
 20
-71.64565086364746
  0
VERTEX
  8
1
 10
760.4946136474609
 20
-133.8510608673096
  0
SEQEND
  0
POLYLINE
  8
14
 66
1
 70
1
  0
VERTEX
  8
14
 10
760.4946136474609
 20
-133.8510608673096
  0
VERTEX
  8
14
 10
754.4087982177734
 20
-132.2864818572998
 70
8
  0
VERTEX
  8
14
 10
751.3455712363530
 20
-131.8093382291751
 70
8
  0
VERTEX
  8
14
 10
748.2624816894531
 20
-131.6457557678223
 70
8
  0
VERTEX
  8
14
 10
744.1066041286070
 20
-131.9904078464453
 70
8
  0
VERTEX
  8
14
 10
735.8776092529297
 20
-133.8773059844971
  0
VERTEX
  8
14
 10
716.8861389160156
 20
-71.64575576782227
  0
VERTEX
  8
14
 10
697.9407501220703
 20
-133.8691997528076
  0
VERTEX
  8
14
 10
689.7229485136451
 20
-131.9718969280171
 70
8
  0
VERTEX
  8
14
 10
685.6145477294922
 20
-131.6457557678223
 70
8
  0
VERTEX
  8
14
 10
681.5348834140400
 20
-131.9790417803125
 70
8
  0
VERTEX
  8
14
 10
673.3765411376953
 20
-133.8735961914063
  0
VERTEX
  8
14
 10
654.4145965576172
 20
-71.64575576782227
  0
VERTEX
  8
14
 10
635.4407119750977
 20
-133.8691997528076
  0
VERTEX
  8
14
 10
627.2229615706522
 20
-131.9719006697397
 70
8
  0
VERTEX
  8
14
 10
623.1145858764648
 20
-131.6457557678223
 70
8
  0
VERTEX
  8
14
 10
619.0349091761134
 20
-131.9790380934053
 70
8
  0
VERTEX
  8
14
 10
610.8765411376953
 20
-133.8735961914063
  0
VERTEX
  8
14
 10
591.9145584106445
 20
-71.64575576782227
  0
VERTEX
  8
14
 10
572.9407119750977
 20
-133.8691997528076
  0
VERTEX
  8
14
 10
564.7229359111753
 20
-131.9718981725153
 70
8
  0
VERTEX
  8
14
 10
560.6145477294922
 20
-131.6457557678223
 70
8
  0
VERTEX
  8
14
 10
556.5348835237085
 20
-131.9790405540533
 70
8
  0
VERTEX
  8
14
 10
548.3765411376953
 20
-133.8735961914063
  0
VERTEX
  8
14
 10
529.4145965576172
 20
-71.64575576782227
  0
VERTEX
  8
14
 10
510.4407501220703
 20
-133.8694763183594
  0
VERTEX
  8
14
 10
502.2230900392306
 20
-131.9732298800703
 70
8
  0
VERTEX
  8
14
 10
498.1145858764648
 20
-131.6457557678223
 70
8
  0
VERTEX
  8
14
 10
494.0216705464297
 20
-131.9778425830167
 70
8
  0
VERTEX
  8
14
 10
485.8364868164063
 20
-133.8741207122803
  0
VERTEX
  8
14
 10
466.9628906250000
 20
-71.64575576782227
  0
VERTEX
  8
14
 10
447.9407501220703
 20
-133.8719081878662
  0
VERTEX
  8
14
 10
439.7230189288460
 20
-131.9725388160239
 70
8
  0
VERTEX
  8
14
 10
435.6145858764648
 20
-131.6457557678223
 70
8
  0
VERTEX
  8
14
 10
431.5349532324527
 20
-131.9787956308027
 70
8
  0
VERTEX
  8
14
 10
423.3765411376953
 20
-133.8735485076904
  0
VERTEX
  8
14
 10
404.4145965576172
 20
-71.64575576782227
  0
VERTEX
  8
14
 10
385.4407501220703
 20
-133.8691997528076
  0
VERTEX
  8
14
 10
377.2229485136451
 20
-131.9718969280171
 70
8
  0
VERTEX
  8
14
 10
373.1145477294922
 20
-131.6457557678223
 70
8
  0
VERTEX
  8
14
 10
369.0348834140399
 20
-131.9790417803125
 70
8
  0
VERTEX
  8
14
 10
360.8765411376953
 20
-133.8735961914063
  0
VERTEX
  8
14
 10
341.9145584106445
 20
-71.64575576782227
  0
VERTEX
  8
14
 10
322.9429626464844
 20
-133.8733577728271
  0
VERTEX
  8
14
 10
316.7888450622559
 20
-132.3575496673584
 70
8
  0
VERTEX
  8
14
 10
310.6145477294922
 20
-131.6457557678223
 70
8
  0
VERTEX
  8
14
 10
307.5157680481813
 20
-131.8046957550669
 70
8
  0
VERTEX
  8
14
 10
304.4452857971191
 20
-132.2832012176514
 70
8
  0
VERTEX
  8
14
 10
298.3702087402344
 20
-133.8519001007080
  0
VERTEX
  8
14
 10
279.4145965576172
 20
-71.64576530456543
  0
VERTEX
  8
14
 10
260.4546737670898
 20
-133.8497924804688
  0
VERTEX
  8
14
 10
254.3149948120117
 20
-132.2763156890869
 70
8
  0
VERTEX
  8
14
 10
251.2245646403896
 20
-131.8011612788262
 70
8
  0
VERTEX
  8
14
 10
248.1145477294922
 20
-131.6457557678223
 70
8
  0
VERTEX
  8
14
 10
244.0072789278307
 20
-131.9984182899194
 70
8
  0
VERTEX
  8
14
 10
235.8770370483398
 20
-133.8753414154053
  0
VERTEX
  8
14
 10
216.9214248657227
 20
-71.66920661926270
  0
VERTEX
  8
14
 10
216.2523269653320
 20
-45.56456089019775
  0
VERTEX
  8
14
 10
842.6030731201172
 20
-45.56456089019775
  0
VERTEX
  8
14
 10
841.9277191162109
 20
-71.66787624359131
  0
VERTEX
  8
14
 10
822.9744720458984
 20
-133.8732814788818
  0
VERTEX
  8
14
 10
814.7831026202014
 20
-131.9908464676460
 70
8
  0
VERTEX
  8
14
 10
810.6460571289063
 20
-131.6456413269043
 70
8
  0
VERTEX
  8
14
 10
807.5601962605868
 20
-131.8085836051741
 70
8
  0
VERTEX
  8
14
 10
804.4940948486328
 20
-132.2861289978027
 70
8
  0
VERTEX
  8
14
 10
798.4016418457031
 20
-133.8515377044678
  0
VERTEX
  8
14
 10
779.4477844238281
 20
-71.64565086364746
  0
SEQEND
  0
POINT
  8
2
 10
760.4946136474609
 20
-133.8510608673096
  0
TEXT
  8
2
 10
760.4946136474609
 20
-133.8510608673096
 40
8.000000000000000
 50
0.0000000000000000
 51
0.0000000000000000
 71
0
  1
# 255
  0
POINT
  8
2
 10
748.2624816894531
 20
-131.6457557678223
  0
TEXT
  8
2
 10
748.2624816894531
 20
-131.6457557678223
 40
8.000000000000000
 50
0.0000000000000000
 51
0.0000000000000000
 71
0
  1
# 256
  0
POINT
  8
2
 10
735.8776092529297
 20
-133.8773059844971
  0
TEXT
  8
2
 10
735.8776092529297
 20
-133.8773059844971
 40
8.000000000000000
 50
0.0000000000000000
 51
0.0000000000000000
 71
0
  1
# 257
  0
POINT
  8
2
 10
716.8861389160156
 20
-71.64575576782227
  0
TEXT
  8
2
 10
716.8861389160156
 20
-71.64575576782227
 40
8.000000000000000
 50
0.0000000000000000
 51
0.0000000000000000
 71
0
  1
# 258
  0
POINT
  8
2
 10
697.9407501220703
 20
-133.8691997528076
  0
TEXT
  8
2
 10
697.9407501220703
 20
-133.8691997528076
 40
8.000000000000000
 50
0.0000000000000000
 51
0.0000000000000000
 71
0
  1
# 259
  0
POINT
  8
2
 10
685.6145477294922
 20
-131.6457557678223
  0
TEXT
  8
2
 10
685.6145477294922
 20
-131.6457557678223
 40
8.000000000000000
 50
0.0000000000000000
 51
0.0000000000000000
 71
0
  1
# 260
  0
POINT
  8
2
 10
673.3765411376953
 20
-133.8735961914063
  0
TEXT
  8
2
 10
673.3765411376953
 20
-133.8735961914063
 40
8.000000000000000
 50
0.0000000000000000
 51
0.0000000000000000
 71
0
  1
# 261
  0
POINT
  8
2
 10
654.4145965576172
 20
-71.64575576782227
  0
TEXT
  8
2
 10
654.4145965576172
 20
-71.64575576782227
 40
8.000000000000000
 50
0.0000000000000000
 51
0.0000000000000000
 71
0
  1
# 262
  0
POINT
  8
2
 10
635.4407119750977
 20
-133.8691997528076
  0
TEXT
  8
2
 10
635.4407119750977
 20
-133.8691997528076
 40
8.000000000000000
 50
0.0000000000000000
 51
0.0000000000000000
 71
0
  1
# 263
  0
POINT
  8
2
 10
623.1145858764648
 20
-131.6457557678223
  0
TEXT
  8
2
 10
623.1145858764648
 20
-131.6457557678223
 40
8.000000000000000
 50
0.0000000000000000
 51
0.0000000000000000
 71
0
  1
# 264
  0
POINT
  8
2
 10
610.8765411376953
 20
-133.8735961914063
  0
TEXT
  8
2
 10
610.8765411376953
 20
-133.8735961914063
 40
8.000000000000000
 50
0.0000000000000000
 51
0.0000000000000000
 71
0
  1
# 265
  0
POINT
  8
2
 10
591.9145584106445
 20
-71.64575576782227
  0
TEXT
  8
2
 10
591.9145584106445
 20
-71.64575576782227
 40
8.000000000000000
 50
0.0000000000000000
 51
0.0000000000000000
 71
0
  1
# 266
  0
POINT
  8
2
 10
572.9407119750977
 20
-133.8691997528076
  0
TEXT
  8
2
 10
572.9407119750977
 20
-133.8691997528076
 40
8.000000000000000
 50
0.0000000000000000
 51
0.0000000000000000
 71
0
  1
# 267
  0
POINT
  8
2
 10
560.6145477294922
 20
-131.6457557678223
  0
TEXT
  8
2
 10
560.6145477294922
 20
-131.6457557678223
 40
8.000000000000000
 50
0.0000000000000000
 51
0.0000000000000000
 71
0
  1
# 268
  0
POINT
  8
2
 10
548.3765411376953
 20
-133.8735961914063
  0
TEXT
  8
2
 10
548.3765411376953
 20
-133.8735961914063
 40
8.000000000000000
 50
0.0000000000000000
 51
0.0000000000000000
 71
0
  1
# 269
  0
POINT
  8
2
 10
529.4145965576172
 20
-71.64575576782227
  0
TEXT
  8
2
 10
529.4145965576172
 20
-71.64575576782227
 40
8.000000000000000
 50
0.0000000000000000
 51
0.0000000000000000
 71
0
  1
# 270
  0
POINT
  8
2
 10
510.4407501220703
 20
-133.8694763183594
  0
TEXT
  8
2
 10
510.4407501220703
 20
-133.8694763183594
 40
8.000000000000000
 50
0.0000000000000000
 51
0.0000000000000000
 71
0
  1
# 271
  0
POINT
  8
2
 10
498.1145858764648
 20
-131.6457557678223
  0
TEXT
  8
2
 10
498.1145858764648
 20
-131.6457557678223
 40
8.000000000000000
 50
0.0000000000000000
 51
0.0000000000000000
 71
0
  1
# 272
  0
POINT
  8
2
 10
485.8364868164063
 20
-133.8741207122803
  0
TEXT
  8
2
 10
485.8364868164063
 20
-133.8741207122803
 40
8.000000000000000
 50
0.0000000000000000
 51
0.0000000000000000
 71
0
  1
# 273
  0
POINT
  8
2
 10
466.9628906250000
 20
-71.64575576782227
  0
TEXT
  8
2
 10
466.9628906250000
 20
-71.64575576782227
 40
8.000000000000000
 50
0.0000000000000000
 51
0.0000000000000000
 71
0
  1
# 274
  0
POINT
  8
2
 10
447.9407501220703
 20
-133.8719081878662
  0
TEXT
  8
2
 10
447.9407501220703
 20
-133.8719081878662
 40
8.000000000000000
 50
0.0000000000000000
 51
0.0000000000000000
 71
0
  1
# 275
  0
POINT
  8
2
 10
435.6145858764648
 20
-131.6457557678223
  0
TEXT
  8
2
 10
435.6145858764648
 20
-131.6457557678223
 40
8.000000000000000
 50
0.0000000000000000
 51
0.0000000000000000
 71
0
  1
# 276
  0
POINT
  8
2
 10
423.3765411376953
 20
-133.8735485076904
  0
TEXT
  8
2
 10
423.3765411376953
 20
-133.8735485076904
 40
8.000000000000000
 50
0.0000000000000000
 51
0.0000000000000000
 71
0
  1
# 277
  0
POINT
  8
2
 10
404.4145965576172
 20
-71.64575576782227
  0
TEXT
  8
2
 10
404.4145965576172
 20
-71.64575576782227
 40
8.000000000000000
 50
0.0000000000000000
 51
0.0000000000000000
 71
0
  1
# 278
  0
POINT
  8
2
 10
385.4407501220703
 20
-133.8691997528076
  0
TEXT
  8
2
 10
385.4407501220703
 20
-133.8691997528076
 40
8.000000000000000
 50
0.0000000000000000
 51
0.0000000000000000
 71
0
  1
# 279
  0
POINT
  8
2
 10
373.1145477294922
 20
-131.6457557678223
  0
TEXT
  8
2
 10
373.1145477294922
 20
-131.6457557678223
 40
8.000000000000000
 50
0.0000000000000000
 51
0.0000000000000000
 71
0
  1
# 280
  0
POINT
  8
2
 10
360.8765411376953
 20
-133.8735961914063
  0
TEXT
  8
2
 10
360.8765411376953
 20
-133.8735961914063
 40
8.000000000000000
 50
0.0000000000000000
 51
0.0000000000000000
 71
0
  1
# 281
  0
POINT
  8
2
 10
341.9145584106445
 20
-71.64575576782227
  0
TEXT
  8
2
 10
341.9145584106445
 20
-71.64575576782227
 40
8.000000000000000
 50
0.0000000000000000
 51
0.0000000000000000
 71
0
  1
# 282
  0
POINT
  8
2
 10
322.9429626464844
 20
-133.8733577728271
  0
TEXT
  8
2
 10
322.9429626464844
 20
-133.8733577728271
 40
8.000000000000000
 50
0.0000000000000000
 51
0.0000000000000000
 71
0
  1
# 283
  0
POINT
  8
2
 10
310.6145477294922
 20
-131.6457557678223
  0
TEXT
  8
2
 10
310.6145477294922
 20
-131.6457557678223
 40
8.000000000000000
 50
0.0000000000000000
 51
0.0000000000000000
 71
0
  1
# 284
  0
POINT
  8
2
 10
298.3702087402344
 20
-133.8519001007080
  0
TEXT
  8
2
 10
298.3702087402344
 20
-133.8519001007080
 40
8.000000000000000
 50
0.0000000000000000
 51
0.0000000000000000
 71
0
  1
# 285
  0
POINT
  8
2
 10
279.4145965576172
 20
-71.64576530456543
  0
TEXT
  8
2
 10
279.4145965576172
 20
-71.64576530456543
 40
8.000000000000000
 50
0.0000000000000000
 51
0.0000000000000000
 71
0
  1
# 286
  0
POINT
  8
2
 10
260.4546737670898
 20
-133.8497924804688
  0
TEXT
  8
2
 10
260.4546737670898
 20
-133.8497924804688
 40
8.000000000000000
 50
0.0000000000000000
 51
0.0000000000000000
 71
0
  1
# 287
  0
POINT
  8
2
 10
248.1145477294922
 20
-131.6457557678223
  0
TEXT
  8
2
 10
248.1145477294922
 20
-131.6457557678223
 40
8.000000000000000
 50
0.0000000000000000
 51
0.0000000000000000
 71
0
  1
# 288
  0
POINT
  8
2
 10
235.8770370483398
 20
-133.8753414154053
  0
TEXT
  8
2
 10
235.8770370483398
 20
-133.8753414154053
 40
8.000000000000000
 50
0.0000000000000000
 51
0.0000000000000000
 71
0
  1
# 289
  0
POINT
  8
2
 10
216.9214248657227
 20
-71.66920661926270
  0
TEXT
  8
2
 10
216.9214248657227
 20
-71.66920661926270
 40
8.000000000000000
 50
0.0000000000000000
 51
0.0000000000000000
 71
0
  1
# 290
  0
POINT
  8
2
 10
216.2523269653320
 20
-45.56456089019775
  0
TEXT
  8
2
 10
216.2523269653320
 20
-45.56456089019775
 40
8.000000000000000
 50
0.0000000000000000
 51
0.0000000000000000
 71
0
  1
# 291
  0
POINT
  8
2
 10
842.6030731201172
 20
-45.56456089019775
  0
TEXT
  8
2
 10
842.6030731201172
 20
-45.56456089019775
 40
8.000000000000000
 50
0.0000000000000000
 51
0.0000000000000000
 71
0
  1
# 292
  0
POINT
  8
2
 10
841.9277191162109
 20
-71.66787624359131
  0
TEXT
  8
2
 10
841.9277191162109
 20
-71.66787624359131
 40
8.000000000000000
 50
0.0000000000000000
 51
0.0000000000000000
 71
0
  1
# 293
  0
POINT
  8
2
 10
822.9744720458984
 20
-133.8732814788818
  0
TEXT
  8
2
 10
822.9744720458984
 20
-133.8732814788818
 40
8.000000000000000
 50
0.0000000000000000
 51
0.0000000000000000
 71
0
  1
# 294
  0
POINT
  8
2
 10
798.4016418457031
 20
-133.8515377044678
  0
TEXT
  8
2
 10
798.4016418457031
 20
-133.8515377044678
 40
8.000000000000000
 50
0.0000000000000000
 51
0.0000000000000000
 71
0
  1
# 295
  0
POINT
  8
2
 10
779.4477844238281
 20
-71.64565086364746
  0
TEXT
  8
2
 10
779.4477844238281
 20
-71.64565086364746
 40
8.000000000000000
 50
0.0000000000000000
 51
0.0000000000000000
 71
0
  1
# 296
  0
POINT
  8
2
 10
756.3699631050624
 20
-148.2728242096715
  0
TEXT
  8
2
 10
756.3699631050624
 20
-148.2728242096715
 40
8.000000000000000
 50
0.0000000000000000
 51
0.0000000000000000
 71
0
  1
# 297
  0
POINT
  8
2
 10
748.8259531252463
 20
-146.7857784155747
  0
TEXT
  8
2
 10
748.8259531252463
 20
-146.7857784155747
 40
8.000000000000000
 50
0.0000000000000000
 51
0.0000000000000000
 71
0
  1
# 298
  0
POINT
  8
2
 10
738.5375286899528
 20
-148.6395832000403
  0
TEXT
  8
2
 10
738.5375286899528
 20
-148.6395832000403
 40
8.000000000000000
 50
0.0000000000000000
 51
0.0000000000000000
 71
0
  1
# 299
  0
POINT
  8
2
 10
735.8776092529297
 20
-133.8773059844971
  0
TEXT
  8
2
 10
735.8776092529297
 20
-133.8773059844971
 40
8.000000000000000
 50
0.0000000000000000
 51
0.0000000000000000
 71
0
  1
# 300
  0
POINT
  8
2
 10
716.8861389160156
 20
-71.64575576782227
  0
TEXT
  8
2
 10
716.8861389160156
 20
-71.64575576782227
 40
8.000000000000000
 50
0.0000000000000000
 51
0.0000000000000000
 71
0
  1
# 301
  0
POINT
  8
2
 10
697.9407501220703
 20
-133.8691997528076
  0
TEXT
  8
2
 10
697.9407501220703
 20
-133.8691997528076
 40
8.000000000000000
 50
0.0000000000000000
 51
0.0000000000000000
 71
0
  1
# 302
  0
POINT
  8
2
 10
694.0148423826105
 20
-148.3463282119064
  0
TEXT
  8
2
 10
694.0148423826105
 20
-148.3463282119064
 40
8.000000000000000
 50
0.0000000000000000
 51
0.0000000000000000
 71
0
  1
# 303
  0
POINT
  8
2
 10
685.6267924302451
 20
-146.8900476878322
  0
TEXT
  8
2
 10
685.6267924302451
 20
-146.8900476878322
 40
8.000000000000000
 50
0.0000000000000000
 51
0.0000000000000000
 71
0
  1
# 304
  0
POINT
  8
2
 10
676.0630307118673
 20
-148.6310612097577
  0
TEXT
  8
2
 10
676.0630307118673
 20
-148.6310612097577
 40
8.000000000000000
 50
0.0000000000000000
 51
0.0000000000000000
 71
0
  1
# 305
  0
POINT
  8
2
 10
673.3765411376953
 20
-133.8735961914063
  0
TEXT
  8
2
 10
673.3765411376953
 20
-133.8735961914063
 40
8.000000000000000
 50
0.0000000000000000
 51
0.0000000000000000
 71
0
  1
# 306
  0
POINT
  8
2
 10
654.4145965576172
 20
-71.64575576782227
  0
TEXT
  8
2
 10
654.4145965576172
 20
-71.64575576782227
 40
8.000000000000000
 50
0.0000000000000000
 51
0.0000000000000000
 71
0
  1
# 307
  0
POINT
  8
2
 10
635.4407119750977
 20
-133.8691997528076
  0
TEXT
  8
2
 10
635.4407119750977
 20
-133.8691997528076
 40
8.000000000000000
 50
0.0000000000000000
 51
0.0000000000000000
 71
0
  1
# 308
  0
POINT
  8
2
 10
631.5147923845707
 20
-148.3463249981288
  0
TEXT
  8
2
 10
631.5147923845707
 20
-148.3463249981288
 40
8.000000000000000
 50
0.0000000000000000
 51
0.0000000000000000
 71
0
  1
# 309
  0
POINT
  8
2
 10
623.1268181494416
 20
-146.8900484327361
  0
TEXT
  8
2
 10
623.1268181494416
 20
-146.8900484327361
 40
8.000000000000000
 50
0.0000000000000000
 51
0.0000000000000000
 71
0
  1
# 310
  0
POINT
  8
2
 10
613.5630226064707
 20
-148.6310626852841
  0
TEXT
  8
2
 10
613.5630226064707
 20
-148.6310626852841
 40
8.000000000000000
 50
0.0000000000000000
 51
0.0000000000000000
 71
0
  1
# 311
  0
POINT
  8
2
 10
610.8765411376953
 20
-133.8735961914063
  0
TEXT
  8
2
 10
610.8765411376953
 20
-133.8735961914063
 40
8.000000000000000
 50
0.0000000000000000
 51
0.0000000000000000
 71
0
  1
# 312
  0
POINT
  8
2
 10
591.9145584106445
 20
-71.64575576782227
  0
TEXT
  8
2
 10
591.9145584106445
 20
-71.64575576782227
 40
8.000000000000000
 50
0.0000000000000000
 51
0.0000000000000000
 71
0
  1
# 313
  0
POINT
  8
2
 10
572.9407119750977
 20
-133.8691997528076
  0
TEXT
  8
2
 10
572.9407119750977
 20
-133.8691997528076
 40
8.000000000000000
 50
0.0000000000000000
 51
0.0000000000000000
 71
0
  1
# 314
  0
POINT
  8
2
 10
569.0147965077274
 20
-148.3463261162494
  0
TEXT
  8
2
 10
569.0147965077274
 20
-148.3463261162494
 40
8.000000000000000
 50
0.0000000000000000
 51
0.0000000000000000
 71
0
  1
# 315
  0
POINT
  8
2
 10
560.6267883098699
 20
-146.8900484379167
  0
TEXT
  8
2
 10
560.6267883098699
 20
-146.8900484379167
 40
8.000000000000000
 50
0.0000000000000000
 51
0.0000000000000000
 71
0
  1
# 316
  0
POINT
  8
2
 10
551.0630307118672
 20
-148.6310612097577
  0
TEXT
  8
2
 10
551.0630307118672
 20
-148.6310612097577
 40
8.000000000000000
 50
0.0000000000000000
 51
0.0000000000000000
 71
0
  1
# 317
  0
POINT
  8
2
 10
548.3765411376953
 20
-133.8735961914063
  0
TEXT
  8
2
 10
548.3765411376953
 20
-133.8735961914063
 40
8.000000000000000
 50
0.0000000000000000
 51
0.0000000000000000
 71
0
  1
# 318
  0
POINT
  8
2
 10
529.4145965576172
 20
-71.64575576782227
  0
TEXT
  8
2
 10
529.4145965576172
 20
-71.64575576782227
 40
8.000000000000000
 50
0.0000000000000000
 51
0.0000000000000000
 71
0
  1
# 319
  0
POINT
  8
2
 10
510.4407501220703
 20
-133.8694763183594
  0
TEXT
  8
2
 10
510.4407501220703
 20
-133.8694763183594
 40
8.000000000000000
 50
0.0000000000000000
 51
0.0000000000000000
 71
0
  1
# 320
  0
POINT
  8
2
 10
506.5180974772737
 20
-148.3474871012076
  0
TEXT
  8
2
 10
506.5180974772737
 20
-148.3474871012076
 40
8.000000000000000
 50
0.0000000000000000
 51
0.0000000000000000
 71
0
  1
# 321
  0
POINT
  8
2
 10
498.1225896905405
 20
-146.8893441215257
  0
TEXT
  8
2
 10
498.1225896905405
 20
-146.8893441215257
 40
8.000000000000000
 50
0.0000000000000000
 51
0.0000000000000000
 71
0
  1
# 322
  0
POINT
  8
2
 10
488.5150944793401
 20
-148.6330184010669
  0
TEXT
  8
2
 10
488.5150944793401
 20
-148.6330184010669
 40
8.000000000000000
 50
0.0000000000000000
 51
0.0000000000000000
 71
0
  1
# 323
  0
POINT
  8
2
 10
485.8364868164063
 20
-133.8741207122803
  0
TEXT
  8
2
 10
485.8364868164063
 20
-133.8741207122803
 40
8.000000000000000
 50
0.0000000000000000
 51
0.0000000000000000
 71
0
  1
# 324
  0
POINT
  8
2
 10
466.9628906250000
 20
-71.64575576782227
  0
TEXT
  8
2
 10
466.9628906250000
 20
-71.64575576782227
 40
8.000000000000000
 50
0.0000000000000000
 51
0.0000000000000000
 71
0
  1
# 325
  0
POINT
  8
2
 10
447.9407501220703
 20
-133.8719081878662
  0
TEXT
  8
2
 10
447.9407501220703
 20
-133.8719081878662
 40
8.000000000000000
 50
0.0000000000000000
 51
0.0000000000000000
 71
0
  1
# 326
  0
POINT
  8
2
 10
444.0110624110457
 20
-148.3480110644633
  0
TEXT
  8
2
 10
444.0110624110457
 20
-148.3480110644633
 40
8.000000000000000
 50
0.0000000000000000
 51
0.0000000000000000
 71
0
  1
# 327
  0
POINT
  8
2
 10
435.6251717468167
 20
-146.8903377213497
  0
TEXT
  8
2
 10
435.6251717468167
 20
-146.8903377213497
 40
8.000000000000000
 50
0.0000000000000000
 51
0.0000000000000000
 71
0
  1
# 328
  0
POINT
  8
2
 10
426.0629669505461
 20
-148.6310251331860
  0
TEXT
  8
2
 10
426.0629669505461
 20
-148.6310251331860
 40
8.000000000000000
 50
0.0000000000000000
 51
0.0000000000000000
 71
0
  1
# 329
  0
POINT
  8
2
 10
423.3765411376953
 20
-133.8735485076904
  0
TEXT
  8
2
 10
423.3765411376953
 20
-133.8735485076904
 40
8.000000000000000
 50
0.0000000000000000
 51
0.0000000000000000
 71
0
  1
# 330
  0
POINT
  8
2
 10
404.4145965576172
 20
-71.64575576782227
  0
TEXT
  8
2
 10
404.4145965576172
 20
-71.64575576782227
 40
8.000000000000000
 50
0.0000000000000000
 51
0.0000000000000000
 71
0
  1
# 331
  0
POINT
  8
2
 10
385.4407501220703
 20
-133.8691997528076
  0
TEXT
  8
2
 10
385.4407501220703
 20
-133.8691997528076
 40
8.000000000000000
 50
0.0000000000000000
 51
0.0000000000000000
 71
0
  1
# 332
  0
POINT
  8
2
 10
381.5148423826104
 20
-148.3463282119064
  0
TEXT
  8
2
 10
381.5148423826104
 20
-148.3463282119064
 40
8.000000000000000
 50
0.0000000000000000
 51
0.0000000000000000
 71
0
  1
# 333
  0
POINT
  8
2
 10
373.1267924302457
 20
-146.8900476878322
  0
TEXT
  8
2
 10
373.1267924302457
 20
-146.8900476878322
 40
8.000000000000000
 50
0.0000000000000000
 51
0.0000000000000000
 71
0
  1
# 334
  0
POINT
  8
2
 10
363.5630307118672
 20
-148.6310612097577
  0
TEXT
  8
2
 10
363.5630307118672
 20
-148.6310612097577
 40
8.000000000000000
 50
0.0000000000000000
 51
0.0000000000000000
 71
0
  1
# 335
  0
POINT
  8
2
 10
360.8765411376953
 20
-133.8735961914063
  0
TEXT
  8
2
 10
360.8765411376953
 20
-133.8735961914063
 40
8.000000000000000
 50
0.0000000000000000
 51
0.0000000000000000
 71
0
  1
# 336
  0
POINT
  8
2
 10
341.9145584106445
 20
-71.64575576782227
  0
TEXT
  8
2
 10
341.9145584106445
 20
-71.64575576782227
 40
8.000000000000000
 50
0.0000000000000000
 51
0.0000000000000000
 71
0
  1
# 337
  0
POINT
  8
2
 10
322.9429626464844
 20
-133.8733577728271
  0
TEXT
  8
2
 10
322.9429626464844
 20
-133.8733577728271
 40
8.000000000000000
 50
0.0000000000000000
 51
0.0000000000000000
 71
0
  1
# 338
  0
POINT
  8
2
 10
319.0462919167751
 20
-148.3583830480632
  0
TEXT
  8
2
 10
319.0462919167751
 20
-148.3583830480632
 40
8.000000000000000
 50
0.0000000000000000
 51
0.0000000000000000
 71
0
  1
# 339
  0
POINT
  8
2
 10
310.5254002223477
 20
-146.7348264832125
  0
TEXT
  8
2
 10
310.5254002223477
 20
-146.7348264832125
 40
8.000000000000000
 50
0.0000000000000000
 51
0.0000000000000000
 71
0
  1
# 340
  0
POINT
  8
2
 10
302.1204793323077
 20
-148.3755177797241
  0
TEXT
  8
2
 10
302.1204793323077
 20
-148.3755177797241
 40
8.000000000000000
 50
0.0000000000000000
 51
0.0000000000000000
 71
0
  1
# 341
  0
POINT
  8
2
 10
298.3702087402344
 20
-133.8519001007080
  0
TEXT
  8
2
 10
298.3702087402344
 20
-133.8519001007080
 40
8.000000000000000
 50
0.0000000000000000
 51
0.0000000000000000
 71
0
  1
# 342
  0
POINT
  8
2
 10
279.4145965576172
 20
-71.64576530456543
  0
TEXT
  8
2
 10
279.4145965576172
 20
-71.64576530456543
 40
8.000000000000000
 50
0.0000000000000000
 51
0.0000000000000000
 71
0
  1
# 343
  0
POINT
  8
2
 10
260.4546737670898
 20
-133.8497924804688
  0
TEXT
  8
2
 10
260.4546737670898
 20
-133.8497924804688
 40
8.000000000000000
 50
0.0000000000000000
 51
0.0000000000000000
 71
0
  1
# 344
  0
POINT
  8
2
 10
256.3359167182580
 20
-148.2732400701644
  0
TEXT
  8
2
 10
256.3359167182580
 20
-148.2732400701644
 40
8.000000000000000
 50
0.0000000000000000
 51
0.0000000000000000
 71
0
  1
# 345
  0
POINT
  8
2
 10
248.7118179181554
 20
-146.7838615589700
  0
TEXT
  8
2
 10
248.7118179181554
 20
-146.7838615589700
 40
8.000000000000000
 50
0.0000000000000000
 51
0.0000000000000000
 71
0
  1
# 346
  0
POINT
  8
2
 10
225.4225704490556
 20
-151.0269934550743
  0
TEXT
  8
2
 10
225.4225704490556
 20
-151.0269934550743
 40
8.000000000000000
 50
0.0000000000000000
 51
0.0000000000000000
 71
0
  1
# 347
  0
POINT
  8
2
 10
201.9785846308991
 20
-74.09148074710434
  0
TEXT
  8
2
 10
201.9785846308991
 20
-74.09148074710434
 40
8.000000000000000
 50
0.0000000000000000
 51
0.0000000000000000
 71
0
  1
# 348
  0
POINT
  8
2
 10
201.2572517933240
 20
-45.94890524858984
  0
TEXT
  8
2
 10
201.2572517933240
 20
-45.94890524858984
 40
8.000000000000000
 50
0.0000000000000000
 51
0.0000000000000000
 71
0
  1
# 349
  0
POINT
  8
2
 10
216.2523269653320
 20
-45.56456089019775
  0
TEXT
  8
2
 10
216.2523269653320
 20
-45.56456089019775
 40
8.000000000000000
 50
0.0000000000000000
 51
0.0000000000000000
 71
0
  1
# 350
  0
POINT
  8
2
 10
842.6030731201172
 20
-45.56456089019775
  0
TEXT
  8
2
 10
842.6030731201172
 20
-45.56456089019775
 40
8.000000000000000
 50
0.0000000000000000
 51
0.0000000000000000
 71
0
  1
# 351
  0
POINT
  8
2
 10
857.5980553019737
 20
-45.95251625593974
  0
TEXT
  8
2
 10
857.5980553019737
 20
-45.95251625593974
 40
8.000000000000000
 50
0.0000000000000000
 51
0.0000000000000000
 71
0
  1
# 352
  0
POINT
  8
2
 10
856.8700294026419
 20
-74.09166924204038
  0
TEXT
  8
2
 10
856.8700294026419
 20
-74.09166924204038
 40
8.000000000000000
 50
0.0000000000000000
 51
0.0000000000000000
 71
0
  1
# 353
  0
POINT
  8
2
 10
833.4350492231781
 20
-151.0063231446930
  0
TEXT
  8
2
 10
833.4350492231781
 20
-151.0063231446930
 40
8.000000000000000
 50
0.0000000000000000
 51
0.0000000000000000
 71
0
  1
# 354
  0
POINT
  8
2
 10
802.1345239720624
 20
-148.3796343117563
  0
TEXT
  8
2
 10
802.1345239720624
 20
-148.3796343117563
 40
8.000000000000000
 50
0.0000000000000000
 51
0.0000000000000000
 71
0
  1
# 355
  0
POINT
  8
2
 10
798.4016418457031
 20
-133.8515377044678
  0
TEXT
  8
2
 10
798.4016418457031
 20
-133.8515377044678
 40
8.000000000000000
 50
0.0000000000000000
 51
0.0000000000000000
 71
0
  1
# 356
  0
POINT
  8
2
 10
779.4477844238281
 20
-71.64565086364746
  0
TEXT
  8
2
 10
779.4477844238281
 20
-71.64565086364746
 40
8.000000000000000
 50
0.0000000000000000
 51
0.0000000000000000
 71
0
  1
# 357
  0
POINT
  8
2
 10
760.4946136474609
 20
-133.8510608673096
  0
TEXT
  8
2
 10
760.4946136474609
 20
-133.8510608673096
 40
8.000000000000000
 50
0.0000000000000000
 51
0.0000000000000000
 71
0
  1
# 358
  0
POINT
  8
3
 10
751.7492576164555
 20
-147.0905198727359
  0
POINT
  8
3
 10
748.8259531252463
 20
-146.7857784155747
  0
POINT
  8
3
 10
745.3727395705245
 20
-147.0124318586874
  0
POINT
  8
3
 10
741.9480125073515
 20
-147.7086230838511
  0
POINT
  8
3
 10
689.8197512674071
 20
-147.3572203625340
  0
POINT
  8
3
 10
685.6267924302451
 20
-146.8900476878322
  0
POINT
  8
3
 10
680.8435215821535
 20
-147.4203154712652
  0
POINT
  8
3
 10
627.3197393532446
 20
-147.3572227659343
  0
POINT
  8
3
 10
623.1268181494416
 20
-146.8900484327361
  0
POINT
  8
3
 10
618.3435306486087
 20
-147.4203129687652
  0
POINT
  8
3
 10
564.8197263424918
 20
-147.3572212118028
  0
POINT
  8
3
 10
560.6267883098699
 20
-146.8900484379167
  0
POINT
  8
3
 10
555.8435196043737
 20
-147.4203147967523
  0
POINT
  8
3
 10
502.3193579864558
 20
-147.3580524968990
  0
POINT
  8
3
 10
498.1225896905405
 20
-146.8893441215257
  0
POINT
  8
3
 10
493.3175479076216
 20
-147.4193012808648
  0
POINT
  8
3
 10
439.8170778810984
 20
-147.3581257762661
  0
POINT
  8
3
 10
435.6251717468167
 20
-146.8903377213497
  0
POINT
  8
3
 10
430.8427143265757
 20
-147.4202971086330
  0
POINT
  8
3
 10
377.3197512674072
 20
-147.3572203625340
  0
POINT
  8
3
 10
373.1267924302457
 20
-146.8900476878322
  0
POINT
  8
3
 10
368.3435215821538
 20
-147.4203154712651
  0
POINT
  8
3
 10
314.1255293544925
 20
-147.1498615577634
  0
POINT
  8
3
 10
310.5254002223477
 20
-146.7348264832125
  0
POINT
  8
3
 10
307.1061498305137
 20
-147.0881241107072
  0
POINT
  8
3
 10
251.6795576776748
 20
-147.0856684648579
  0
POINT
  8
3
 10
248.7118179181554
 20
-146.7838615589700
  0
POINT
  8
3
 10
244.0049409238062
 20
-146.8599050175919
  0
POINT
  8
3
 10
239.3307489298098
 20
-147.4510037566130
  0
POINT
  8
3
 10
230.0477349425227
 20
-149.6633117954541
  0
POINT
  8
3
 10
824.1469366183866
 20
-148.4041595128553
  0
POINT
  8
3
 10
819.4833192672702
 20
-147.4295004510672
  0
POINT
  8
3
 10
814.7962286576894
 20
-146.8465486942362
  0
POINT
  8
3
 10
810.0778403701556
 20
-146.7858733440145
  0
POINT
  8
3
 10
807.1516517306476
 20
-147.0905221147548
  0
POINT
  8
3
 10
804.6264025238513
 20
-147.6538665777426
  0
POINT
  8
4
 10
740.3366023705676
 20
-148.1333444856365
 30
4.000000059604639
 50
107.2702393861209
  0
POINT
  8
4
 10
697.9407501220703
 20
-133.8691997528076
 30
-4.000000059604577
 50
72.64666303670793
  0
POINT
  8
4
 10
677.7891735860981
 20
-148.1582333214821
 30
4.000000059604663
 50
107.3881235456555
  0
POINT
  8
4
 10
635.4407119750977
 20
-133.8691997528076
 30
-4.000000059604652
 50
72.63463461044407
  0
POINT
  8
4
 10
615.2891717088166
 20
-148.1582329823419
 30
4.000000059604655
 50
107.3881246606380
  0
POINT
  8
4
 10
572.9407119750977
 20
-133.8691997528076
 30
-4.000000059604677
 50
72.63465883837215
  0
POINT
  8
4
 10
552.7891728805257
 20
-148.1582329680469
 30
4.000000059604653
 50
107.3881393439116
  0
POINT
  8
4
 10
510.4407501220703
 20
-133.8694763183594
 30
-4.000000059604673
 50
72.64115076295913
  0
POINT
  8
4
 10
490.2491783062660
 20
-148.1589457436252
 30
4.000000059604658
 50
107.3593873920893
  0
POINT
  8
4
 10
443.4673536006993
 20
-148.2086022679650
 30
4.000000059604666
 50
72.65642533212609
  0
POINT
  8
4
 10
427.7888450008517
 20
-148.1581884281869
 30
4.000000059604661
 50
107.3904606775777
  0
POINT
  8
4
 10
385.4407501220703
 20
-133.8691997528076
 30
-4.000000059604631
 50
72.63467413065474
  0
POINT
  8
4
 10
365.2891735860981
 20
-148.1582333214821
 30
4.000000059604646
 50
107.3881235456556
  0
POINT
  8
4
 10
322.9429626464844
 20
-133.8733577728271
 30
-4.000000059604631
 50
72.69399571381537
  0
POINT
  8
4
 10
302.6698701972533
 20
-148.2149678811975
 30
4.000000059604639
 50
106.6448190547864
  0
POINT
  8
4
 10
256.1435538609401
 20
-148.2156384421984
 30
4.000000059604646
 50
73.23825175935264
  0
POINT
  8
4
 10
802.7561900687986
 20
-148.1918477192284
 30
4.000000059604650
 50
106.7320931335294
  0
POINT
  8
4
 10
760.4946136474609
 20
-133.8510608673096
 30
-4.000000059604604
 50
73.24704229902245
  0
POINT
  8
4
 10
760.4946136474609
 20
-133.8510608673096
 30
4.000000059604659
 50
73.27772354609608
  0
POINT
  8
4
 10
735.8776092529297
 20
-133.8773059844971
 30
4.000000059604672
 50
107.3153494953097
  0
POINT
  8
4
 10
697.9407501220703
 20
-133.8691997528076
 30
4.000000059604646
 50
72.61739165201183
  0
POINT
  8
4
 10
673.3765411376953
 20
-133.8735961914063
 30
4.000000059604688
 50
107.3743890456700
  0
POINT
  8
4
 10
635.4407119750977
 20
-133.8691997528076
 30
4.000000059604639
 50
72.61735279758979
  0
POINT
  8
4
 10
610.8765411376953
 20
-133.8735961914063
 30
4.000000059604620
 50
107.3743998215052
  0
POINT
  8
4
 10
572.9407119750977
 20
-133.8691997528076
 30
4.000000059604631
 50
72.61737703326041
  0
POINT
  8
4
 10
548.3765411376953
 20
-133.8735961914063
 30
4.000000059604641
 50
107.3744075297226
  0
POINT
  8
4
 10
510.4407501220703
 20
-133.8694763183594
 30
4.000000059604619
 50
72.62395904580463
  0
POINT
  8
4
 10
485.8364868164063
 20
-133.8741207122803
 30
4.000000059604629
 50
107.3785179610829
  0
POINT
  8
4
 10
447.9407501220703
 20
-133.8719081878662
 30
4.000000059604668
 50
72.61359498276109
  0
POINT
  8
4
 10
423.3765411376953
 20
-133.8735485076904
 30
4.000000059604622
 50
107.3755103709048
  0
POINT
  8
4
 10
385.4407501220703
 20
-133.8691997528076
 30
4.000000059604648
 50
72.61738471006947
  0
POINT
  8
4
 10
360.8765411376953
 20
-133.8735961914063
 30
4.000000059604654
 50
107.3743898565199
  0
POINT
  8
4
 10
322.9429626464844
 20
-133.8733577728271
 30
4.000000059604654
 50
72.66986205191193
  0
POINT
  8
4
 10
298.3702087402344
 20
-133.8519001007080
 30
4.000000059604644
 50
106.6754687021227
  0
POINT
  8
4
 10
260.4546737670898
 20
-133.8497924804688
 30
4.000000059604655
 50
73.28378524321209
  0
POINT
  8
4
 10
798.4016418457031
 20
-133.8515377044678
 30
4.000000059604611
 50
106.6898996826315
  0
POLYLINE
  8
8
 66
1
 70
0
  0
VERTEX
  8
8
 10
322.9429626464844
 20
-133.8733577728271
  0
VERTEX
  8
8
 10
341.9145584106445
 20
-71.64575576782227
  0
VERTEX
  8
8
 10
360.8765411376953
 20
-133.8735961914063
  0
SEQEND
  0
POINT
  8
2
 10
322.9429626464844
 20
-133.8733577728271
  0
TEXT
  8
2
 10
322.9429626464844
 20
-133.8733577728271
 40
8.000000000000000
 50
0.0000000000000000
 51
0.0000000000000000
 71
0
  1
# 359
  0
POINT
  8
2
 10
341.9145584106445
 20
-71.64575576782227
  0
TEXT
  8
2
 10
341.9145584106445
 20
-71.64575576782227
 40
8.000000000000000
 50
0.0000000000000000
 51
0.0000000000000000
 71
0
  1
# 360
  0
POINT
  8
2
 10
360.8765411376953
 20
-133.8735961914063
  0
TEXT
  8
2
 10
360.8765411376953
 20
-133.8735961914063
 40
8.000000000000000
 50
0.0000000000000000
 51
0.0000000000000000
 71
0
  1
# 361
  0
POLYLINE
  8
8
 66
1
 70
0
  0
VERTEX
  8
8
 10
385.4407501220703
 20
-133.8691997528076
  0
VERTEX
  8
8
 10
404.4145965576172
 20
-71.64575576782227
  0
VERTEX
  8
8
 10
423.3765411376953
 20
-133.8735485076904
  0
SEQEND
  0
POINT
  8
2
 10
385.4407501220703
 20
-133.8691997528076
  0
TEXT
  8
2
 10
385.4407501220703
 20
-133.8691997528076
 40
8.000000000000000
 50
0.0000000000000000
 51
0.0000000000000000
 71
0
  1
# 362
  0
POINT
  8
2
 10
404.4145965576172
 20
-71.64575576782227
  0
TEXT
  8
2
 10
404.4145965576172
 20
-71.64575576782227
 40
8.000000000000000
 50
0.0000000000000000
 51
0.0000000000000000
 71
0
  1
# 363
  0
POINT
  8
2
 10
423.3765411376953
 20
-133.8735485076904
  0
TEXT
  8
2
 10
423.3765411376953
 20
-133.8735485076904
 40
8.000000000000000
 50
0.0000000000000000
 51
0.0000000000000000
 71
0
  1
# 364
  0
POLYLINE
  8
8
 66
1
 70
0
  0
VERTEX
  8
8
 10
447.9407501220703
 20
-133.8719081878662
  0
VERTEX
  8
8
 10
466.9628906250000
 20
-71.64575576782227
  0
VERTEX
  8
8
 10
485.8364868164063
 20
-133.8741207122803
  0
SEQEND
  0
POINT
  8
2
 10
447.9407501220703
 20
-133.8719081878662
  0
TEXT
  8
2
 10
447.9407501220703
 20
-133.8719081878662
 40
8.000000000000000
 50
0.0000000000000000
 51
0.0000000000000000
 71
0
  1
# 365
  0
POINT
  8
2
 10
466.9628906250000
 20
-71.64575576782227
  0
TEXT
  8
2
 10
466.9628906250000
 20
-71.64575576782227
 40
8.000000000000000
 50
0.0000000000000000
 51
0.0000000000000000
 71
0
  1
# 366
  0
POINT
  8
2
 10
485.8364868164063
 20
-133.8741207122803
  0
TEXT
  8
2
 10
485.8364868164063
 20
-133.8741207122803
 40
8.000000000000000
 50
0.0000000000000000
 51
0.0000000000000000
 71
0
  1
# 367
  0
POLYLINE
  8
8
 66
1
 70
0
  0
VERTEX
  8
8
 10
510.4407501220703
 20
-133.8694763183594
  0
VERTEX
  8
8
 10
529.4145965576172
 20
-71.64575576782227
  0
VERTEX
  8
8
 10
548.3765411376953
 20
-133.8735961914063
  0
SEQEND
  0
POINT
  8
2
 10
510.4407501220703
 20
-133.8694763183594
  0
TEXT
  8
2
 10
510.4407501220703
 20
-133.8694763183594
 40
8.000000000000000
 50
0.0000000000000000
 51
0.0000000000000000
 71
0
  1
# 368
  0
POINT
  8
2
 10
529.4145965576172
 20
-71.64575576782227
  0
TEXT
  8
2
 10
529.4145965576172
 20
-71.64575576782227
 40
8.000000000000000
 50
0.0000000000000000
 51
0.0000000000000000
 71
0
  1
# 369
  0
POINT
  8
2
 10
548.3765411376953
 20
-133.8735961914063
  0
TEXT
  8
2
 10
548.3765411376953
 20
-133.8735961914063
 40
8.000000000000000
 50
0.0000000000000000
 51
0.0000000000000000
 71
0
  1
# 370
  0
POLYLINE
  8
8
 66
1
 70
0
  0
VERTEX
  8
8
 10
572.9407119750977
 20
-133.8691997528076
  0
VERTEX
  8
8
 10
591.9145584106445
 20
-71.64575576782227
  0
VERTEX
  8
8
 10
610.8765411376953
 20
-133.8735961914063
  0
SEQEND
  0
POINT
  8
2
 10
572.9407119750977
 20
-133.8691997528076
  0
TEXT
  8
2
 10
572.9407119750977
 20
-133.8691997528076
 40
8.000000000000000
 50
0.0000000000000000
 51
0.0000000000000000
 71
0
  1
# 371
  0
POINT
  8
2
 10
591.9145584106445
 20
-71.64575576782227
  0
TEXT
  8
2
 10
591.9145584106445
 20
-71.64575576782227
 40
8.000000000000000
 50
0.0000000000000000
 51
0.0000000000000000
 71
0
  1
# 372
  0
POINT
  8
2
 10
610.8765411376953
 20
-133.8735961914063
  0
TEXT
  8
2
 10
610.8765411376953
 20
-133.8735961914063
 40
8.000000000000000
 50
0.0000000000000000
 51
0.0000000000000000
 71
0
  1
# 373
  0
POLYLINE
  8
8
 66
1
 70
0
  0
VERTEX
  8
8
 10
635.4407119750977
 20
-133.8691997528076
  0
VERTEX
  8
8
 10
654.4145965576172
 20
-71.64575576782227
  0
VERTEX
  8
8
 10
673.3765411376953
 20
-133.8735961914063
  0
SEQEND
  0
POINT
  8
2
 10
635.4407119750977
 20
-133.8691997528076
  0
TEXT
  8
2
 10
635.4407119750977
 20
-133.8691997528076
 40
8.000000000000000
 50
0.0000000000000000
 51
0.0000000000000000
 71
0
  1
# 374
  0
POINT
  8
2
 10
654.4145965576172
 20
-71.64575576782227
  0
TEXT
  8
2
 10
654.4145965576172
 20
-71.64575576782227
 40
8.000000000000000
 50
0.0000000000000000
 51
0.0000000000000000
 71
0
  1
# 375
  0
POINT
  8
2
 10
673.3765411376953
 20
-133.8735961914063
  0
TEXT
  8
2
 10
673.3765411376953
 20
-133.8735961914063
 40
8.000000000000000
 50
0.0000000000000000
 51
0.0000000000000000
 71
0
  1
# 376
  0
POLYLINE
  8
8
 66
1
 70
0
  0
VERTEX
  8
8
 10
697.9407501220703
 20
-133.8691997528076
  0
VERTEX
  8
8
 10
716.8861389160156
 20
-71.64575576782227
  0
VERTEX
  8
8
 10
735.8776092529297
 20
-133.8773059844971
  0
SEQEND
  0
POINT
  8
2
 10
697.9407501220703
 20
-133.8691997528076
  0
TEXT
  8
2
 10
697.9407501220703
 20
-133.8691997528076
 40
8.000000000000000
 50
0.0000000000000000
 51
0.0000000000000000
 71
0
  1
# 377
  0
POINT
  8
2
 10
716.8861389160156
 20
-71.64575576782227
  0
TEXT
  8
2
 10
716.8861389160156
 20
-71.64575576782227
 40
8.000000000000000
 50
0.0000000000000000
 51
0.0000000000000000
 71
0
  1
# 378
  0
POINT
  8
2
 10
735.8776092529297
 20
-133.8773059844971
  0
TEXT
  8
2
 10
735.8776092529297
 20
-133.8773059844971
 40
8.000000000000000
 50
0.0000000000000000
 51
0.0000000000000000
 71
0
  1
# 379
  0
POLYLINE
  8
8
 66
1
 70
0
  0
VERTEX
  8
8
 10
260.4546737670898
 20
-133.8497924804688
  0
VERTEX
  8
8
 10
279.4145965576172
 20
-71.64576530456543
  0
VERTEX
  8
8
 10
298.3702087402344
 20
-133.8519001007080
  0
SEQEND
  0
POINT
  8
2
 10
260.4546737670898
 20
-133.8497924804688
  0
TEXT
  8
2
 10
260.4546737670898
 20
-133.8497924804688
 40
8.000000000000000
 50
0.0000000000000000
 51
0.0000000000000000
 71
0
  1
# 380
  0
POINT
  8
2
 10
279.4145965576172
 20
-71.64576530456543
  0
TEXT
  8
2
 10
279.4145965576172
 20
-71.64576530456543
 40
8.000000000000000
 50
0.0000000000000000
 51
0.0000000000000000
 71
0
  1
# 381
  0
POINT
  8
2
 10
298.3702087402344
 20
-133.8519001007080
  0
TEXT
  8
2
 10
298.3702087402344
 20
-133.8519001007080
 40
8.000000000000000
 50
0.0000000000000000
 51
0.0000000000000000
 71
0
  1
# 382
  0
POLYLINE
  8
8
 66
1
 70
0
  0
VERTEX
  8
8
 10
760.4946136474609
 20
-133.8510608673096
  0
VERTEX
  8
8
 10
779.4477844238281
 20
-71.64565086364746
  0
VERTEX
  8
8
 10
798.4016418457031
 20
-133.8515377044678
  0
SEQEND
  0
POINT
  8
2
 10
760.4946136474609
 20
-133.8510608673096
  0
TEXT
  8
2
 10
760.4946136474609
 20
-133.8510608673096
 40
8.000000000000000
 50
0.0000000000000000
 51
0.0000000000000000
 71
0
  1
# 383
  0
POINT
  8
2
 10
779.4477844238281
 20
-71.64565086364746
  0
TEXT
  8
2
 10
779.4477844238281
 20
-71.64565086364746
 40
8.000000000000000
 50
0.0000000000000000
 51
0.0000000000000000
 71
0
  1
# 384
  0
POINT
  8
2
 10
798.4016418457031
 20
-133.8515377044678
  0
TEXT
  8
2
 10
798.4016418457031
 20
-133.8515377044678
 40
8.000000000000000
 50
0.0000000000000000
 51
0.0000000000000000
 71
0
  1
# 385
  0
ENDBLK
  0
ENDSEC
  0
SECTION
  2
ENTITIES
  0
INSERT
  8
1
  2
1
 10
0.0
 20
0.0
  0
INSERT
  8
1
  2
2
 10
0.0
 20
0.0
  0
INSERT
  8
1
  2
3
 10
0.0
 20
0.0
  0
INSERT
  8
1
  2
4
 10
0.0
 20
0.0
  0
INSERT
  8
1
  2
5
 10
0.0
 20
0.0
  0
INSERT
  8
1
  2
6
 10
0.0
 20
0.0
  0
INSERT
  8
1
  2
7
 10
0.0
 20
0.0
  0
INSERT
  8
1
  2
8
 10
0.0
 20
0.0
  0
INSERT
  8
1
  2
9
 10
0.0
 20
0.0
  0
INSERT
  8
1
  2
10
 10
0.0
 20
0.0
  0
TEXT
  8
1
 10
-2179.079754124632
 20
-549.6347808837891
 40
8.000000000000000
 50
0.0000000000000000
 51
0.0000000000000000
 71
0
  1
Style Name: BELLINI_BOMBER
  0
TEXT
  8
1
 10
-2179.079754124632
 20
-557.6347808837891
 40
8.000000000000000
 50
0.0000000000000000
 51
0.0000000000000000
 71
0
  1
Grade Rule Table: BELLINI_BOMBER_25SS
  0
TEXT
  8
1
 10
-2179.079754124632
 20
-565.6347808837891
 40
8.000000000000000
 50
0.0000000000000000
 51
0.0000000000000000
 71
0
  1
Sample Size: IT38
  0
TEXT
  8
1
 10
-2179.079754124632
 20
-573.6347808837891
 40
8.000000000000000
 50
0.0000000000000000
 51
0.0000000000000000
 71
0
  1
Units: METRIC
  0
TEXT
  8
1
 10
-2179.079754124632
 20
-581.6347808837891
 40
8.000000000000000
 50
0.0000000000000000
 51
0.0000000000000000
 71
0
  1
Tolerance: 0.020000
  0
TEXT
  8
1
 10
-2179.079754124632
 20
-589.6347808837891
 40
8.000000000000000
 50
0.0000000000000000
 51
0.0000000000000000
 71
0
  1
Creation Date: 03-06-2024
  0
TEXT
  8
1
 10
-2179.079754124632
 20
-597.6347808837891
 40
8.000000000000000
 50
0.0000000000000000
 51
0.0000000000000000
 71
0
  1
Creation Time: 21:53
  0
TEXT
  8
1
 10
-2179.079754124632
 20
-605.6347808837891
 40
8.000000000000000
 50
0.0000000000000000
 51
0.0000000000000000
 71
0
  1
Author: Optitex
  0
ENDSEC
  0
EOF
